<svg xmlns="http://www.w3.org/2000/svg" width="20.416" height="25.788" viewBox="0 0 20.416 25.788">
  <g id="up-arrow" transform="translate(73.75 25.788) rotate(180)">
    <path id="Path_13389" data-name="Path 13389" d="M63.916.16a.537.537,0,0,0-.76,0h0L53.484,9.831a.537.537,0,0,0,.76.76L63,1.836V25.253a.537.537,0,1,0,1.075,0V1.836l8.753,8.753a.537.537,0,1,0,.773-.747l-.013-.013Z" transform="translate(0 -0.002)" fill="#4caf50"/>
    <path id="Path_13390" data-name="Path 13390" d="M73.226,10.758a.537.537,0,0,1-.38-.157L63.556,1.31,54.266,10.6a.537.537,0,0,1-.76-.76L63.176.171a.537.537,0,0,1,.76,0l9.671,9.671a.537.537,0,0,1-.38.916Z" transform="translate(-0.02 -0.013)" fill="#04194b"/>
    <path id="Path_13391" data-name="Path 13391" d="M245.75,25.788a.537.537,0,0,1-.537-.537V.537a.537.537,0,0,1,1.075,0V25.251A.537.537,0,0,1,245.75,25.788Z" transform="translate(-182.215)" fill="#04194b"/>
  </g>
</svg>
