<svg xmlns="http://www.w3.org/2000/svg" xmlns:xlink="http://www.w3.org/1999/xlink" width="106" height="244.722" viewBox="0 0 106 244.722">
  <defs>
    <linearGradient id="linear-gradient" x1="0.5" x2="0.5" y2="1" gradientUnits="objectBoundingBox">
      <stop offset="0" stop-color="#004c8c"/>
      <stop offset="0.404" stop-color="#002f6c"/>
      <stop offset="1" stop-color="#04194b"/>
    </linearGradient>
  </defs>
  <g id="Group_7641" data-name="Group 7641" transform="translate(-595 -200)">
    <g id="Group_7640" data-name="Group 7640" transform="translate(454.614 57.223)" opacity="0.197">
      <ellipse id="Ellipse_521" data-name="Ellipse 521" cx="40.793" cy="6.421" rx="40.793" ry="6.421" transform="translate(146.809 374.657)" fill="#fff" opacity="0"/>
      <ellipse id="Ellipse_522" data-name="Ellipse 522" cx="39.879" cy="6.277" rx="39.879" ry="6.277" transform="translate(147.723 374.801)" fill="#f7f8fa" opacity="0.024"/>
      <ellipse id="Ellipse_523" data-name="Ellipse 523" cx="38.965" cy="6.133" rx="38.965" ry="6.133" transform="translate(148.637 374.945)" fill="#f2f4f6" opacity="0.049"/>
      <ellipse id="Ellipse_524" data-name="Ellipse 524" cx="38.051" cy="5.989" rx="38.051" ry="5.989" transform="translate(149.551 375.089)" fill="#ebedf1" opacity="0.073"/>
      <ellipse id="Ellipse_525" data-name="Ellipse 525" cx="37.137" cy="5.845" rx="37.137" ry="5.845" transform="translate(150.465 375.233)" fill="#e6e8ed" opacity="0.098"/>
      <ellipse id="Ellipse_526" data-name="Ellipse 526" cx="36.223" cy="5.701" rx="36.223" ry="5.701" transform="translate(151.379 375.377)" fill="#e1e3e9" opacity="0.122"/>
      <ellipse id="Ellipse_527" data-name="Ellipse 527" cx="35.309" cy="5.558" rx="35.309" ry="5.558" transform="translate(152.293 375.521)" fill="#d9dde4" opacity="0.146"/>
      <ellipse id="Ellipse_528" data-name="Ellipse 528" cx="34.395" cy="5.414" rx="34.395" ry="5.414" transform="translate(153.207 375.664)" fill="#d4d8e0" opacity="0.171"/>
      <ellipse id="Ellipse_529" data-name="Ellipse 529" cx="33.482" cy="5.27" rx="33.482" ry="5.27" transform="translate(154.121 375.808)" fill="#cfd3dd" opacity="0.195"/>
      <ellipse id="Ellipse_530" data-name="Ellipse 530" cx="32.568" cy="5.126" rx="32.568" ry="5.126" transform="translate(155.035 375.952)" fill="#c8ccd7" opacity="0.22"/>
      <ellipse id="Ellipse_531" data-name="Ellipse 531" cx="31.654" cy="4.982" rx="31.654" ry="4.982" transform="translate(155.949 376.096)" fill="#c3c8d4" opacity="0.244"/>
      <ellipse id="Ellipse_532" data-name="Ellipse 532" cx="30.74" cy="4.838" rx="30.74" ry="4.838" transform="translate(156.863 376.24)" fill="#bbc1ce" opacity="0.268"/>
      <ellipse id="Ellipse_533" data-name="Ellipse 533" cx="29.826" cy="4.694" rx="29.826" ry="4.694" transform="translate(157.777 376.384)" fill="#b6bccb" opacity="0.293"/>
      <ellipse id="Ellipse_534" data-name="Ellipse 534" cx="28.912" cy="4.551" rx="28.912" ry="4.551" transform="translate(158.691 376.527)" fill="#afb5c5" opacity="0.317"/>
      <ellipse id="Ellipse_535" data-name="Ellipse 535" cx="27.998" cy="4.407" rx="27.998" ry="4.407" transform="translate(159.605 376.671)" fill="#aab1c2" opacity="0.341"/>
      <ellipse id="Ellipse_536" data-name="Ellipse 536" cx="27.084" cy="4.263" rx="27.084" ry="4.263" transform="translate(160.519 376.815)" fill="#a2aabc" opacity="0.366"/>
      <ellipse id="Ellipse_537" data-name="Ellipse 537" cx="26.17" cy="4.119" rx="26.17" ry="4.119" transform="translate(161.433 376.959)" fill="#9da5b9" opacity="0.39"/>
      <ellipse id="Ellipse_538" data-name="Ellipse 538" cx="25.256" cy="3.975" rx="25.256" ry="3.975" transform="translate(162.347 377.103)" fill="#969eb3" opacity="0.415"/>
      <ellipse id="Ellipse_539" data-name="Ellipse 539" cx="24.342" cy="3.831" rx="24.342" ry="3.831" transform="translate(163.261 377.247)" fill="#919ab0" opacity="0.439"/>
      <ellipse id="Ellipse_540" data-name="Ellipse 540" cx="23.428" cy="3.687" rx="23.428" ry="3.687" transform="translate(164.175 377.391)" fill="#8c95ac" opacity="0.463"/>
      <ellipse id="Ellipse_541" data-name="Ellipse 541" cx="22.514" cy="3.544" rx="22.514" ry="3.544" transform="translate(165.089 377.534)" fill="#848ea7" opacity="0.488"/>
      <ellipse id="Ellipse_542" data-name="Ellipse 542" cx="21.6" cy="3.4" rx="21.6" ry="3.4" transform="translate(166.003 377.678)" fill="#7f8aa3" opacity="0.512"/>
      <ellipse id="Ellipse_543" data-name="Ellipse 543" cx="20.686" cy="3.256" rx="20.686" ry="3.256" transform="translate(166.917 377.822)" fill="#77839e" opacity="0.537"/>
      <ellipse id="Ellipse_544" data-name="Ellipse 544" cx="19.772" cy="3.112" rx="19.772" ry="3.112" transform="translate(167.831 377.966)" fill="#727e9a" opacity="0.561"/>
      <path id="Path_14905" data-name="Path 14905" d="M236.8,385.853c0,1.639-8.443,2.968-18.857,2.968s-18.858-1.329-18.858-2.968,8.443-2.968,18.858-2.968S236.8,384.214,236.8,385.853Z" transform="translate(-30.34 -4.775)" fill="#6d7a97" opacity="0.585"/>
      <ellipse id="Ellipse_545" data-name="Ellipse 545" cx="17.944" cy="2.824" rx="17.944" ry="2.824" transform="translate(169.659 378.254)" fill="#667391" opacity="0.61"/>
      <ellipse id="Ellipse_546" data-name="Ellipse 546" cx="17.03" cy="2.68" rx="17.03" ry="2.68" transform="translate(170.573 378.398)" fill="#616e8e" opacity="0.634"/>
      <path id="Path_14906" data-name="Path 14906" d="M237.851,386.451c0,1.4-7.215,2.537-16.116,2.537s-16.116-1.136-16.116-2.537,7.215-2.537,16.116-2.537S237.851,385.049,237.851,386.451Z" transform="translate(-34.133 -5.372)" fill="#596788" opacity="0.659"/>
      <ellipse id="Ellipse_547" data-name="Ellipse 547" cx="15.202" cy="2.393" rx="15.202" ry="2.393" transform="translate(172.401 378.685)" fill="#546385" opacity="0.683"/>
      <ellipse id="Ellipse_548" data-name="Ellipse 548" cx="14.288" cy="2.249" rx="14.288" ry="2.249" transform="translate(173.315 378.829)" fill="#4d5c7f" opacity="0.707"/>
      <path id="Path_14907" data-name="Path 14907" d="M238.9,387.047c0,1.162-5.987,2.1-13.374,2.1s-13.374-.942-13.374-2.1,5.988-2.105,13.374-2.105S238.9,385.884,238.9,387.047Z" transform="translate(-37.925 -5.969)" fill="#48577c" opacity="0.732"/>
      <ellipse id="Ellipse_549" data-name="Ellipse 549" cx="12.46" cy="1.961" rx="12.46" ry="1.961" transform="translate(175.143 379.117)" fill="#405076" opacity="0.756"/>
      <ellipse id="Ellipse_550" data-name="Ellipse 550" cx="11.546" cy="1.817" rx="11.546" ry="1.817" transform="translate(176.057 379.261)" fill="#3b4c73" opacity="0.78"/>
      <path id="Path_14908" data-name="Path 14908" d="M239.952,387.644c0,.924-4.76,1.673-10.632,1.673s-10.632-.749-10.632-1.673,4.76-1.673,10.632-1.673S239.952,386.72,239.952,387.644Z" transform="translate(-41.718 -6.566)" fill="#34456d" opacity="0.805"/>
      <ellipse id="Ellipse_551" data-name="Ellipse 551" cx="9.718" cy="1.53" rx="9.718" ry="1.53" transform="translate(177.885 379.549)" fill="#2f406a" opacity="0.829"/>
      <ellipse id="Ellipse_552" data-name="Ellipse 552" cx="8.804" cy="1.386" rx="8.804" ry="1.386" transform="translate(178.799 379.692)" fill="#2a3c66" opacity="0.854"/>
      <path id="Path_14909" data-name="Path 14909" d="M241,388.241c0,.686-3.532,1.242-7.89,1.242s-7.89-.556-7.89-1.242,3.532-1.242,7.89-1.242S241,387.555,241,388.241Z" transform="translate(-45.51 -7.163)" fill="#223561" opacity="0.878"/>
      <ellipse id="Ellipse_553" data-name="Ellipse 553" cx="6.976" cy="1.098" rx="6.976" ry="1.098" transform="translate(180.627 379.98)" fill="#1d305d" opacity="0.902"/>
      <ellipse id="Ellipse_554" data-name="Ellipse 554" cx="6.062" cy="0.954" rx="6.062" ry="0.954" transform="translate(181.541 380.124)" fill="#182b59" opacity="0.927"/>
      <path id="Path_14910" data-name="Path 14910" d="M242.054,388.838c0,.447-2.3.81-5.148.81s-5.148-.363-5.148-.81,2.3-.81,5.148-.81S242.054,388.391,242.054,388.838Z" transform="translate(-49.303 -7.76)" fill="#112554" opacity="0.951"/>
      <ellipse id="Ellipse_555" data-name="Ellipse 555" cx="4.234" cy="0.666" rx="4.234" ry="0.666" transform="translate(183.369 380.412)" fill="#0c2050" opacity="0.976"/>
      <ellipse id="Ellipse_556" data-name="Ellipse 556" cx="3.32" cy="0.523" rx="3.32" ry="0.523" transform="translate(184.283 380.556)" fill="#04194b"/>
    </g>
    <circle id="Ellipse_520" data-name="Ellipse 520" cx="53" cy="53" r="53" transform="translate(595 200)" fill="url(#linear-gradient)"/>
    <g id="done-24px_1_" data-name="done-24px (1)" transform="translate(623.205 228.205)">
      <path id="Path_14903" data-name="Path 14903" d="M0,0H48.795V48.795H0Z" fill="none"/>
      <path id="Path_14904" data-name="Path 14904" d="M14.785,27.151,6.246,18.612,3.4,21.458,14.785,32.844l24.4-24.4L36.337,5.6Z" transform="translate(3.513 5.785)" fill="#fff"/>
    </g>
    <g id="Group_7639" data-name="Group 7639" transform="translate(1088.025 1914.784) rotate(-137)">
      <g id="Group_7635" data-name="Group 7635">
        <path id="Path_14871" data-name="Path 14871" d="M1400.017,803.346c.2-1.111.4-2.211.627-3.317a5.037,5.037,0,0,0-2.2,1.367,3.142,3.142,0,0,0-.3.352,5.291,5.291,0,0,0-1.015,2.2Z" fill="#dd2b78"/>
        <path id="Path_14872" data-name="Path 14872" d="M1400.644,800.029q.927-4.752,2.1-9.434a3.94,3.94,0,0,0-2.142.585,3.512,3.512,0,0,0-.912.927c-1.215,1.765-.975,4.255-2.149,6.051a4.94,4.94,0,0,1-1.307,1.327,7.637,7.637,0,0,0,1.341,1.8,4.83,4.83,0,0,0,.573.46,3.142,3.142,0,0,1,.3-.352A5.037,5.037,0,0,1,1400.644,800.029Z" fill="#ff65ab"/>
        <path id="Path_14873" data-name="Path 14873" d="M1397.578,801.288a7.637,7.637,0,0,1-1.341-1.8,7.47,7.47,0,0,1-1.472.784c.281,1.318.459,2.678.7,4.017.558-.11,1.116-.232,1.673-.343a5.291,5.291,0,0,1,1.015-2.2A4.83,4.83,0,0,1,1397.578,801.288Z" fill="#feb37c"/>
        <path id="Path_14874" data-name="Path 14874" d="M1394.765,800.269c-.092-.426-.2-.848-.317-1.269q-14.871,2.769-29.667,5.982c.224.2.448.408.688.606a51.6,51.6,0,0,0,8.531,5.327,158.795,158.795,0,0,0,21.728-5.359c-.1-.416-.183-.843-.265-1.27C1395.224,802.947,1395.046,801.587,1394.765,800.269Z" fill="#ffb100"/>
        <path id="Path_14875" data-name="Path 14875" d="M1344.349,776.941c-1.057.322-2.125.633-3.193.933a5.2,5.2,0,0,0,2.19,1.379,4.009,4.009,0,0,0,.435.112,5.058,5.058,0,0,0,2.384-.059C1345.558,778.519,1344.951,777.733,1344.349,776.941Z" fill="#dd2b78"/>
        <path id="Path_14876" data-name="Path 14876" d="M1347.652,781.235c-.5-.645-.989-1.285-1.487-1.929a5.058,5.058,0,0,1-2.384.059,4.263,4.263,0,0,1-.138.73,7.98,7.98,0,0,1-.975,2.037,7.643,7.643,0,0,1,1.62,1.236c.144-.1.278-.193.422-.289A25.638,25.638,0,0,1,1347.652,781.235Z" fill="#feb37c"/>
        <path id="Path_14877" data-name="Path 14877" d="M1389.2,822.874c-.428-.471-.862-.937-1.306-1.392a11.788,11.788,0,0,0-3.631,1.644l.734,1.113c.281.261.558.528.819.811Q1387.475,823.9,1389.2,822.874Z" fill="#ffb100"/>
        <path id="Path_14878" data-name="Path 14878" d="M1343.781,779.365a4.009,4.009,0,0,1-.435-.112,5.2,5.2,0,0,1-2.19-1.379q-4.575,1.287-9.2,2.331a4.149,4.149,0,0,0,1.484,1.686,3.453,3.453,0,0,0,1.225.422c2.092.308,4.16-1.032,6.257-.772a4.7,4.7,0,0,1,1.748.591,7.98,7.98,0,0,0,.975-2.037A4.263,4.263,0,0,0,1343.781,779.365Z" fill="#ff65ab"/>
        <path id="Path_14879" data-name="Path 14879" d="M1385,824.239l-.734-1.113q-.378.251-.741.514c-1.834,1.353-3.428,3-5.2,4.437.65.453,1.291.907,1.941,1.36a58.816,58.816,0,0,1,5.552-4.387C1385.557,824.767,1385.28,824.5,1385,824.239Z" fill="#ffb100"/>
        <path id="Path_14880" data-name="Path 14880" d="M1343,784.262c3.88,6.358,6.479,13.483,10.436,19.792a61.166,61.166,0,0,0,8.334,10.4,121.089,121.089,0,0,0,16.557,13.62c1.771-1.437,3.365-3.084,5.2-4.437q.363-.264.741-.514a11.788,11.788,0,0,1,3.631-1.644,57.416,57.416,0,0,0-12.216-9.617c-.557-.327-1.118-.639-1.68-.95a51.6,51.6,0,0,1-8.531-5.327c-.24-.2-.464-.4-.688-.606-7.088-6.475-9.665-16.874-15.857-24.293-.309.109-.6.233-.9.368-.129.059-.248.118-.376.178a25.638,25.638,0,0,0-2.942,1.844c-.144.1-.278.193-.422.289Z" fill="#ffc400"/>
        <path id="Path_14881" data-name="Path 14881" d="M1380.266,829.437c-.65-.453-1.291-.907-1.941-1.36-.2.166-.4.321-.6.476a22.32,22.32,0,0,1-7.864,3.839,55.459,55.459,0,0,0,3.2,4.8A57.536,57.536,0,0,1,1380.266,829.437Z" fill="#ffb100"/>
        <path id="Path_14882" data-name="Path 14882" d="M1377.724,828.553c.2-.155.4-.31.6-.476a121.089,121.089,0,0,1-16.557-13.62,42.575,42.575,0,0,0,4.639,11.943c1.141,1.99,2.261,4.023,3.453,5.992A22.32,22.32,0,0,0,1377.724,828.553Z" fill="#ffb100"/>
      </g>
      <g id="Group_7638" data-name="Group 7638">
        <path id="Path_14883" data-name="Path 14883" d="M1448.332,846.355a.407.407,0,0,1,.133.519.57.57,0,0,1-.292.177,8.471,8.471,0,0,1-3.724.4,10.908,10.908,0,0,0-1.627-.166,2.013,2.013,0,0,0-1.473.613.355.355,0,0,0,.241.39,1.188,1.188,0,0,0,.487.029,1.734,1.734,0,0,1,.876.116.808.808,0,0,1,.485.7c-1.974.122-3.661.775-5.5-.164a25.248,25.248,0,0,1-2.806-1.709l.854-3.08a15.458,15.458,0,0,0,1.532.632,2.739,2.739,0,0,0,1.968.935,38.56,38.56,0,0,1,5.007.008q1.642.113,3.26.368l.022.061A1.1,1.1,0,0,1,1448.332,846.355Z" fill="#feb37c"/>
        <g id="Group_7636" data-name="Group 7636">
          <path id="Path_14884" data-name="Path 14884" d="M1382.389,889.8a6.535,6.535,0,0,0,.043-1.4,16.312,16.312,0,0,0-.621-3.226c-.012-.061-.023-.122-.034-.182l3.143-.384c.074.848.153,1.7.244,2.542.052.508.108,1.018.169,1.522l-.021,1.2a4.117,4.117,0,0,0-.393,1.205,3.366,3.366,0,0,1-.1.324,1.563,1.563,0,0,1-.5.766,7.574,7.574,0,0,0-.854.494,1.666,1.666,0,0,0-.382.807c-.092.356-.176.713-.248,1.069-.2-.977-.356-1.948-.485-2.962a5.477,5.477,0,0,1-.063-.992C1382.3,890.32,1382.355,890.063,1382.389,889.8Z" fill="#feb37c"/>
          <path id="Path_14885" data-name="Path 14885" d="M1386.277,893.949a.408.408,0,0,0-.239.27,1.193,1.193,0,0,0-.23-.553c-.17-.184-.335-.05-.531-.088-.259-.035-.257-.192-.451-.313-.458-.3-.524.268-.909.232-.1-.01-.135-.173-.235-.185-.161-.013-.2.03-.305.162a.836.836,0,0,0-.133.236,3.6,3.6,0,0,0-.173.721,4.824,4.824,0,0,0-.1.73c-.051-.207-.1-.415-.138-.626.072-.356.156-.713.248-1.069a1.662,1.662,0,0,1,.382-.807,7.574,7.574,0,0,1,.854-.494,1.563,1.563,0,0,0,.5-.766,2.524,2.524,0,0,0,.665.678,17.089,17.089,0,0,1,2.173,1.218c-.166.021-.251.225-.281.4a6.015,6.015,0,0,0-.07,1.86,1.5,1.5,0,0,0,.034.221c-.108-.319-.223-.637-.346-.951a2.966,2.966,0,0,0-.28-.574,1.131,1.131,0,0,0-.129-.167A.358.358,0,0,0,1386.277,893.949Z" fill="#ed8a55"/>
          <path id="Path_14886" data-name="Path 14886" d="M1383.682,893.312c.1.012.132.175.235.185.385.036.451-.528.909-.232.194.121.192.278.451.313.2.038.361-.1.531.088a1.193,1.193,0,0,1,.23.553.408.408,0,0,1,.239-.27.358.358,0,0,1,.312.138,1.131,1.131,0,0,1,.129.167l-.756.8a.467.467,0,0,1,.055.148c.059.238.1.541.151.853v.006c.007.327.032.856-.231,1.094-.549.507-.674-.5-1.06-.479a.844.844,0,0,1-.463-.075c-.147-.092-.14-.3-.245-.368-.256-.18-.657.165-.96-.145a1.18,1.18,0,0,1-.235-.918v-.007a4.824,4.824,0,0,1,.1-.73,3.6,3.6,0,0,1,.173-.721.836.836,0,0,1,.133-.236C1383.48,893.342,1383.521,893.3,1383.682,893.312Z" fill="#feb37c"/>
          <path id="Path_14887" data-name="Path 14887" d="M1389.747,895.89c-1.064.218-1.407-1.719-1.764-2.353-.065-.117-.163-.247-.3-.241-.006,0-.009,0-.018,0l0,0a17.089,17.089,0,0,0-2.173-1.218,2.524,2.524,0,0,1-.665-.678,3.366,3.366,0,0,0,.1-.324,4.117,4.117,0,0,1,.393-1.205l.021-1.2c-.061-.5-.117-1.014-.169-1.522a7.816,7.816,0,0,0,.707,1.069c.666.853,1.457,1.592,2.167,2.41a4.574,4.574,0,0,1,.807,1.211c.394.953.3,2.049.628,3.023A2.763,2.763,0,0,1,1389.747,895.89Z" fill="#feb37c"/>
          <path id="Path_14888" data-name="Path 14888" d="M1387.065,897.572a.638.638,0,0,1-.368-.179,2.457,2.457,0,0,1-.529-1.334v-.006c-.054-.312-.092-.615-.151-.853a.467.467,0,0,0-.055-.148l.756-.8a2.966,2.966,0,0,1,.28.574c.123.314.238.632.346.951a2.93,2.93,0,0,1,.067,1.621A.376.376,0,0,1,1387.065,897.572Z" fill="#feb37c"/>
        </g>
        <path id="Path_14889" data-name="Path 14889" d="M1438.248,844.332c-3.04-.964-5.883-2.495-8.918-3.507a27.532,27.532,0,0,0-9.437-1.389c-4.67.134-12.446,2.815-16.468-.367-5.058-3.992-8.279-9.543-12.312-14.463-.6-.729-1.208-1.441-1.84-2.137q-1.729,1.029-3.384,2.175c3.1,3.176,5.279,7.185,7.924,10.777,2.875,3.906,6.709,7.551,11.458,8.145,3.49.442,6.939-.821,10.4-1.476a30.578,30.578,0,0,1,21.487,3.963l.337.14c.2-.5.405-1.008.607-1.506C1438.152,844.571,1438.2,844.449,1438.248,844.332Z" fill="#dd2b78"/>
        <path id="Path_14890" data-name="Path 14890" d="M1373.129,836.783c-.424.537-.833,1.09-1.231,1.643,2.011,2.779,4.156,5.463,6.429,8.023q3.3,2.337,6.612,4.68c2.431,1.714,5.083,3.8,5.446,6.786.274,2.273-.87,4.454-2.1,6.367-2.127,3.289-4.644,6.333-6.407,9.839a20.275,20.275,0,0,0-1.532,3.98,30.929,30.929,0,0,0,.985,10.488c.129-.038.263-.071.4-.1a19.084,19.084,0,0,1,3.663-.536c.248-.013.5-.021.744-.028a40.5,40.5,0,0,1,14.407-30.191c-1.415-1.481-2.892-2.909-4.409-4.283a16.139,16.139,0,0,1,8.512-.751c.34.424.69.828,1.051,1.231a24.982,24.982,0,0,1,13.851-8.1,24.454,24.454,0,0,1,9.207-.055,24.971,24.971,0,0,1,4.532,1.288c1.127.449,2.156,1.041,3.232,1.564.081-.2.167-.408.248-.61.242-.6.49-1.213.733-1.817l-.337-.14a30.578,30.578,0,0,0-21.487-3.963c-3.46.655-6.909,1.918-10.4,1.476-4.749-.594-8.583-4.239-11.458-8.145-2.645-3.592-4.828-7.6-7.924-10.777a58.554,58.554,0,0,0-5.552,4.388A57.6,57.6,0,0,0,1373.129,836.783Z" fill="#ff65ab"/>
        <path id="Path_14891" data-name="Path 14891" d="M1414.174,859.7a2.534,2.534,0,0,0-1.582-.55,13.062,13.062,0,0,0-2.689.068,3.134,3.134,0,0,1,.409.63l.824,1.37a1.428,1.428,0,0,1,1.406-.108c.561.216,1.246.506,1.719.121A1.075,1.075,0,0,0,1414.174,859.7Z" fill="#feb37c"/>
        <path id="Path_14892" data-name="Path 14892" d="M1400.537,857.73q1.057,1.09,2.058,2.219l5.915-3.113c-.975-.925-1.92-1.893-2.819-2.909-.361-.4-.711-.807-1.051-1.231a16.139,16.139,0,0,0-8.512.751C1397.645,854.821,1399.122,856.249,1400.537,857.73Z" fill="#feb37c"/>
        <path id="Path_14893" data-name="Path 14893" d="M1410.135,871.2l-.783.942c-.746.435-.166,1.7.553,2.175a2.967,2.967,0,0,0,2.484.125c3.621-1.08,7.208-4.852,7.342-8.829.1-2.72-1.567-6.311-4.122-7.438a12.1,12.1,0,0,0-2.856-.633,4.255,4.255,0,0,1-2.6-1.243c-.312.4-.624.787-.935,1.186l-.553.7a3.681,3.681,0,0,1,1.236,1.029,13.062,13.062,0,0,1,2.689-.068,2.534,2.534,0,0,1,1.582.55,1.075,1.075,0,0,1,.087,1.531c-.473.385-1.158.095-1.719-.121a1.428,1.428,0,0,0-1.406.108.64.64,0,0,0-.147.271.921.921,0,0,0,.417.941c.286.214.639.327.946.519a3.163,3.163,0,0,1,1.05,3.481,9.02,9.02,0,0,1-2.018,3.271C1410.969,870.2,1410.549,870.7,1410.135,871.2Z" fill="#00b0ff"/>
        <path id="Path_14894" data-name="Path 14894" d="M1403.5,860.97c-.66.305-1.526.807-1.538,1.65a5.591,5.591,0,0,0,.96,2.545,13,13,0,0,0,2.184,2.87c.833.824,1.829,1.376,2.661,2.2.484.476,1.276,1.537,2.1,1.249a.475.475,0,0,0,.167-.122c.5-.5.893-1.115,1.349-1.659a9.02,9.02,0,0,0,2.018-3.271,3.163,3.163,0,0,0-1.05-3.481c-.307-.192-.66-.3-.946-.519a.921.921,0,0,1-.417-.941.64.64,0,0,1,.147-.271l-.824-1.37a3.134,3.134,0,0,0-.409-.63,26.332,26.332,0,0,0-5.151,1.274A10.51,10.51,0,0,0,1403.5,860.97Z" fill="#feb37c"/>
        <path id="Path_14895" data-name="Path 14895" d="M1404.752,860.489a26.332,26.332,0,0,1,5.151-1.274,3.681,3.681,0,0,0-1.236-1.029l.553-.7c-.24-.209-.48-.428-.71-.648l-5.915,3.113c.308.34.606.681.9,1.021A10.51,10.51,0,0,1,1404.752,860.489Z" fill="#ed8a55"/>
        <path id="Path_14896" data-name="Path 14896" d="M1384.64,864.454a30.822,30.822,0,0,0-4.3,13.647,20.275,20.275,0,0,1,1.532-3.98c1.763-3.506,4.28-6.55,6.407-9.839,1.235-1.913,2.379-4.094,2.1-6.367-.363-2.99-3.015-5.072-5.446-6.786q-3.31-2.346-6.612-4.68,2.078,2.349,4.3,4.569c2.192,2.187,4.662,4.724,4.478,7.847C1386.988,860.925,1385.706,862.7,1384.64,864.454Z" fill="#dd2b78"/>
        <g id="Group_7637" data-name="Group 7637">
          <path id="Path_14897" data-name="Path 14897" d="M1408.33,867.494a5.383,5.383,0,0,0-1.868-1.336.936.936,0,0,1-.413-.262.809.809,0,0,1,.007-.781" fill="none" stroke="#9b786e" stroke-linecap="round" stroke-linejoin="round" stroke-width="0.22"/>
          <path id="Path_14898" data-name="Path 14898" d="M1409.942,864.884a2.233,2.233,0,0,1-.32.586.443.443,0,0,0,.46.13.394.394,0,0,0,.176-.558.539.539,0,0,0-.284-.271A.762.762,0,0,1,1409.942,864.884Z" fill="#444"/>
          <path id="Path_14899" data-name="Path 14899" d="M1407.316,868.538a2.383,2.383,0,0,1-.557.539.526.526,0,0,0,.082.1.394.394,0,0,0,.586,0,.475.475,0,0,0-.1-.624Z" fill="#444"/>
          <path id="Path_14900" data-name="Path 14900" d="M1411.838,865.383a1.767,1.767,0,0,1-1.131,1.955" fill="none" stroke="#9b786e" stroke-linecap="round" stroke-linejoin="round" stroke-width="0.238"/>
          <path id="Path_14901" data-name="Path 14901" d="M1409.188,869.367a1.564,1.564,0,0,1-1.31,1.513" fill="none" stroke="#9b786e" stroke-linecap="round" stroke-linejoin="round" stroke-width="0.238"/>
          <path id="Path_14902" data-name="Path 14902" d="M1405.742,862.975a1.751,1.751,0,0,0-1.473,1.661" fill="none" stroke="#d6428b" stroke-linecap="round" stroke-linejoin="round" stroke-width="0.271"/>
        </g>
      </g>
    </g>
  </g>
</svg>
