<svg xmlns="http://www.w3.org/2000/svg" xmlns:xlink="http://www.w3.org/1999/xlink" width="288" height="300.622" viewBox="0 0 288 300.622">
  <defs>
    <linearGradient id="linear-gradient" x1="0.5" x2="0.5" y2="1" gradientUnits="objectBoundingBox">
      <stop offset="0" stop-color="#004c8c"/>
      <stop offset="0.404" stop-color="#002f6c"/>
      <stop offset="1" stop-color="#04194b"/>
    </linearGradient>
    <clipPath id="clip-path">
      <path id="Path_14465" data-name="Path 14465" d="M9.6,166.444c-36.314-33.394,38.722-54.794,86.168-92.727S150.581-23.566,186.9,9.829s24.726,115.568-22.721,153.5S45.915,199.839,9.6,166.444Z" transform="translate(56.03 0) rotate(17)" fill="#ba539a"/>
    </clipPath>
  </defs>
  <g id="Group_7509" data-name="Group 7509" transform="translate(-113.706 -237)">
    <path id="Path_14464" data-name="Path 14464" d="M9.6,166.444c-36.314-33.394,38.722-54.794,86.168-92.727S150.581-23.566,186.9,9.829s24.726,115.568-22.721,153.5S45.915,199.839,9.6,166.444Z" transform="translate(202.556 237) rotate(17)" fill="url(#linear-gradient)"/>
    <g id="Mask_Group_20" data-name="Mask Group 20" transform="translate(146.526 237)" clip-path="url(#clip-path)">
      <g id="Group_7504" data-name="Group 7504" transform="translate(105.549 109.768)">
        <g id="Group_7497" data-name="Group 7497">
          <rect id="Rectangle_565" data-name="Rectangle 565" width="137.192" height="44.734" rx="12" transform="translate(0.001)" fill="#e1f4fe"/>
          <path id="Path_14322" data-name="Path 14322" d="M383.887,107.641H259.579a6.443,6.443,0,0,0-6.443,6.443v4.135H390.328v-4.135A6.442,6.442,0,0,0,383.887,107.641Z" transform="translate(-253.136 -107.641)" fill="#00b0ff"/>
          <path id="Path_14323" data-name="Path 14323" d="M281.057,130.7a10.479,10.479,0,1,1-10.479-10.48A10.478,10.478,0,0,1,281.057,130.7Z" transform="translate(-250.498 -102.494)" fill="#00b0ff"/>
          <rect id="Rectangle_566" data-name="Rectangle 566" width="89.24" height="2.823" transform="translate(36.415 18.589)" fill="#00b0ff" opacity="0.298"/>
          <rect id="Rectangle_567" data-name="Rectangle 567" width="89.24" height="2.823" transform="translate(36.415 26.808)" fill="#00b0ff" opacity="0.298"/>
          <rect id="Rectangle_568" data-name="Rectangle 568" width="33.465" height="2.823" transform="translate(36.415 35.026)" fill="#00b0ff" opacity="0.302"/>
          <path id="Path_14324" data-name="Path 14324" d="M262.778,111.783a1.34,1.34,0,1,1-1.34-1.34A1.341,1.341,0,0,1,262.778,111.783Z" transform="translate(-250.287 -106.495)" fill="#e1f4fe"/>
          <path id="Path_14325" data-name="Path 14325" d="M266.909,111.783a1.34,1.34,0,1,1-1.34-1.34A1.34,1.34,0,0,1,266.909,111.783Z" transform="translate(-248.597 -106.495)" fill="#e1f4fe"/>
          <path id="Path_14326" data-name="Path 14326" d="M271.04,111.783a1.34,1.34,0,1,1-1.34-1.34A1.34,1.34,0,0,1,271.04,111.783Z" transform="translate(-246.907 -106.495)" fill="#e1f4fe"/>
          <g id="chat-black-18dp" transform="translate(12.666 21.463)">
            <path id="Path_14466" data-name="Path 14466" d="M0,0H14.718V14.718H0Z" fill="none"/>
            <path id="Path_14467" data-name="Path 14467" d="M13.038,2H3.226a1.225,1.225,0,0,0-1.22,1.226L2,14.265l2.453-2.453h8.585a1.23,1.23,0,0,0,1.226-1.226V3.226A1.23,1.23,0,0,0,13.038,2ZM4.453,6.293h7.359V7.519H4.453ZM9.359,9.359H4.453V8.132H9.359Zm2.453-3.679H4.453V4.453h7.359Z" transform="translate(-0.774 -0.774)" fill="#e1f4fe"/>
          </g>
        </g>
      </g>
    </g>
    <g id="Group_7507" data-name="Group 7507" transform="translate(149.61 391.471)" opacity="0.152">
      <g id="Group_7506" data-name="Group 7506" transform="translate(0 0)">
        <g id="Group_7501" data-name="Group 7501" transform="translate(46.555 0)">
          <g id="Group_7505" data-name="Group 7505" transform="translate(49.108)">
            <path id="Path_14438" data-name="Path 14438" d="M1272.9,647.951c-1.217-.2-1.185-1.458-1.278-2.387a7.762,7.762,0,0,0-.511-2.979c-.329-.667-.636-1.343-.935-2.022a6.165,6.165,0,0,1-.669-1.687,3.365,3.365,0,0,1,.151-.9c.191-.766,0-1.907.625-2.411a10.977,10.977,0,0,1,1.76-1.259c.481-.249,2.256-.834,1.377.321a.756.756,0,0,1,0,.736,4.217,4.217,0,0,1-.834.9,2.228,2.228,0,0,0-.392.457c-.3.533.143,1.532.6,1.92a1.855,1.855,0,0,0,.516.239,11.927,11.927,0,0,0,.171-1.577,3.822,3.822,0,0,1,.018-.409,2.883,2.883,0,0,1,.15-.585,1.311,1.311,0,0,1,.305-.555,1.415,1.415,0,0,1,.718-.28c.05-.01.117-.011.129.124a3.022,3.022,0,0,0-.116,1.543c.133.853.471,1.666.634,2.511a4.285,4.285,0,0,1,.175,1.358,1.4,1.4,0,0,1-.214.587c-.006.042-.008.084-.015.125-.223,1.177-.879,2.062-.761,3.315.04.428.138.853.148,1.281A1.49,1.49,0,0,1,1272.9,647.951Z" transform="translate(-1269.059 -633.934)" fill="#363636"/>
            <path id="Path_14449" data-name="Path 14449" d="M1277.3,687.208a29.285,29.285,0,0,1-2.638-4.126c-.258-.494-.628-1.169-.9-1.659a30.619,30.619,0,0,0,2.283-11.574,71.282,71.282,0,0,0-1.191-12.221l2.454-.36.887-.135c2.542,6.366,1.977,13.439,1.4,20.107C1279.308,680.511,1278.9,684.271,1277.3,687.208Z" transform="translate(-1271.468 -646.945)" fill="#363636"/>
            <path id="Path_14450" data-name="Path 14450" d="M1270.97,682.013a7.7,7.7,0,0,0-1.11-1.585,4.431,4.431,0,0,0-.668-.591c.136-.107.031-.2.041-.273.032-.251-.263.044-.647-.25,1.883-6.559,2.567-14.2.855-20.9.372-.052.75-.115,1.121-.167.459-.071.921-.133,1.38-.2a71.2,71.2,0,0,1,1.191,12.221A31.384,31.384,0,0,1,1270.97,682.013Z" transform="translate(-1268.587 -647.459)" fill="#363636"/>
          </g>
          <path id="Path_14439" data-name="Path 14439" d="M1330.829,716.739l3.083,3.145c.443-1.362.587-3.453,1.941-4.148a42.92,42.92,0,0,0,4.819-2.887q1.519-1.055,2.937-2.238l-.011-.073a1.267,1.267,0,0,0,.444-.479.473.473,0,0,0-.156-.591.611.611,0,0,0-.379-.007,9.317,9.317,0,0,0-3.809,1.739,12.224,12.224,0,0,1-1.475,1.1,2.173,2.173,0,0,1-1.755.239.419.419,0,0,1,.018-.526,1.331,1.331,0,0,1,.453-.309,1.952,1.952,0,0,0,.78-.618.951.951,0,0,0,.081-.976c-1.969,1.013-3.952,1.336-5.2,3.322A29.692,29.692,0,0,0,1330.829,716.739Z" transform="translate(-1254.347 -676.805)" fill="#363636"/>
          <path id="Path_14440" data-name="Path 14440" d="M1233.333,767.835a113.2,113.2,0,0,1-11.958,18.23c.391.37.783.749,1.188,1.107.43.4.873.782,1.323,1.157.41.34-.424,1.837,0,2.165,3.447-5.565,7.959-12.424,11.024-18.231.811-.345,1.663-.611,2.488-.933a6.016,6.016,0,0,0,3.486-2.736,24.1,24.1,0,0,0,.846-3.5,7.049,7.049,0,0,1,2.986-3.693,15.78,15.78,0,0,1,4.941-1.955c2.008-.51,3.966-1.393,5.967-1.98,2.71-.78,5.539-1.463,7.795-3.217,2.534-1.979,4.005-5.065,5.4-8.039q1.844-3.953,3.7-7.917c-1.635,2.355-3.256,4.7-4.885,7.043-1.435,2.069-2.94,4.206-5.1,5.384-2.989,1.622-6.592,1.11-9.966,1.316a21.076,21.076,0,0,0-4.628.792,18.587,18.587,0,0,0-8.1,4.728C1237.006,760.43,1235.238,764.223,1233.333,767.835Z" transform="translate(-1192.957 -692.99)" fill="#363636"/>
          <path id="Path_14441" data-name="Path 14441" d="M1268.285,757.4a18.461,18.461,0,0,1-4.426-6.4,28.672,28.672,0,0,0-3.447,4.538A18.691,18.691,0,0,0,1268.285,757.4Z" transform="translate(-1214.852 -700.123)" fill="#363636"/>
          <path id="Path_14442" data-name="Path 14442" d="M1212.876,766.889a36.381,36.381,0,0,1,11.119-12.761c-.24-.324-.466-.659-.685-1a19.65,19.65,0,0,0-3.484,2.092c-3.984,3.155-5.564,8.867-9.642,11.884a11.713,11.713,0,0,1-3.144,1.637,7.5,7.5,0,0,0-.246.922,17.291,17.291,0,0,1-5.364,9.364,14.177,14.177,0,0,0,7.629-5.15A49.638,49.638,0,0,0,1212.876,766.889Z" transform="translate(-1181.771 -701.309)" fill="#363636"/>
          <path id="Path_14443" data-name="Path 14443" d="M1251.94,749.323a6.646,6.646,0,0,0,1.6,1.6,14.849,14.849,0,0,0,1.732,1,28.662,28.662,0,0,1,3.447-4.538c.505-.541,1.022-1.068,1.562-1.565a7.337,7.337,0,0,1-3.523-1.268,10.8,10.8,0,0,1-2.485,2.142c-.975.606-2,1.11-3.022,1.62C1251.474,748.664,1251.7,749,1251.94,749.323Z" transform="translate(-1209.716 -696.504)" fill="#363636"/>
          <path id="Path_14444" data-name="Path 14444" d="M1174.193,749.747c3.839-1.488,8.587-1.069,11.466-4.1,1.881-1.963,2.428-4.89,3.246-7.542s2.318-5.475,4.926-6.1c1.42-.334,2.912.056,4.374.131a10.382,10.382,0,0,0,4.739-.9,14.225,14.225,0,0,0,5.352-4.322,5.322,5.322,0,0,0,1.446-3.412,11.7,11.7,0,0,1,.1-2.163c.59,2.1,1.992,4.054,2,6.254a6.07,6.07,0,0,1-1.564,3.942,10.8,10.8,0,0,1-2.485,2.142c-.975.606-2,1.11-3.022,1.62a19.653,19.653,0,0,0-3.484,2.091c-3.984,3.155-5.564,8.866-9.643,11.884a11.678,11.678,0,0,1-3.143,1.637,23.19,23.19,0,0,1-6.6,1.087c-3.418.155-6.9.018-10.187,1.006a12.191,12.191,0,0,0-3.327,1.554A12.312,12.312,0,0,1,1174.193,749.747Z" transform="translate(-1163.239 -683.482)" fill="#363636"/>
          <path id="Path_14445" data-name="Path 14445" d="M1267.1,709.572a7.706,7.706,0,0,0-1.11-1.585,4.427,4.427,0,0,0-.668-.591c-.505.42-1.7,1.054-1.969,1.363a4.722,4.722,0,0,0-1.164,2.917,6.192,6.192,0,0,0,.264,1.842c.59,2.1,1.992,4.054,2,6.254a6.069,6.069,0,0,1-1.564,3.942,7.335,7.335,0,0,0,3.523,1.268c.018,0,.034,0,.051.007a4.271,4.271,0,0,0,2.5-.484,4.375,4.375,0,0,0,1.87-3.458,11.22,11.22,0,0,0-.344-3.426,5.2,5.2,0,0,0,1.156-1.027q-.6-.671-1.132-1.406a29.332,29.332,0,0,1-2.638-4.127C1267.625,710.567,1267.374,710.063,1267.1,709.572Z" transform="translate(-1215.848 -675.662)" fill="#363636"/>
          <path id="Path_14446" data-name="Path 14446" d="M1205.924,701.8c.074-.251.137-.588.211-.839-1.431-1.074-5.374-2.369-6.087-2.646-1.3-.493-2.811-.913-3.971-.155-.9.582-1.394,1.782-2.395,2.176a3.074,3.074,0,0,1-2.811-.7,8.8,8.8,0,0,0-2.577-1.607,3.524,3.524,0,0,0-3.351,1.063,6.424,6.424,0,0,0-1.587,3.372c-.417,2.255-.256,5.024-2.077,6.295-1.645,1.156-3.856.29-5.843.291a7.051,7.051,0,0,0-6.644,6.77c-.067,2.5,1.111,5.205-.034,7.4-1.193,2.28-4.15,2.58-6.386,3.73-3.142,1.6-5.031,5.168-5.538,8.791a28.683,28.683,0,0,0,1.075,10.871,8.892,8.892,0,0,1,3.9-5.279,12.309,12.309,0,0,1,5.8-4.808c3.839-1.488,8.587-1.069,11.466-4.1,1.881-1.963,2.428-4.89,3.247-7.542s2.318-5.475,4.926-6.1c1.42-.334,2.912.057,4.374.132a10.384,10.384,0,0,0,4.739-.9,14.229,14.229,0,0,0,5.352-4.322,5.325,5.325,0,0,0,1.446-3.412,11.685,11.685,0,0,1,.1-2.163,6.176,6.176,0,0,1-.264-1.842,4.72,4.72,0,0,1,1.164-2.917c.27-.309,1.463-.944,1.968-1.364C1205.957,701.844,1206.013,701.9,1205.924,701.8Z" transform="translate(-1156.661 -670.246)" fill="#363636"/>
          <g id="Group_7499" data-name="Group 7499" transform="translate(16.155 38.965)">
            <path id="Path_14447" data-name="Path 14447" d="M1197.388,780.306a14.177,14.177,0,0,0,7.628-5.15,49.616,49.616,0,0,0,3.817-6.983,36.386,36.386,0,0,1,11.119-12.761,6.642,6.642,0,0,0,1.6,1.6,14.855,14.855,0,0,0,1.732,1,18.689,18.689,0,0,0,7.873,1.858c.349.327.712.642,1.087.937l.466,1.7a18.441,18.441,0,0,0-8.111,4.643c-2.827,2.876-4.6,6.669-6.5,10.282a113.212,113.212,0,0,1-11.959,18.229,93.411,93.411,0,0,1-10.169-12.35c-.311-.43-1.783,1.171-2.094.741C1194.713,783.562,1196.663,780.954,1197.388,780.306Z" transform="translate(-1193.883 -741.557)" fill="#363636"/>
            <path id="Path_14448" data-name="Path 14448" d="M1278.434,742.183a29,29,0,0,0,7.375-.641,15.319,15.319,0,0,0,4.986-1.982,18.565,18.565,0,0,0,4.7-5.23q3.427-5.069,6.362-10.47c.293.173.594.345.885.51.632.372,1.256.745,1.886,1.108q.611.367,1.24.7c.233.125.465.242.7.348-.584,1.263-1.178,2.52-1.764,3.775l-.006.01c-1.635,2.355-3.256,4.7-4.885,7.043-1.436,2.069-2.94,4.206-5.1,5.384-2.989,1.622-6.592,1.11-9.967,1.317a25.638,25.638,0,0,0-5.114.816l-.249-1.674C1279.082,742.88,1278.782,742.51,1278.434,742.183Z" transform="translate(-1241.153 -723.861)" fill="#363636"/>
          </g>
        </g>
        <g id="Group_7502" data-name="Group 7502" transform="translate(0 79.746)">
          <path id="Path_14454" data-name="Path 14454" d="M1062.45,949.246a6.993,6.993,0,0,0,3.273-1.257,7.72,7.72,0,0,0,2.455-3.643,10.763,10.763,0,0,1,1.514-3.5,4.118,4.118,0,0,1,1.326-1.027c.039-.49.155-1,.232-1.494a7.72,7.72,0,0,0-.389-3.727c-1.162.2-2.322.4-3.481.591A92.517,92.517,0,0,1,1062.45,949.246Z" transform="translate(-1057.265 -882.841)" fill="#363636"/>
          <path id="Path_14455" data-name="Path 14455" d="M1081.762,939.224a5.664,5.664,0,0,1,1.189-.452,11.339,11.339,0,0,1,2.1-.3,14.077,14.077,0,0,0-.661-4.94c-.927.154-1.857.315-2.784.469a7.722,7.722,0,0,1,.389,3.727C1081.917,938.228,1081.8,938.735,1081.762,939.224Z" transform="translate(-1068.009 -882.242)" fill="#363636"/>
          <path id="Path_14456" data-name="Path 14456" d="M1075.868,848.65a20.217,20.217,0,0,1,.849,3.793,112.981,112.981,0,0,0,14.521-5.191c12.7-5.541,24.288-13.364,35.743-21.264a25.424,25.424,0,0,1-1.36,6.982,30.034,30.034,0,0,1-2.065,4.745,45.7,45.7,0,0,1-8.437,10.815,70.913,70.913,0,0,1-34.514,18.633c.04.141.09.278.14.416.069.19.134.369.186.56a14.078,14.078,0,0,1,.661,4.94c-.007.285-.033.571-.065.854,9.154-1.9,18.368-3.957,26.753-8.142a68.6,68.6,0,0,0,9.831-6.076c2.485-3.481,5.338-6.728,8.064-10.018,1.1-1.333,2.194-2.7,3.232-4.1,3.658-4.912,6.717-10.287,7.523-16.337a13.577,13.577,0,0,0-.394-6.111,11.694,11.694,0,0,0-5.51-6.214,36.6,36.6,0,0,0-12.137,4.579c-4.771,2.878-8.862,6.782-13.312,10.151-9.1,6.883-19.635,11.438-30.135,15.809C1075.6,847.857,1075.736,848.255,1075.868,848.65Z" transform="translate(-1064.551 -816.847)" fill="#363636"/>
          <path id="Path_14457" data-name="Path 14457" d="M1050.643,904.9a7,7,0,0,0,3.273-1.257,7.717,7.717,0,0,0,2.455-3.643,10.755,10.755,0,0,1,1.515-3.5,4.687,4.687,0,0,1,2.249-1.4,21.926,21.926,0,0,0-.979-4.861l-3.582.6A92.5,92.5,0,0,1,1050.643,904.9Z" transform="translate(-1050.643 -857.959)" fill="#363636"/>
          <path id="Path_14458" data-name="Path 14458" d="M1071.273,894.413a13.032,13.032,0,0,1,2.523-.328c-.027-.38-.061-.764-.115-1.14a20.208,20.208,0,0,0-.849-3.793c-.937.158-1.867.319-2.8.477a21.95,21.95,0,0,1,.979,4.861C1071.1,894.462,1071.187,894.434,1071.273,894.413Z" transform="translate(-1061.516 -857.35)" fill="#363636"/>
          <path id="Path_14459" data-name="Path 14459" d="M1078.462,865.139c.03.373.043.746.049,1.117a228.1,228.1,0,0,0,48.74-21.73,25.427,25.427,0,0,0,1.36-6.982c-11.455,7.9-23.038,15.724-35.743,21.264A112.979,112.979,0,0,1,1078.346,864C1078.4,864.375,1078.435,864.759,1078.462,865.139Z" transform="translate(-1066.181 -828.404)" fill="#363636"/>
          <path id="Path_14460" data-name="Path 14460" d="M1172.611,896.324a134.921,134.921,0,0,0,13.641-11.784,6.466,6.466,0,0,0-1.463-1.655l-.882-.674c-1.038,1.4-2.129,2.763-3.232,4.1C1177.949,889.6,1175.1,892.844,1172.611,896.324Z" transform="translate(-1119.052 -853.457)" fill="#363636"/>
          <path id="Path_14461" data-name="Path 14461" d="M1199.953,816.822a11.694,11.694,0,0,1,5.51,6.214,13.577,13.577,0,0,1,.394,6.111c-.806,6.05-3.865,11.426-7.523,16.337l.882.675a6.466,6.466,0,0,1,1.463,1.655c.74-.714,1.477-1.421,2.21-2.138.9-.876,1.793-1.763,2.685-2.643,2.172-2.13,4.41-4.369,5.467-7.246a12.114,12.114,0,0,0,.643-5.093,20.26,20.26,0,0,0-1.762-6.653C1208.427,820.649,1204.073,816.021,1199.953,816.822Z" transform="translate(-1133.479 -816.731)" fill="#363636"/>
        </g>
      </g>
    </g>
    <g id="Group_7503" data-name="Group 7503" transform="translate(113.706 346.705)">
      <g id="Group_7501-2" data-name="Group 7501" transform="translate(54.421 0)">
        <g id="Group_7505-2" data-name="Group 7505" transform="translate(57.405)">
          <path id="Path_14438-2" data-name="Path 14438" d="M1273.469,650.319c-1.423-.235-1.385-1.7-1.494-2.79a9.065,9.065,0,0,0-.6-3.482c-.384-.779-.743-1.57-1.092-2.363a7.2,7.2,0,0,1-.782-1.972,3.935,3.935,0,0,1,.176-1.054c.223-.9,0-2.229.73-2.818a12.83,12.83,0,0,1,2.057-1.472c.563-.291,2.637-.975,1.61.375a.884.884,0,0,1,0,.86,4.925,4.925,0,0,1-.975,1.053,2.6,2.6,0,0,0-.458.534c-.353.623.167,1.791.706,2.245a2.173,2.173,0,0,0,.6.28,13.953,13.953,0,0,0,.2-1.844,4.471,4.471,0,0,1,.021-.478,3.365,3.365,0,0,1,.176-.683,1.534,1.534,0,0,1,.357-.648,1.656,1.656,0,0,1,.839-.327c.058-.011.136-.013.151.145a3.532,3.532,0,0,0-.136,1.8c.155,1,.551,1.947.741,2.935a5.005,5.005,0,0,1,.2,1.587,1.633,1.633,0,0,1-.25.686c-.007.049-.009.1-.018.146-.26,1.376-1.027,2.41-.89,3.875.047.5.162,1,.173,1.5A1.742,1.742,0,0,1,1273.469,650.319Z" transform="translate(-1268.984 -633.934)" fill="#feb37c"/>
          <path id="Path_14449-2" data-name="Path 14449" d="M1277.989,692.29a34.235,34.235,0,0,1-3.084-4.824c-.3-.577-.6-1.167-.916-1.74A36.692,36.692,0,0,0,1276.52,672a83.316,83.316,0,0,0-1.392-14.286l2.869-.421,1.037-.158c2.971,7.442,2.311,15.71,1.633,23.5C1280.332,684.461,1279.851,688.856,1277.989,692.29Z" transform="translate(-1271.167 -645.224)" fill="#f74e97"/>
          <path id="Path_14450-2" data-name="Path 14450" d="M1271.478,686.16a9.67,9.67,0,0,0-1.4-1.879,5.2,5.2,0,0,0-.781-.69c.159-.125.036-.235.048-.32.038-.293-.308.051-.756-.292,2.2-7.667,3-16.6,1-24.427.435-.061.951-.04,1.385-.1.537-.083,1.039-.135,1.576-.218a80.132,80.132,0,0,1,1.515,14A37.768,37.768,0,0,1,1271.478,686.16Z" transform="translate(-1268.587 -645.742)" fill="#ff65ab"/>
        </g>
        <path id="Path_14439-2" data-name="Path 14439" d="M1330.829,717.973l3.6,3.677c.518-1.592.686-4.037,2.269-4.849a50.165,50.165,0,0,0,5.633-3.375q1.775-1.233,3.434-2.616l-.013-.086a1.48,1.48,0,0,0,.519-.56.553.553,0,0,0-.183-.691.716.716,0,0,0-.443-.009,10.892,10.892,0,0,0-4.452,2.032,14.289,14.289,0,0,1-1.725,1.286,2.54,2.54,0,0,1-2.052.28.49.49,0,0,1,.021-.615,1.559,1.559,0,0,1,.53-.361,2.284,2.284,0,0,0,.912-.723,1.112,1.112,0,0,0,.095-1.141c-2.3,1.184-4.619,1.562-6.084,3.883A34.728,34.728,0,0,0,1330.829,717.973Z" transform="translate(-1241.426 -671.292)" fill="#feb37c"/>
        <path id="Path_14440-2" data-name="Path 14440" d="M1235.354,772.893a132.315,132.315,0,0,1-13.979,21.309c.457.433.915.875,1.389,1.295.5.464,1.02.914,1.547,1.353.479.4-.5,2.147,0,2.531,4.029-6.506,9.3-14.523,12.887-21.311.949-.4,1.944-.715,2.908-1.091a7.032,7.032,0,0,0,4.075-3.2c.6-1.256.582-2.747.989-4.095a8.24,8.24,0,0,1,3.491-4.316,18.441,18.441,0,0,1,5.776-2.285c2.347-.6,4.636-1.628,6.975-2.314,3.168-.912,6.475-1.71,9.112-3.761,2.962-2.313,4.682-5.921,6.311-9.4,1.437-3.08,3.165-6.058,4.61-9.15-1.911,2.753-4.088,5.387-5.991,8.128-1.678,2.419-3.437,4.916-5.967,6.293-3.494,1.9-7.705,1.3-11.65,1.539a24.646,24.646,0,0,0-5.409.925,21.728,21.728,0,0,0-9.474,5.526C1239.647,764.236,1237.58,768.67,1235.354,772.893Z" transform="translate(-1188.156 -685.402)" fill="#f74e97"/>
        <path id="Path_14441-2" data-name="Path 14441" d="M1269.615,758.484a21.581,21.581,0,0,1-5.174-7.476,33.507,33.507,0,0,0-4.029,5.305A21.845,21.845,0,0,0,1269.615,758.484Z" transform="translate(-1207.155 -691.525)" fill="#ed8a55"/>
        <path id="Path_14442-2" data-name="Path 14442" d="M1214.81,769.215a42.525,42.525,0,0,1,13-14.917c-.281-.379-.545-.77-.8-1.174a22.977,22.977,0,0,0-4.073,2.445c-4.657,3.688-6.5,10.365-11.271,13.891a13.684,13.684,0,0,1-3.675,1.914,8.812,8.812,0,0,0-.288,1.077,20.211,20.211,0,0,1-6.27,10.946,16.572,16.572,0,0,0,8.917-6.02C1212.2,774.912,1213.366,771.971,1214.81,769.215Z" transform="translate(-1178.45 -692.555)" fill="#dd2b78"/>
        <path id="Path_14443-2" data-name="Path 14443" d="M1252.056,750.129a7.766,7.766,0,0,0,1.875,1.874,17.365,17.365,0,0,0,2.025,1.171,33.526,33.526,0,0,1,4.029-5.305c.591-.633,1.2-1.249,1.826-1.83a8.575,8.575,0,0,1-4.118-1.482,12.628,12.628,0,0,1-2.9,2.5c-1.14.708-2.342,1.3-3.533,1.894C1251.511,749.358,1251.775,749.75,1252.056,750.129Z" transform="translate(-1202.698 -688.385)" fill="#ed8a55"/>
        <path id="Path_14444-2" data-name="Path 14444" d="M1175.173,754.547c4.487-1.739,10.037-1.25,13.4-4.787,2.2-2.294,2.838-5.716,3.795-8.817s2.709-6.4,5.758-7.134c1.66-.391,3.4.066,5.113.154a12.138,12.138,0,0,0,5.539-1.055,16.63,16.63,0,0,0,6.256-5.052,6.224,6.224,0,0,0,1.691-3.988,13.657,13.657,0,0,1,.121-2.529c.689,2.45,2.328,4.74,2.342,7.31a7.093,7.093,0,0,1-1.828,4.607,12.627,12.627,0,0,1-2.9,2.5c-1.14.708-2.342,1.3-3.533,1.894a22.987,22.987,0,0,0-4.072,2.445c-4.657,3.688-6.5,10.364-11.271,13.891a13.659,13.659,0,0,1-3.674,1.914,27.114,27.114,0,0,1-7.721,1.27c-4,.181-8.07.021-11.908,1.176a14.26,14.26,0,0,0-3.889,1.816A14.392,14.392,0,0,1,1175.173,754.547Z" transform="translate(-1162.369 -677.086)" fill="#007ab1"/>
        <path id="Path_14445-2" data-name="Path 14445" d="M1267.93,709.94a9,9,0,0,0-1.3-1.853,5.176,5.176,0,0,0-.781-.69c-.591.491-1.985,1.232-2.3,1.594a5.518,5.518,0,0,0-1.361,3.41,7.221,7.221,0,0,0,.309,2.153c.689,2.45,2.328,4.74,2.342,7.31a7.094,7.094,0,0,1-1.828,4.607,8.574,8.574,0,0,0,4.118,1.482c.021.006.04,0,.06.008a4.994,4.994,0,0,0,2.927-.566,5.113,5.113,0,0,0,2.185-4.042,13.119,13.119,0,0,0-.4-4,6.076,6.076,0,0,0,1.351-1.2q-.7-.784-1.323-1.644a34.3,34.3,0,0,1-3.084-4.824C1268.544,711.1,1268.251,710.514,1267.93,709.94Z" transform="translate(-1208.019 -670.301)" fill="#feb37c"/>
        <path id="Path_14446-2" data-name="Path 14446" d="M1214.246,702.481c.087-.293.16-.687.247-.981-1.672-1.255-6.282-2.77-7.115-3.093-1.516-.576-3.286-1.068-4.642-.182-1.057.681-1.629,2.083-2.8,2.543a3.594,3.594,0,0,1-3.286-.824,10.287,10.287,0,0,0-3.013-1.878,4.12,4.12,0,0,0-3.918,1.242,7.508,7.508,0,0,0-1.855,3.942c-.487,2.636-.3,5.872-2.428,7.358-1.923,1.352-4.508.339-6.83.34-4.02.013-7.66,3.73-7.767,7.914-.078,2.926,1.3,6.085-.04,8.646-1.395,2.665-4.851,3.016-7.465,4.361-3.673,1.873-5.882,6.041-6.473,10.276s.213,8.552,1.257,12.707a10.394,10.394,0,0,1,4.563-6.171,14.388,14.388,0,0,1,6.782-5.62c4.487-1.739,10.037-1.25,13.4-4.787,2.2-2.295,2.838-5.716,3.8-8.817s2.709-6.4,5.758-7.135c1.66-.39,3.4.066,5.113.154a12.137,12.137,0,0,0,5.539-1.055,16.632,16.632,0,0,0,6.256-5.052,6.225,6.225,0,0,0,1.691-3.988,13.668,13.668,0,0,1,.12-2.529,7.229,7.229,0,0,1-.309-2.153,5.517,5.517,0,0,1,1.361-3.41c.316-.361,1.71-1.1,2.3-1.594C1214.286,702.538,1214.351,702.6,1214.246,702.481Z" transform="translate(-1156.661 -665.601)" fill="#00b0ff"/>
        <g id="Group_7499-2" data-name="Group 7499" transform="translate(18.884 45.548)">
          <path id="Path_14447-2" data-name="Path 14447" d="M1197.98,784.511a16.572,16.572,0,0,0,8.917-6.02c1.853-2.466,3.017-5.407,4.461-8.163a42.53,42.53,0,0,1,13-14.917,7.762,7.762,0,0,0,1.875,1.874,17.348,17.348,0,0,0,2.025,1.171,21.847,21.847,0,0,0,9.2,2.171c.408.382.832.75,1.271,1.1l.545,1.99a21.556,21.556,0,0,0-9.481,5.428c-3.3,3.362-5.371,7.8-7.6,12.019a132.293,132.293,0,0,1-13.979,21.309,109.2,109.2,0,0,1-11.887-14.436c-.364-.5-2.084,1.369-2.448.866C1194.853,788.318,1197.133,785.27,1197.98,784.511Z" transform="translate(-1193.883 -739.216)" fill="#ff65ab"/>
          <path id="Path_14448-2" data-name="Path 14448" d="M1278.434,745.279a33.9,33.9,0,0,0,8.62-.749,17.91,17.91,0,0,0,5.828-2.317,21.7,21.7,0,0,0,5.5-6.113q4.005-5.926,7.437-12.239c.342.2.693.4,1.034.6.739.435,1.469.871,2.205,1.3q.714.43,1.449.824c.272.146.543.282.821.407-.683,1.477-1.376,2.945-2.062,4.413l-.007.012c-1.912,2.753-3.806,5.492-5.71,8.233-1.678,2.419-3.437,4.916-5.967,6.293-3.494,1.9-7.705,1.3-11.65,1.539a29.965,29.965,0,0,0-5.978.954l-.291-1.957C1279.191,746.093,1278.841,745.661,1278.434,745.279Z" transform="translate(-1234.855 -723.861)" fill="#ff65ab"/>
        </g>
        <g id="Group_7500" data-name="Group 7500" transform="translate(56.806 42.474)">
          <path id="Path_14451" data-name="Path 14451" d="M1271.754,724.684a4,4,0,0,1,.927-.632.649.649,0,0,0-1.276.2.782.782,0,0,0,.215.575A1.448,1.448,0,0,1,1271.754,724.684Z" transform="translate(-1269.31 -720.643)" fill="#444"/>
          <path id="Path_14452" data-name="Path 14452" d="M1267.325,719.961a3.136,3.136,0,0,1,3.186-2.069" transform="translate(-1267.325 -717.873)" fill="none" stroke="#9b786e" stroke-linecap="round" stroke-linejoin="round" stroke-width="0.755"/>
          <path id="Path_14453" data-name="Path 14453" d="M1276.753,738.376a3.092,3.092,0,0,0,2.574.088" transform="translate(-1271.914 -727.851)" fill="none" stroke="#dd2b78" stroke-linecap="round" stroke-linejoin="round" stroke-width="0.858"/>
        </g>
      </g>
      <g id="Group_7502-2" data-name="Group 7502" transform="translate(0 93.219)">
        <path id="Path_14454-2" data-name="Path 14454" d="M1062.45,951.721a8.177,8.177,0,0,0,3.826-1.469,9.024,9.024,0,0,0,2.87-4.258,12.572,12.572,0,0,1,1.77-4.087,4.818,4.818,0,0,1,1.55-1.2c.046-.572.181-1.165.271-1.747a9.025,9.025,0,0,0-.455-4.357c-1.359.236-2.714.463-4.069.69A108.1,108.1,0,0,1,1062.45,951.721Z" transform="translate(-1056.389 -874.097)" fill="#dd2b78"/>
        <path id="Path_14455-2" data-name="Path 14455" d="M1081.789,940.186a6.623,6.623,0,0,1,1.39-.529,13.265,13.265,0,0,1,2.452-.35,16.456,16.456,0,0,0-.772-5.774c-1.083.18-2.17.369-3.254.549a9.025,9.025,0,0,1,.455,4.357C1081.969,939.021,1081.834,939.613,1081.789,940.186Z" transform="translate(-1065.712 -873.576)" fill="#feb37c"/>
        <path id="Path_14456-2" data-name="Path 14456" d="M1075.94,854.007a23.622,23.622,0,0,1,.992,4.434,132.049,132.049,0,0,0,16.975-6.068c14.851-6.477,28.391-15.621,41.782-24.857a29.728,29.728,0,0,1-1.59,8.162,35.122,35.122,0,0,1-2.414,5.546,53.413,53.413,0,0,1-9.863,12.642,82.9,82.9,0,0,1-40.345,21.782c.047.165.105.325.164.486.081.222.157.432.218.655a16.453,16.453,0,0,1,.772,5.774c-.009.334-.038.668-.076,1,10.7-2.222,21.471-4.625,31.273-9.517a80.2,80.2,0,0,0,11.492-7.1c2.906-4.069,6.24-7.865,9.426-11.71,1.289-1.558,2.565-3.153,3.778-4.787,4.276-5.741,7.852-12.025,8.794-19.1a15.869,15.869,0,0,0-.46-7.144,13.669,13.669,0,0,0-6.442-7.264,42.784,42.784,0,0,0-14.188,5.353c-5.577,3.364-10.359,7.928-15.561,11.866-10.632,8.046-22.952,13.37-35.227,18.48C1075.623,853.081,1075.785,853.546,1075.94,854.007Z" transform="translate(-1062.711 -816.832)" fill="#ffc400"/>
        <path id="Path_14457-2" data-name="Path 14457" d="M1050.643,907.375a8.176,8.176,0,0,0,3.826-1.469,9.019,9.019,0,0,0,2.87-4.259,12.575,12.575,0,0,1,1.771-4.087,5.479,5.479,0,0,1,2.629-1.638,25.631,25.631,0,0,0-1.145-5.682l-4.186.707A108.148,108.148,0,0,1,1050.643,907.375Z" transform="translate(-1050.643 -852.506)" fill="#dd2b78"/>
        <path id="Path_14458-2" data-name="Path 14458" d="M1071.484,895.3a15.244,15.244,0,0,1,2.949-.384c-.031-.445-.071-.893-.135-1.332a23.621,23.621,0,0,0-.992-4.434c-1.1.184-2.183.373-3.278.558a25.644,25.644,0,0,1,1.145,5.682C1071.277,895.359,1071.383,895.326,1071.484,895.3Z" transform="translate(-1060.077 -851.977)" fill="#feb37c"/>
        <path id="Path_14459-2" data-name="Path 14459" d="M1078.481,869.8c.035.436.05.873.057,1.306a266.64,266.64,0,0,0,56.975-25.4,29.719,29.719,0,0,0,1.59-8.162c-13.39,9.236-26.93,18.38-41.782,24.857a132.029,132.029,0,0,1-16.975,6.068C1078.41,868.908,1078.45,869.357,1078.481,869.8Z" transform="translate(-1064.125 -826.86)" fill="#ffb100"/>
        <path id="Path_14460-2" data-name="Path 14460" d="M1172.611,898.708a157.69,157.69,0,0,0,15.945-13.775,7.563,7.563,0,0,0-1.71-1.934l-1.031-.788c-1.213,1.634-2.489,3.229-3.778,4.787C1178.851,890.843,1175.516,894.64,1172.611,898.708Z" transform="translate(-1110.003 -848.599)" fill="#ffb100"/>
        <path id="Path_14461-2" data-name="Path 14461" d="M1200.226,816.838a13.668,13.668,0,0,1,6.442,7.264,15.87,15.87,0,0,1,.46,7.144c-.942,7.072-4.518,13.356-8.794,19.1l1.031.789a7.561,7.561,0,0,1,1.71,1.934c.865-.835,1.726-1.661,2.583-2.5,1.05-1.025,2.1-2.061,3.139-3.09,2.539-2.49,5.155-5.107,6.39-8.47a14.161,14.161,0,0,0,.751-5.954,23.686,23.686,0,0,0-2.06-7.777C1210.131,821.312,1205.043,815.9,1200.226,816.838Z" transform="translate(-1122.522 -816.731)" fill="#ffb100"/>
      </g>
    </g>
  </g>
</svg>
