<svg id="Group_7146" data-name="Group 7146" xmlns="http://www.w3.org/2000/svg" width="25" height="25" viewBox="0 0 25 25">
  <path id="Path_13449" data-name="Path 13449" d="M25,12.5A12.5,12.5,0,1,0,10.547,24.848V16.113H7.373V12.5h3.174V9.746c0-3.133,1.866-4.863,4.721-4.863a19.222,19.222,0,0,1,2.8.244V8.2H16.49a1.807,1.807,0,0,0-2.037,1.952V12.5H17.92l-.554,3.613H14.453v8.735A12.5,12.5,0,0,0,25,12.5Z" fill="#fff"/>
  <path id="Path_13450" data-name="Path 13450" d="M311.995,211.233l.554-3.614h-3.468v-2.345a1.807,1.807,0,0,1,2.037-1.952H312.7v-3.077a19.226,19.226,0,0,0-2.8-.244c-2.856,0-4.722,1.731-4.722,4.864v2.755H302v3.614h3.174v8.737a12.634,12.634,0,0,0,3.907,0v-8.737Z" transform="translate(-294.628 -195.122)" fill="#04194b"/>
</svg>
