<svg id="LINE_APP" xmlns="http://www.w3.org/2000/svg" width="25" height="25" viewBox="0 0 25 25">
  <g id="LINE_LOGO_1_" transform="translate(0 0)">
    <g id="FULL_COLOR_ICON_2_">
      <path id="Path_13441" data-name="Path 13441" d="M19.783,24.9H5.617A5.406,5.406,0,0,1,.2,19.483V5.317A5.406,5.406,0,0,1,5.617-.1H19.783A5.406,5.406,0,0,1,25.2,5.317V19.483A5.419,5.419,0,0,1,19.783,24.9Z" transform="translate(-0.2 0.1)" fill="#fff"/>
      <g id="TYPE_A_1_" transform="translate(3.367 3.923)">
        <g id="Group_7144" data-name="Group 7144">
          <path id="Path_13442" data-name="Path 13442" d="M34.483,26.523c0-4.1-4.078-7.423-9.092-7.423S16.3,22.425,16.3,26.523c0,3.659,3.225,6.733,7.594,7.318.291.063.707.188.791.46a1.885,1.885,0,0,1,.021.836s-.1.648-.125.774c-.042.23-.187.9.791.5A28.93,28.93,0,0,0,32.507,31.1h0a6.566,6.566,0,0,0,1.976-4.579" transform="translate(-16.3 -19.1)" fill="#022157"/>
          <g id="Group_7143" data-name="Group 7143" transform="translate(2.943 5.437)">
            <path id="Path_13443" data-name="Path 13443" d="M47.936,45.1h-.648a.184.184,0,0,0-.188.167V49.24a.171.171,0,0,0,.188.167h.648a.184.184,0,0,0,.188-.167V45.288a.187.187,0,0,0-.188-.188" transform="translate(-43.65 -45.1)" fill="#fff"/>
            <path id="Path_13444" data-name="Path 13444" d="M58.755,45.1h-.648a.184.184,0,0,0-.188.167V47.63L56.1,45.163a.02.02,0,0,0-.021-.021h0l-.021-.021h-.669a.184.184,0,0,0-.188.167v3.973a.171.171,0,0,0,.188.167h.648a.184.184,0,0,0,.188-.167V46.9l1.819,2.467c.021.021.021.042.042.042h.732a.184.184,0,0,0,.188-.167V45.288a.321.321,0,0,0-.251-.188" transform="translate(-50.056 -45.1)" fill="#fff"/>
            <path id="Path_13445" data-name="Path 13445" d="M33.36,48.446H31.625V45.288a.187.187,0,0,0-.188-.188h-.648a.187.187,0,0,0-.188.188v3.973h0a.3.3,0,0,0,.042.125h0a.3.3,0,0,0,.125.042h2.551a.171.171,0,0,0,.167-.188v-.606a.135.135,0,0,0-.125-.188" transform="translate(-30.6 -45.1)" fill="#fff"/>
            <path id="Path_13446" data-name="Path 13446" d="M78.839,46.1a.171.171,0,0,0,.167-.188v-.627a.184.184,0,0,0-.167-.188H76.267a.3.3,0,0,0-.125.042h0a.3.3,0,0,0-.042.125h0V49.24h0a.3.3,0,0,0,.042.125h0a.3.3,0,0,0,.125.042h2.551a.171.171,0,0,0,.167-.188v-.585a.184.184,0,0,0-.167-.188H77.083v-.669h1.736a.171.171,0,0,0,.167-.188v-.627a.184.184,0,0,0-.167-.188H77.083V46.1Z" transform="translate(-66.586 -45.1)" fill="#fff"/>
          </g>
        </g>
      </g>
    </g>
  </g>
</svg>
