<svg xmlns="http://www.w3.org/2000/svg" width="44.122" height="47.148" viewBox="0 0 44.122 47.148">
  <g id="Group_7125" data-name="Group 7125" transform="matrix(0.985, 0.174, -0.174, 0.985, 4.9, -0.746)" opacity="0.502">
    <path id="Path_13400" data-name="Path 13400" d="M89.876,202.047a.729.729,0,1,0,.731.728A.73.73,0,0,0,89.876,202.047Z" transform="translate(-61.061 -168.139)" fill="#04194b"/>
    <path id="Path_13401" data-name="Path 13401" d="M86.863,184.772a6.156,6.156,0,0,1-10.772,0,6.157,6.157,0,0,1-10.774,0,6.14,6.14,0,0,1-7.592,2.761v19.2H81.795v-14.3h8.79v14.3h3.871v-19.2a6.14,6.14,0,0,1-7.592-2.761ZM76.611,201.846H61.654V192.43H76.611Z" transform="translate(-55.34 -164.994)" fill="#04194b"/>
    <rect id="Rectangle_485" data-name="Rectangle 485" width="32.908" height="5.097" transform="translate(4.295 0)" fill="#04194b"/>
    <path id="Path_13402" data-name="Path 13402" d="M64.334,177.767l1.9-9.048H59.216l-3.8,9.048h8.915Z" transform="translate(-54.921 -162.072)" fill="#04194b"/>
    <path id="Path_13403" data-name="Path 13403" d="M59.4,185.834a4.618,4.618,0,0,0,4.59-4.158H54.81a4.615,4.615,0,0,0,4.588,4.158Z" transform="translate(-54.81 -164.43)" fill="#04194b"/>
    <path id="Path_13404" data-name="Path 13404" d="M72.569,185.834a4.619,4.619,0,0,0,4.59-4.158H67.984A4.615,4.615,0,0,0,72.569,185.834Z" transform="translate(-57.208 -164.43)" fill="#04194b"/>
    <path id="Path_13405" data-name="Path 13405" d="M77.232,168.719H70.151l-1.9,9.048h8.978Z" transform="translate(-57.257 -162.072)" fill="#04194b"/>
    <path id="Path_13406" data-name="Path 13406" d="M88.2,168.719h-7.08v9.048H90.1Z" transform="translate(-59.6 -162.072)" fill="#04194b"/>
    <path id="Path_13407" data-name="Path 13407" d="M85.742,185.834a4.614,4.614,0,0,0,4.585-4.158H81.152A4.62,4.62,0,0,0,85.742,185.834Z" transform="translate(-59.605 -164.43)" fill="#04194b"/>
    <path id="Path_13408" data-name="Path 13408" d="M91.716,168.719l1.882,9.048h8.93l-3.8-9.048Z" transform="translate(-61.528 -162.072)" fill="#04194b"/>
    <path id="Path_13409" data-name="Path 13409" d="M94.323,181.675a4.611,4.611,0,0,0,9.177,0Z" transform="translate(-62.003 -164.43)" fill="#04194b"/>
  </g>
</svg>
