<svg xmlns="http://www.w3.org/2000/svg" width="50.508" height="44.054" viewBox="0 0 50.508 44.054">
  <g id="Group_7126" data-name="Group 7126" opacity="0.502">
    <path id="Path_13410" data-name="Path 13410" d="M165.607,293.99a7.533,7.533,0,0,1-.545-10.047l-4.974-4.973-9.141,9.143,20.541,20.541,9.143-9.143-4.976-4.975A7.539,7.539,0,0,1,165.607,293.99Z" transform="translate(-150.947 -264.6)" fill="#04194b"/>
    <path id="Path_13411" data-name="Path 13411" d="M199.447,276.4c-2.991-3.36-6.887-5.448-9.925-5.382a2.536,2.536,0,0,1-.093,1.49,2.5,2.5,0,0,1-.567.905,2.53,2.53,0,1,1,0-3.579c.036.036.063.079.1.117,2.454-.241,5.4.819,8.117,2.806l.216-2.846-8.509-8.506-13.024.991-12.221,12.222,4.974,4.973a7.535,7.535,0,0,1,10.593,10.593l4.974,4.973L196.3,282.936l.521-6.857a17.67,17.67,0,0,1,1.4,1.407c.159.178.309.362.459.544l.043-.042-.007.085c3.254,3.969,4.388,8.577,2.442,10.306-1.328,1.18-3.877.8-6.562-.854l-1.183,1.183a11.291,11.291,0,0,0,5.3,1.971,4.741,4.741,0,0,0,3.529-1.078C205.049,287.114,203.817,281.314,199.447,276.4Z" transform="translate(-153.239 -261.402)" fill="#04194b"/>
  </g>
</svg>
