<svg id="Messenger" xmlns="http://www.w3.org/2000/svg" width="25" height="25" viewBox="0 0 25 25">
  <path id="Bubble" d="M27.5,11C20.458,11,15,16.159,15,23.125a11.862,11.862,0,0,0,3.926,8.969,1.007,1.007,0,0,1,.337.712l.068,2.223a1,1,0,0,0,1.4.885l2.48-1.094a1,1,0,0,1,.667-.05,13.6,13.6,0,0,0,3.619.48c7.042,0,12.5-5.159,12.5-12.125S34.542,11,27.5,11Z" transform="translate(-15 -11)" fill="#fff"/>
  <path id="Bolt" d="M209.825,352.881l3.661-5.851a1.863,1.863,0,0,1,2.7-.5l2.912,2.2a.744.744,0,0,0,.9,0l3.932-3.006a.594.594,0,0,1,.858.793l-3.661,5.851a1.863,1.863,0,0,1-2.7.5l-2.912-2.2a.744.744,0,0,0-.9,0l-3.932,3.006A.594.594,0,0,1,209.825,352.881Z" transform="translate(-204.808 -337.195)" fill="#04194b"/>
</svg>
