<svg xmlns="http://www.w3.org/2000/svg" width="516.949" height="89.155" viewBox="0 0 516.949 89.155">
  <g id="Group_7626" data-name="Group 7626" transform="translate(-142.084 -346.15)">
    <path id="Path_14807" data-name="Path 14807" d="M425.545,397.985l.021.009q1.354.548,2.713,1.07l-1.611-3.872Z" fill="none"/>
    <path id="Path_14808" data-name="Path 14808" d="M208.37,385.163a11.978,11.978,0,0,0-9.539,4.1c-2.247,2.6-3.412,6.1-3.525,10.495,1.79-.641,3.567-1.321,5.35-2,5.506-2.1,10.914-4.347,16.868-5.453a9.972,9.972,0,0,0-1.877-4.266Q213.262,385.165,208.37,385.163Z" fill="none"/>
    <path id="Path_14809" data-name="Path 14809" d="M177.612,388.037q-2.385-2.872-7.277-2.874a11.8,11.8,0,0,0-9.478,4.1,15.193,15.193,0,0,0-3.316,8.32l1.025.414c6.817,2.756,13.693,5.129,21.431,5v-5.357Q180,390.913,177.612,388.037Z" fill="none"/>
    <path id="Path_14810" data-name="Path 14810" d="M309.753,385.163a13.956,13.956,0,0,0-10.578,4.158,13.762,13.762,0,0,0-3.331,6.015,72.845,72.845,0,0,1,10.535-3.049,33.782,33.782,0,0,1,13.59.148,10.529,10.529,0,0,0-1.96-4.092Q315.376,385.165,309.753,385.163Z" fill="none"/>
    <path id="Path_14811" data-name="Path 14811" d="M513.5,384.8q-7.337,0-11.312,4.953a15.17,15.17,0,0,0-1.959,3.266,86.209,86.209,0,0,1,9.134,2.937c3.616,1.345,7.182,2.794,10.767,4.2a40.236,40.236,0,0,0,8.491,2.307c-.215-5.462-1.5-9.709-3.869-12.712Q520.836,384.8,513.5,384.8Z" fill="none"/>
    <path id="Path_14812" data-name="Path 14812" d="M160.857,389.26a11.8,11.8,0,0,1,9.478-4.1q4.891,0,7.277,2.874t2.385,9.6v5.357c.263-.005.524,0,.789-.014a48.075,48.075,0,0,0,14.52-3.226c.113-4.394,1.278-7.9,3.525-10.495a11.978,11.978,0,0,1,9.539-4.1q4.89,0,7.277,2.874a9.972,9.972,0,0,1,1.877,4.266c.193-.036.381-.081.574-.114a36.015,36.015,0,0,1,15.012.8c-.535-6.26-2.184-10.987-4.989-14.122q-5.2-5.808-14.981-5.81a23.173,23.173,0,0,0-11.863,3.058,20.2,20.2,0,0,0-7.949,8.194q-4.527-11.25-17.978-11.252a22.237,22.237,0,0,0-10.824,2.569,19.168,19.168,0,0,0-7.521,7.46v-2.935a6.4,6.4,0,0,0-2.018-5.075,7.586,7.586,0,0,0-5.2-1.774,8.3,8.3,0,0,0-5.5,1.835,6.459,6.459,0,0,0-2.2,5.258v12.092a90.461,90.461,0,0,1,15.457,5.1A15.193,15.193,0,0,1,160.857,389.26Z" fill="#04194b"/>
    <path id="Path_14813" data-name="Path 14813" d="M180,402.995v24.728a6.788,6.788,0,0,0,2.2,5.442,8.136,8.136,0,0,0,5.5,1.9,7.9,7.9,0,0,0,5.442-1.9,6.885,6.885,0,0,0,2.14-5.442V400.451c0-.239.016-.463.022-.7a48.075,48.075,0,0,1-14.52,3.226C180.521,402.991,180.26,402.99,180,402.995Z" fill="#00b0ff"/>
    <path id="Path_14814" data-name="Path 14814" d="M144.225,433.165a7.9,7.9,0,0,0,5.442,1.9,8.132,8.132,0,0,0,5.5-1.9,6.785,6.785,0,0,0,2.2-5.442V400.451a25.036,25.036,0,0,1,.169-2.871,90.461,90.461,0,0,0-15.457-5.1v35.238A6.879,6.879,0,0,0,144.225,433.165Z" fill="#00b0ff"/>
    <path id="Path_14815" data-name="Path 14815" d="M218.1,392.189c-.193.033-.381.078-.574.114a24.977,24.977,0,0,1,.508,5.335v30.085a6.882,6.882,0,0,0,2.14,5.442,7.9,7.9,0,0,0,5.442,1.9,8.085,8.085,0,0,0,5.565-1.9,6.889,6.889,0,0,0,2.14-5.442V397.638c0-1.646-.083-3.178-.209-4.651A36.015,36.015,0,0,0,218.1,392.189Z" fill="#00b0ff"/>
    <path id="Path_14816" data-name="Path 14816" d="M256.432,362.416a9.34,9.34,0,0,0,6.6-2.263,7.7,7.7,0,0,0,2.446-5.931,7.43,7.43,0,0,0-2.507-5.871,10.916,10.916,0,0,0-13.147,0,7.508,7.508,0,0,0-2.446,5.871,7.7,7.7,0,0,0,2.446,5.931A9.332,9.332,0,0,0,256.432,362.416Z" fill="#ffc400"/>
    <path id="Path_14817" data-name="Path 14817" d="M264.137,402.777V380.516a6.6,6.6,0,0,0-2.2-5.381,8.3,8.3,0,0,0-5.5-1.835,8.066,8.066,0,0,0-5.443,1.835,6.7,6.7,0,0,0-2.14,5.381v17.945q2.141.848,4.28,1.693A39.854,39.854,0,0,0,264.137,402.777Z" fill="#04194b"/>
    <path id="Path_14818" data-name="Path 14818" d="M250.989,433.165a7.9,7.9,0,0,0,5.443,1.9,8.133,8.133,0,0,0,5.5-1.9,6.785,6.785,0,0,0,2.2-5.442V402.777a39.854,39.854,0,0,1-11.008-2.623q-2.142-.842-4.28-1.693v29.262A6.882,6.882,0,0,0,250.989,433.165Z" fill="#00b0ff"/>
    <path id="Path_14819" data-name="Path 14819" d="M295.844,395.336a13.762,13.762,0,0,1,3.331-6.015,13.956,13.956,0,0,1,10.578-4.158q5.624,0,8.256,3.18a10.529,10.529,0,0,1,1.96,4.092,59.764,59.764,0,0,1,8.949,2.626c2.338.867,4.686,1.719,7.007,2.62v-.043q0-12.351-5.259-18.467t-16.021-6.116a24.678,24.678,0,0,0-11.618,2.691,20.677,20.677,0,0,0-8.194,7.7v-3.3a6.484,6.484,0,0,0-2.018-4.953,7.289,7.289,0,0,0-5.2-1.9,7.879,7.879,0,0,0-5.626,1.957,6.721,6.721,0,0,0-2.079,5.136v20.873a68.731,68.731,0,0,0,9.444-3.327C291.5,397.015,293.654,396.138,295.844,395.336Z" fill="#04194b"/>
    <path id="Path_14820" data-name="Path 14820" d="M281.931,433.1a7.658,7.658,0,0,0,5.564,1.957,7.887,7.887,0,0,0,5.626-1.957,7.032,7.032,0,0,0,2.079-5.381V400.451a19.446,19.446,0,0,1,.644-5.115c-2.19.8-4.348,1.679-6.487,2.6a68.731,68.731,0,0,1-9.444,3.327v26.457A7.14,7.14,0,0,0,281.931,433.1Z" fill="#00b0ff"/>
    <path id="Path_14821" data-name="Path 14821" d="M319.969,392.435a24.129,24.129,0,0,1,.669,6.058v29.23a7.025,7.025,0,0,0,2.079,5.381,7.879,7.879,0,0,0,5.626,1.957,7.663,7.663,0,0,0,5.564-1.957,7.144,7.144,0,0,0,2.018-5.381V397.681c-2.321-.9-4.669-1.753-7.007-2.62A59.764,59.764,0,0,0,319.969,392.435Z" fill="#00b0ff"/>
    <path id="Path_14822" data-name="Path 14822" d="M359.038,362.416a9.34,9.34,0,0,0,6.6-2.263,7.7,7.7,0,0,0,2.446-5.931,7.43,7.43,0,0,0-2.507-5.871,10.916,10.916,0,0,0-13.147,0,7.508,7.508,0,0,0-2.446,5.871,7.7,7.7,0,0,0,2.446,5.931A9.335,9.335,0,0,0,359.038,362.416Z" fill="#ffc400"/>
    <path id="Path_14823" data-name="Path 14823" d="M366.743,401.816v-21.3a6.6,6.6,0,0,0-2.2-5.381,8.3,8.3,0,0,0-5.5-1.835,8.064,8.064,0,0,0-5.442,1.835,6.694,6.694,0,0,0-2.141,5.381v22.016A43.135,43.135,0,0,0,366.743,401.816Z" fill="#04194b"/>
    <path id="Path_14824" data-name="Path 14824" d="M353.6,433.165a7.9,7.9,0,0,0,5.442,1.9,8.131,8.131,0,0,0,5.5-1.9,6.785,6.785,0,0,0,2.2-5.442V401.816a43.135,43.135,0,0,1-15.288.716v25.191A6.879,6.879,0,0,0,353.6,433.165Z" fill="#00b0ff"/>
    <path id="Path_14825" data-name="Path 14825" d="M391.2,377.7a6.642,6.642,0,0,0-2.569-3.3,6.868,6.868,0,0,0-3.791-1.1,8.268,8.268,0,0,0-5.382,2.018,6.078,6.078,0,0,0-2.445,4.831,7.732,7.732,0,0,0,.611,2.691l5.526,13.039a63.72,63.72,0,0,1,13.6-3.833Z" fill="#04194b"/>
    <path id="Path_14826" data-name="Path 14826" d="M426.668,395.192l1.611,3.872a53.323,53.323,0,0,0,15.86,3.867l-10.01-24.861a7.344,7.344,0,0,0-13.7,0l-6.293,15.707c3.882,1.176,7.645,2.687,11.407,4.208Z" fill="#04194b"/>
    <path id="Path_14827" data-name="Path 14827" d="M470.267,396.754,476.2,382.84a6.217,6.217,0,0,0,.611-2.813,5.908,5.908,0,0,0-2.263-4.709,7.707,7.707,0,0,0-5.075-1.895,6.362,6.362,0,0,0-3.607,1.1,6.751,6.751,0,0,0-2.508,3.3l-9.341,24.35a90.6,90.6,0,0,0,13.639-4.42Q468.964,397.258,470.267,396.754Z" fill="#04194b"/>
    <path id="Path_14828" data-name="Path 14828" d="M441.222,430.169a7.34,7.34,0,0,0,3,3.547,8.242,8.242,0,0,0,4.342,1.222,8.46,8.46,0,0,0,4.464-1.222,7.345,7.345,0,0,0,3-3.547l14.247-33.415q-1.3.5-2.611,1a90.6,90.6,0,0,1-13.639,4.42l-4.968,12.95-4.91-12.2a53.323,53.323,0,0,1-15.86-3.867Z" fill="#00b0ff"/>
    <path id="Path_14829" data-name="Path 14829" d="M400.742,433.716a8.552,8.552,0,0,0,4.4,1.222,8.46,8.46,0,0,0,4.464-1.222,7.352,7.352,0,0,0,3-3.547l12.94-32.184c-3.762-1.521-7.525-3.032-11.407-4.208L405.633,415l-8.882-22.958a63.72,63.72,0,0,0-13.6,3.833l14.531,34.29A7.236,7.236,0,0,0,400.742,433.716Z" fill="#00b0ff"/>
    <path id="Path_14830" data-name="Path 14830" d="M500.228,393.015a15.17,15.17,0,0,1,1.959-3.266q3.972-4.953,11.312-4.953t11.252,4.953c2.372,3,3.654,7.25,3.869,12.712a42.292,42.292,0,0,0,15.278-.481,33.55,33.55,0,0,0-3.676-14.31,25.96,25.96,0,0,0-10.641-10.823,36,36,0,0,0-32.164,0,26.326,26.326,0,0,0-10.7,10.823,29.518,29.518,0,0,0-1.968,4.588c.118-.021.232-.049.35-.069A36.1,36.1,0,0,1,500.228,393.015Z" fill="#04194b"/>
    <path id="Path_14831" data-name="Path 14831" d="M486.716,420.63a26.216,26.216,0,0,0,10.7,10.884,36.007,36.007,0,0,0,32.164,0,25.856,25.856,0,0,0,10.641-10.884,34.988,34.988,0,0,0,3.73-16.511c0-.724-.021-1.436-.054-2.139a42.292,42.292,0,0,1-15.278.481c.022.545.044,1.089.044,1.658q0,9.54-3.913,14.432t-11.374,4.891q-7.337,0-11.252-4.891t-3.913-14.432a26.97,26.97,0,0,1,2.016-11.1,36.1,36.1,0,0,0-15.13-.826c-.118.02-.232.048-.35.069a36.927,36.927,0,0,0-1.823,11.861A34.5,34.5,0,0,0,486.716,420.63Z" fill="#00b0ff"/>
    <path id="Path_14832" data-name="Path 14832" d="M574.926,392.014c.092-.122.175-.25.272-.369q3.363-4.156,10.579-4.892l3.669-.367q4.155-.487,5.748-2.079a6.669,6.669,0,0,0,1.59-4.892,5.975,5.975,0,0,0-1.835-4.77,6.6,6.6,0,0,0-5.014-1.345l-1.712.123a21.179,21.179,0,0,0-10.212,3.3,18.1,18.1,0,0,0-6.91,8.317v-4.892a6.5,6.5,0,0,0-1.957-5.075,7.36,7.36,0,0,0-5.137-1.774,7.881,7.881,0,0,0-5.319,1.835,6.544,6.544,0,0,0-2.141,5.258v17.465a85.841,85.841,0,0,1,16.832-5.571C573.9,392.181,574.412,392.092,574.926,392.014Z" fill="#04194b"/>
    <path id="Path_14833" data-name="Path 14833" d="M558.688,433.165a7.9,7.9,0,0,0,5.442,1.9,8.135,8.135,0,0,0,5.5-1.9,6.785,6.785,0,0,0,2.2-5.442V402.04a16.115,16.115,0,0,1,3.092-10.026c-.514.078-1.029.167-1.547.273a85.841,85.841,0,0,0-16.832,5.571v29.865A6.879,6.879,0,0,0,558.688,433.165Z" fill="#00b0ff"/>
    <path id="Path_14834" data-name="Path 14834" d="M638.342,400.564l16.166-15.034a7.13,7.13,0,0,0,2.323-5.137,7.1,7.1,0,0,0-6.97-6.97,6.909,6.909,0,0,0-5.015,2.2L618.674,400.7V354.711a6.6,6.6,0,0,0-2.2-5.381,8.307,8.307,0,0,0-5.5-1.835,8.062,8.062,0,0,0-5.442,1.835,6.694,6.694,0,0,0-2.141,5.381V397.86c1.114.436,2.222.882,3.316,1.354A43.436,43.436,0,0,0,638.342,400.564Z" fill="#04194b"/>
    <path id="Path_14835" data-name="Path 14835" d="M605.528,433.1a8.061,8.061,0,0,0,5.442,1.834,8.306,8.306,0,0,0,5.5-1.834,6.6,6.6,0,0,0,2.2-5.381V406.81l28.618,25.927a7.181,7.181,0,0,0,5.014,2.2,6.208,6.208,0,0,0,4.709-2.2,7.216,7.216,0,0,0,2.018-5.014,7.1,7.1,0,0,0-2.446-5.259l-21.28-19.078,3.035-2.822a43.436,43.436,0,0,1-31.639-1.35c-1.094-.472-2.2-.918-3.316-1.354v29.863A6.69,6.69,0,0,0,605.528,433.1Z" fill="#00b0ff"/>
  </g>
</svg>
