<svg xmlns="http://www.w3.org/2000/svg" width="239.633" height="299.448" viewBox="0 0 239.633 299.448">
  <g id="Group_6166" data-name="Group 6166" transform="translate(-59.866 -6177.957)">
    <path id="Path_10425" data-name="Path 10425" d="M87.632,6221.632c-3.915-3.986-12.31-2.741-18.748,2.771s-8.482,13.2-4.562,17.181l47,50.933c3.919,3.982,12.312,2.734,18.753-2.777s8.478-13.2,4.556-17.185Z" transform="translate(0.251 4.207)" fill="#fff"/>
    <path id="Path_10426" data-name="Path 10426" d="M88.457,6221.048l-.021-.022a9.605,9.605,0,0,0-7.059-2.634,17.831,17.831,0,0,0-6.578,1.375,23.568,23.568,0,0,0-6.472,3.969c-4.14,3.545-6.717,8.145-6.894,12.3a8.265,8.265,0,0,0,2.259,6.325l46.992,50.92.022.024a9.615,9.615,0,0,0,7.056,2.627,17.837,17.837,0,0,0,6.58-1.375,23.573,23.573,0,0,0,6.476-3.971c4.138-3.544,6.713-8.141,6.889-12.3a8.28,8.28,0,0,0-2.259-6.331Zm41.714,68.784c-3.9,3.333-8.506,5.107-12.408,5.107a8.687,8.687,0,0,1-6.345-2.331l-47-50.933c-3.92-3.975-1.876-11.669,4.562-17.18,3.893-3.333,8.5-5.106,12.4-5.106a8.682,8.682,0,0,1,6.347,2.335l47,50.922C138.649,6276.627,136.6,6284.324,130.171,6289.832Z" transform="translate(0.159 4.115)" fill="#2e7d32"/>
    <path id="Path_10427" data-name="Path 10427" d="M93.709,6230.533v45.21l14.423,15.629c3.919,3.981,12.312,2.735,18.753-2.777s8.478-13.2,4.556-17.184Z" transform="translate(3.444 5.35)" fill="#e8f5e9"/>
    <path id="Path_10428" data-name="Path 10428" d="M198.954,6298.592l-77.093,50.991-16.022-14.32c-3.961-3.941-8.648,6.65-15.019,12.237s-20.651,4.381-16.687,13.351c0,0,23.228,19.673,25.885,23.691l33.36,50.436a36.582,36.582,0,0,0,50.694,10.33l47.348-31.316a36.584,36.584,0,0,0,10.331-50.7Z" transform="translate(1.382 12.276)" fill="#fff"/>
    <path id="Path_10429" data-name="Path 10429" d="M242.213,6363.068h0l-42.8-64.706a.5.5,0,0,0-.692-.141L121.953,6349l-15.725-14.057a3.033,3.033,0,0,0-2.354-.988c-2.311.135-4.664,3.1-7.387,6.54a51.875,51.875,0,0,1-5.948,6.674c-2.264,1.984-5.561,3.083-8.749,4.148-3.753,1.25-7.3,2.432-8.425,4.985a5.79,5.79,0,0,0,.358,4.794.516.516,0,0,0,.134.178c.231.2,23.2,19.673,25.792,23.586l33.359,50.435a36.969,36.969,0,0,0,23.524,15.878,36.922,36.922,0,0,0,14.216.126,36.85,36.85,0,0,0,13.646-5.532l47.348-31.318a37.051,37.051,0,0,0,10.472-51.385Zm4.429,27.662a35.97,35.97,0,0,1-15.451,22.891l-47.349,31.318a36.054,36.054,0,0,1-50-10.191l-33.359-50.436c-2.609-3.945-24.093-22.2-25.89-23.722a4.789,4.789,0,0,1-.314-3.882c.951-2.148,4.291-3.263,7.828-4.442,3.282-1.1,6.677-2.227,9.092-4.344a52.353,52.353,0,0,0,6.072-6.806c2.468-3.114,4.8-6.054,6.665-6.165a2.066,2.066,0,0,1,1.6.711l.019.018L121.575,6350a.5.5,0,0,0,.607.045l76.677-50.716,42.522,64.289a35.975,35.975,0,0,1,5.261,27.112Z" transform="translate(1.336 12.23)" fill="#2e7d32"/>
    <path id="Path_10430" data-name="Path 10430" d="M130.947,6338.49l-28.3-31.055c-3.9-4-12.3-2.786-18.756,2.7s-8.53,13.174-4.624,17.164l32.982,35.962c3.9,3.995,12.3,2.777,18.763-2.711l-1.7-6.93C135.764,6348.137,134.856,6342.484,130.947,6338.49Z" transform="translate(1.773 12.936)" fill="#e8f5e9"/>
    <path id="Path_10431" data-name="Path 10431" d="M103.476,6306.854l-.023-.024a9.626,9.626,0,0,0-7.1-2.66,17.872,17.872,0,0,0-6.558,1.363,23.519,23.519,0,0,0-6.46,3.936c-4.154,3.529-6.747,8.119-6.938,12.277a8.263,8.263,0,0,0,2.237,6.333l32.971,35.949.022.022a9.625,9.625,0,0,0,7.1,2.655,17.88,17.88,0,0,0,6.562-1.364,23.579,23.579,0,0,0,6.464-3.937,1,1,0,0,0,.323-1l-1.553-6.342a15.912,15.912,0,0,0,3.257-3.933,9.869,9.869,0,0,0,1.325-4.414,10.5,10.5,0,0,0-3.335-7.821Zm25.928,46.859,1.7,6.93a19.969,19.969,0,0,1-12.38,5.063,8.708,8.708,0,0,1-6.382-2.352l-32.982-35.962c-3.906-3.99-1.834-11.677,4.624-17.164a19.942,19.942,0,0,1,12.371-5.061,8.7,8.7,0,0,1,6.386,2.357l28.3,31.056C134.948,6342.577,135.856,6348.229,129.4,6353.714Z" transform="translate(1.681 12.844)" fill="#2e7d32"/>
    <path id="Path_10432" data-name="Path 10432" d="M131.774,6304.748l-28.3-31.055c-3.9-4-12.3-2.787-18.757,2.7s-8.53,13.175-4.623,17.165l32.982,35.959c3.9,4,12.3,2.779,18.762-2.71l-1.7-6.93C136.589,6314.394,135.682,6308.743,131.774,6304.748Z" transform="translate(1.857 9.503)" fill="#e0f4fc"/>
    <path id="Path_10433" data-name="Path 10433" d="M104.3,6273.113l-.023-.024a9.622,9.622,0,0,0-7.1-2.659,17.889,17.889,0,0,0-6.559,1.362,23.559,23.559,0,0,0-6.459,3.936c-4.154,3.53-6.747,8.121-6.938,12.279a8.267,8.267,0,0,0,2.235,6.333l32.972,35.948.021.023a9.634,9.634,0,0,0,7.1,2.653,17.907,17.907,0,0,0,6.562-1.363,23.548,23.548,0,0,0,6.464-3.938,1,1,0,0,0,.324-1l-1.555-6.341a15.882,15.882,0,0,0,3.257-3.934,9.855,9.855,0,0,0,1.325-4.412,10.5,10.5,0,0,0-3.335-7.821Zm25.929,46.859,1.7,6.93a19.973,19.973,0,0,1-12.38,5.064,8.7,8.7,0,0,1-6.381-2.354l-32.982-35.959c-3.907-3.99-1.834-11.676,4.623-17.165a19.944,19.944,0,0,1,12.372-5.061,8.7,8.7,0,0,1,6.386,2.358l28.3,31.055C135.774,6308.835,136.682,6314.486,130.231,6319.972Z" transform="translate(1.765 9.41)" fill="#2e7d32"/>
    <path id="Path_10434" data-name="Path 10434" d="M146.043,6178.863h-4.594c-.779,0-1.409,2.013-1.409,4.5s.63,4.495,1.409,4.495h4.594c.778,0,1.409-2.012,1.409-4.495S146.821,6178.863,146.043,6178.863Z" transform="translate(8.159 0.092)" fill="#e0f4fc"/>
    <path id="Path_10435" data-name="Path 10435" d="M146.136,6177.957h-4.594c-.6,0-1.427.35-1.949,2.016a13.415,13.415,0,0,0,0,6.953c.522,1.666,1.349,2.017,1.949,2.017h4.594c.6,0,1.426-.351,1.948-2.017a13.415,13.415,0,0,0,0-6.953C147.561,6178.307,146.736,6177.957,146.136,6177.957Zm0,9.987h-4.594c-.779,0-1.409-2.012-1.409-4.494s.63-4.5,1.409-4.5h4.594c.778,0,1.409,2.013,1.409,4.5S146.914,6187.944,146.136,6187.944Z" transform="translate(8.066)" fill="#2e7d32"/>
    <path id="Path_10436" data-name="Path 10436" d="M136.148,6178.863H121.494a4.495,4.495,0,1,0,0,8.99h14.653a4.495,4.495,0,0,0,0-8.99Z" transform="translate(5.814 0.092)" fill="#e0f4fc"/>
    <path id="Path_10437" data-name="Path 10437" d="M136.24,6177.957H121.586a5.493,5.493,0,0,0,0,10.986H136.24a5.493,5.493,0,0,0,0-10.986Zm0,9.987H121.586a4.495,4.495,0,1,1,0-8.99H136.24a4.495,4.495,0,0,1,0,8.99Z" transform="translate(5.722)" fill="#2e7d32"/>
    <path id="Path_10438" data-name="Path 10438" d="M119.023,6349.583,103,6335.263a2.653,2.653,0,0,0-1.672-.851v55.457s12.288,18.823,12.528,18.823h94.657a12.541,12.541,0,0,0,12.528-12.528v-59.888l-24.925-37.684Z" transform="translate(4.219 12.276)" fill="#e8f5e9"/>
    <rect id="Rectangle_260" data-name="Rectangle 260" width="119.712" height="235.944" rx="11.371" transform="translate(107.009 6180.228)" fill="#e8f5e9"/>
    <path id="Path_10439" data-name="Path 10439" d="M209.885,6179.565H115.228a13.042,13.042,0,0,0-13.026,13.028V6403.48a13.042,13.042,0,0,0,13.026,13.028h94.657a13.042,13.042,0,0,0,13.027-13.028V6192.593A13.042,13.042,0,0,0,209.885,6179.565Zm12.029,223.915a12.043,12.043,0,0,1-12.029,12.029H115.228A12.043,12.043,0,0,1,103.2,6403.48V6192.593a12.042,12.042,0,0,1,12.029-12.029h94.657a12.042,12.042,0,0,1,12.029,12.029Z" transform="translate(4.308 0.164)" fill="#2e7d32"/>
    <rect id="Rectangle_261" data-name="Rectangle 261" width="111.631" height="228.378" rx="8.956" transform="translate(111.049 6184.01)" fill="#a5d6a7"/>
    <path id="Path_10440" data-name="Path 10440" d="M208.177,6182.545h-91.9a10.865,10.865,0,0,0-10.866,10.866v208.642a10.868,10.868,0,0,0,10.866,10.867h91.9a10.867,10.867,0,0,0,10.866-10.867V6193.411a10.863,10.863,0,0,0-10.866-10.866Zm9.868,219.508a9.868,9.868,0,0,1-9.868,9.868h-91.9a9.867,9.867,0,0,1-9.867-9.868V6193.411a9.868,9.868,0,0,1,9.867-9.868h91.9a9.868,9.868,0,0,1,9.868,9.868Z" transform="translate(4.635 0.467)" fill="#2e7d32"/>
    <path id="Path_10441" data-name="Path 10441" d="M173.252,6196.9H143.914a2.668,2.668,0,0,0,0,5.336h29.338a2.668,2.668,0,0,0,0-5.336Z" transform="translate(8.281 1.928)" fill="#72c8ed"/>
    <path id="Path_10442" data-name="Path 10442" d="M173.252,6195.092H143.914a2.667,2.667,0,0,0,0,5.335h29.338a2.667,2.667,0,0,0,0-5.335Z" transform="translate(8.281 1.744)" fill="#e8f5e9"/>
    <path id="Path_10443" data-name="Path 10443" d="M173.344,6194.188H144.006a3.664,3.664,0,1,0,0,7.329h29.338a3.664,3.664,0,1,0,0-7.329Zm0,6.332H144.006a2.667,2.667,0,0,1,0-5.335h29.338a2.667,2.667,0,0,1,0,5.335Z" transform="translate(8.189 1.652)" fill="#2e7d32"/>
    <rect id="Rectangle_262" data-name="Rectangle 262" width="82.312" height="77.26" transform="translate(140.368 6223.34)" fill="#4caf50"/>
    <path id="Path_10444" data-name="Path 10444" d="M168.2,6379.3H148.249a3.481,3.481,0,0,0,0,6.961H168.2a3.481,3.481,0,0,0,0-6.961Z" transform="translate(8.64 20.489)" fill="#e8f5e9"/>
    <path id="Path_10445" data-name="Path 10445" d="M168.293,6378.4H148.342a4.478,4.478,0,1,0,0,8.955h19.952a4.478,4.478,0,1,0,0-8.955Zm0,7.958H148.342a3.481,3.481,0,0,1,0-6.961h19.952a3.481,3.481,0,0,1,0,6.961Z" transform="translate(8.548 20.397)" fill="#2e7d32"/>
    <rect id="Rectangle_263" data-name="Rectangle 263" width="102.311" height="179.225" transform="translate(115.708 6210.675)" fill="#e0f4fc"/>
    <path id="Path_10446" data-name="Path 10446" d="M212.954,6206.748H110.643a1,1,0,0,0-1,1v179.226a1,1,0,0,0,1,1H212.954a1,1,0,0,0,1-1V6207.745A1,1,0,0,0,212.954,6206.748Zm0,180.223H110.643V6207.745H212.954Z" transform="translate(5.066 2.93)" fill="#2e7d32"/>
    <rect id="Rectangle_264" data-name="Rectangle 264" width="102.311" height="179.225" transform="translate(115.708 6210.675)" fill="#e8f5e9"/>
    <path id="Path_10447" data-name="Path 10447" d="M212.954,6206.748H110.643a1,1,0,0,0-1,1v179.226a1,1,0,0,0,1,1H212.954a1,1,0,0,0,1-1V6207.745A1,1,0,0,0,212.954,6206.748Zm0,180.223H110.643V6207.745H212.954Z" transform="translate(5.066 2.93)" fill="#2e7d32"/>
    <path id="Path_10448" data-name="Path 10448" d="M232.235,6331.928h-9.178a.5.5,0,1,0,0,1h9.178a.5.5,0,1,0,0-1Z" transform="translate(16.556 15.669)" fill="#2e7d32"/>
    <path id="Path_10449" data-name="Path 10449" d="M227.228,6335.21h-4.171a.5.5,0,1,0,0,1h4.171a.5.5,0,1,0,0-1Z" transform="translate(16.556 16.002)" fill="#2e7d32"/>
    <path id="Path_10450" data-name="Path 10450" d="M212.954,6206.748H110.643a1,1,0,0,0-1,1v179.226a1,1,0,0,0,1,1H212.954a1,1,0,0,0,1-1V6207.745A1,1,0,0,0,212.954,6206.748Zm0,180.223H110.643V6207.745H212.954Z" transform="translate(5.066 2.93)" fill="#2e7d32"/>
    <path id="Path_10451" data-name="Path 10451" d="M116.389,6310.471l-20.008-9.951c-5.011-2.473-12.525,1.473-16.782,8.8s-3.651,15.264,1.362,17.723l20.012,9.963c5.014,2.465,12.525-1.481,16.786-8.809S121.405,6312.937,116.389,6310.471Z" transform="translate(1.719 12.398)" fill="#fff"/>
    <path id="Path_10452" data-name="Path 10452" d="M116.923,6309.669l-20.006-9.951a8.372,8.372,0,0,0-3.744-.842,13.812,13.812,0,0,0-7.771,2.757,22.9,22.9,0,0,0-6.574,7.278c-2.74,4.713-3.655,9.905-2.448,13.888a8.26,8.26,0,0,0,4.23,5.231l20.011,9.962,0,0a8.384,8.384,0,0,0,3.734.836,13.826,13.826,0,0,0,7.774-2.758,22.958,22.958,0,0,0,6.58-7.282c2.737-4.711,3.65-9.9,2.445-13.885A8.282,8.282,0,0,0,116.923,6309.669Zm.929,18.621c-3.4,5.849-8.872,9.543-13.492,9.543a7.4,7.4,0,0,1-3.294-.733l-20.012-9.963c-5.013-2.459-5.621-10.4-1.362-17.723,3.4-5.846,8.865-9.539,13.482-9.539a7.389,7.389,0,0,1,3.3.737l20.008,9.952C121.5,6313.029,122.105,6320.966,117.852,6328.291Z" transform="translate(1.627 12.305)" fill="#2e7d32"/>
    <path id="Path_10453" data-name="Path 10453" d="M95.893,6316.677c-2.692,4.639-1.645,9.985,2.346,11.95l5.621,2.764c1.693-1.387,2.358-1.3,6.449-8.205,3.293-5.561,3.317-8.6,3.317-8.6l-5.622-2.76C104.012,6309.859,98.59,6312.032,95.893,6316.677Z" transform="translate(3.514 13.549)" fill="#e8f5e9"/>
    <path id="Path_10454" data-name="Path 10454" d="M114.157,6313.779l-5.622-2.761a8.165,8.165,0,0,0-3.634-.824,11.763,11.763,0,0,0-9.779,6.074,10.911,10.911,0,0,0-1.233,8.545,7.769,7.769,0,0,0,4,4.8l5.621,2.764a1,1,0,0,0,1.072-.124c.216-.176.42-.332.616-.482,1.354-1.034,2.424-1.852,6.06-7.985a29.034,29.034,0,0,0,2.995-6.622,10.136,10.136,0,0,0,.463-2.483A1,1,0,0,0,114.157,6313.779Zm-3.757,9.5c-4.091,6.9-4.755,6.818-6.449,8.206l-5.621-2.765c-3.991-1.964-5.037-7.311-2.346-11.95a10.76,10.76,0,0,1,8.917-5.577,7.2,7.2,0,0,1,3.194.721l5.622,2.76S113.694,6317.717,110.4,6323.278Z" transform="translate(3.422 13.456)" fill="#4caf50"/>
    <path id="Path_10455" data-name="Path 10455" d="M95.893,6316.616a10.379,10.379,0,0,0-1.451,6.171,11.48,11.48,0,0,0,5.6-4.917,10.366,10.366,0,0,0,1.451-6.17A11.489,11.489,0,0,0,95.893,6316.616Z" transform="translate(3.514 13.61)" fill="#fff"/>
    <path id="Path_10456" data-name="Path 10456" d="M111.907,6342.477,91.9,6332.525c-5.011-2.473-12.526,1.474-16.783,8.8s-3.65,15.265,1.363,17.726l20.012,9.961c5.014,2.465,12.524-1.481,16.785-8.81S116.923,6344.941,111.907,6342.477Z" transform="translate(1.263 15.654)" fill="#fff"/>
    <path id="Path_10457" data-name="Path 10457" d="M112.442,6341.675l-20.007-9.952a8.384,8.384,0,0,0-3.744-.842,13.821,13.821,0,0,0-7.771,2.756,22.92,22.92,0,0,0-6.575,7.279c-2.739,4.713-3.655,9.9-2.448,13.889a8.268,8.268,0,0,0,4.232,5.232L96.139,6370l0,0a8.381,8.381,0,0,0,3.734.836,13.832,13.832,0,0,0,7.774-2.757,22.947,22.947,0,0,0,6.58-7.282c2.737-4.711,3.65-9.9,2.445-13.884A8.278,8.278,0,0,0,112.442,6341.675Zm.927,18.62c-3.4,5.849-8.871,9.544-13.491,9.544a7.407,7.407,0,0,1-3.294-.735l-20.012-9.961c-5.013-2.461-5.622-10.4-1.363-17.726,3.4-5.844,8.866-9.539,13.483-9.539a7.39,7.39,0,0,1,3.3.738L112,6342.569C117.015,6345.033,117.624,6352.972,113.369,6360.295Z" transform="translate(1.171 15.562)" fill="#2e7d32"/>
    <path id="Path_10458" data-name="Path 10458" d="M107.114,6274.081l-7.753-4.194c-6.342-3.131-15.041.226-19.432,7.488s-2.813,15.68,3.53,18.8l7.76,4.206c6.344,3.125,15.039-.234,19.434-7.5S113.462,6277.206,107.114,6274.081Z" transform="translate(1.789 9.236)" fill="#fff"/>
    <path id="Path_10459" data-name="Path 10459" d="M111.467,6276.309a11.342,11.342,0,0,0-3.8-3.021l-7.737-4.186-.033-.018a12.593,12.593,0,0,0-5.626-1.276c-5.816,0-11.744,3.588-15.1,9.142a16.379,16.379,0,0,0-2.078,12.944,12.014,12.014,0,0,0,2.2,4.24,11.354,11.354,0,0,0,3.8,3.018l7.743,4.2.034.02a12.611,12.611,0,0,0,5.617,1.271c5.817,0,11.749-3.591,15.112-9.146a16.373,16.373,0,0,0,2.074-12.941A12.025,12.025,0,0,0,111.467,6276.309Zm-.722,16.667c-3.279,5.419-8.953,8.665-14.258,8.665a11.653,11.653,0,0,1-5.176-1.169l-7.76-4.205c-6.343-3.12-7.922-11.539-3.53-18.8,3.274-5.417,8.946-8.661,14.248-8.661a11.658,11.658,0,0,1,5.184,1.172l7.753,4.2C113.554,6277.3,115.132,6285.719,110.745,6292.976Z" transform="translate(1.697 9.144)" fill="#2e7d32"/>
    <path id="Path_10460" data-name="Path 10460" d="M92.46,6283.125c-2.639,4.665-2.1,9.761,1.209,11.387l4.66,2.288c1.556-1.455,2.123-1.42,6.122-8.367,3.22-5.6,3.45-8.54,3.45-8.54l-4.664-2.283C99.928,6275.985,95.1,6278.455,92.46,6283.125Z" transform="translate(3.146 10.09)" fill="#e0f4fc"/>
    <path id="Path_10461" data-name="Path 10461" d="M108.431,6279.089l-4.663-2.284a6.023,6.023,0,0,0-2.672-.6,9.208,9.208,0,0,0-5.179,1.8,14.347,14.347,0,0,0-4.234,4.722,14.061,14.061,0,0,0-1.668,4.683,9.772,9.772,0,0,0,.24,4.343,5.988,5.988,0,0,0,3.065,3.748l4.66,2.288a1,1,0,0,0,1.122-.167c.2-.186.386-.35.565-.509,1.277-1.125,2.2-1.938,5.74-8.088,3.294-5.728,3.569-8.83,3.579-8.959A1,1,0,0,0,108.431,6279.089Zm-3.888,9.436c-4,6.946-4.567,6.913-6.122,8.367l-4.66-2.288c-3.31-1.625-3.847-6.722-1.209-11.387,2.092-3.7,5.552-6.014,8.545-6.014a5.022,5.022,0,0,1,2.232.5l4.664,2.283S107.764,6282.927,104.543,6288.525Z" transform="translate(3.054 9.998)" fill="#2e7d32"/>
    <path id="Path_10462" data-name="Path 10462" d="M92.459,6283.066a11.825,11.825,0,0,0-1.647,6.573,12.559,12.559,0,0,0,5.683-5.373,11.836,11.836,0,0,0,1.648-6.573A12.556,12.556,0,0,0,92.459,6283.066Z" transform="translate(3.147 10.149)" fill="#fff"/>
    <path id="Path_10463" data-name="Path 10463" d="M90.087,6348.231c-2.693,4.639-1.646,9.987,2.346,11.951l5.62,2.763c1.695-1.386,2.359-1.3,6.45-8.2,3.293-5.562,3.317-8.6,3.317-8.6l-5.623-2.759C98.206,6341.415,92.784,6343.588,90.087,6348.231Z" transform="translate(2.923 16.76)" fill="#e8f5e9"/>
    <path id="Path_10464" data-name="Path 10464" d="M108.352,6345.333l-5.623-2.76a8.145,8.145,0,0,0-3.634-.824,11.762,11.762,0,0,0-9.778,6.074,10.9,10.9,0,0,0-1.233,8.544,7.763,7.763,0,0,0,4,4.8l5.621,2.765a1,1,0,0,0,1.072-.124c.216-.177.42-.332.616-.482,1.354-1.035,2.424-1.851,6.06-7.986a29.013,29.013,0,0,0,2.995-6.622,10.187,10.187,0,0,0,.463-2.483A1,1,0,0,0,108.352,6345.333Zm-3.757,9.5c-4.091,6.9-4.755,6.817-6.45,8.2l-5.62-2.763c-3.992-1.964-5.038-7.312-2.346-11.951a10.761,10.761,0,0,1,8.915-5.577,7.2,7.2,0,0,1,3.194.723l5.623,2.759S107.888,6349.271,104.595,6354.834Z" transform="translate(2.831 16.668)" fill="#4caf50"/>
    <path id="Path_10465" data-name="Path 10465" d="M90.087,6348.17a10.381,10.381,0,0,0-1.451,6.172,11.481,11.481,0,0,0,5.6-4.916,10.37,10.37,0,0,0,1.451-6.171A11.481,11.481,0,0,0,90.087,6348.17Z" transform="translate(2.923 16.821)" fill="#fff"/>
    <path id="Path_10466" data-name="Path 10466" d="M230.685,6290.588h0a21.661,21.661,0,0,0-21.661,21.661v43.69c-13.689,7.423-23.124,23.072-23.124,41.176a50.649,50.649,0,0,0,1.649,12.877l10.331,19.428,22.095-14.614a36.515,36.515,0,0,0,16.267-27.422v-91.238A5.559,5.559,0,0,0,230.685,6290.588Z" transform="translate(12.825 11.462)" fill="#fff"/>
    <path id="Path_10467" data-name="Path 10467" d="M230.731,6290.136a22.159,22.159,0,0,0-22.16,22.16v43.4a43.6,43.6,0,0,0-16.629,16.629,50,50,0,0,0-6.494,24.842,51.183,51.183,0,0,0,1.665,13,.5.5,0,0,0,.965-.253,50.17,50.17,0,0,1-1.633-12.751,48.993,48.993,0,0,1,6.363-24.345,42.549,42.549,0,0,1,16.5-16.393.5.5,0,0,0,.261-.439V6312.3a21.163,21.163,0,0,1,21.162-21.162,5.065,5.065,0,0,1,5.059,5.059v91.217a36.456,36.456,0,0,1-4.772,15.107,35.713,35.713,0,0,1-11.271,11.919l-22.1,14.614a.5.5,0,0,0,.551.833l22.095-14.615a36.681,36.681,0,0,0,11.583-12.248,37.449,37.449,0,0,0,4.906-15.546c0-.014,0-.028,0-.043v-91.238A6.063,6.063,0,0,0,230.731,6290.136Z" transform="translate(12.779 11.416)" fill="#2e7d32"/>
    <path id="Path_10468" data-name="Path 10468" d="M230.612,6296.825a9.1,9.1,0,0,0-9.1,9.1v9.492h11.11V6297.05a9.112,9.112,0,0,0-2.009-.225Z" transform="translate(16.449 12.096)" fill="#e8f5e9"/>
    <path id="Path_10469" data-name="Path 10469" d="M232.775,6296.608a9.6,9.6,0,0,0-11.718,9.363v9.492a.5.5,0,0,0,.5.5h11.11a.5.5,0,0,0,.5-.5V6297.1A.5.5,0,0,0,232.775,6296.608Zm-.608,18.356H222.055v-8.993a8.6,8.6,0,0,1,10.112-8.468Z" transform="translate(16.403 12.05)" fill="#4caf50"/>
    <path id="Path_10470" data-name="Path 10470" d="M231.64,6295.181a.5.5,0,0,0-.5.5V6318.5a.5.5,0,0,0,1,0V6295.68A.5.5,0,0,0,231.64,6295.181Z" transform="translate(17.429 11.929)" fill="#2e7d32"/>
    <path id="Path_10471" data-name="Path 10471" d="M152.093,6441.91a36.439,36.439,0,0,0,23.837-5.887l47.348-31.317a34.623,34.623,0,0,0,14.459-20.322l-80.926,52.927A16.507,16.507,0,0,0,152.093,6441.91Z" transform="translate(9.385 21.007)" fill="#e8f5e9"/>
    <path id="Path_10472" data-name="Path 10472" d="M160.735,6442.635a16.557,16.557,0,0,0-7.566,12.968h61.338l46.125-29.75-21.7-33.651Z" transform="translate(9.495 21.802)" fill="#fff"/>
    <path id="Path_10473" data-name="Path 10473" d="M160.735,6442.635a16.557,16.557,0,0,0-7.566,12.968h61.338l46.125-29.75-21.7-33.651Zm53.478,11.969H154.264a15.721,15.721,0,0,1,1.935-5.784,15.4,15.4,0,0,1,5.077-5.347l77.355-49.892,20.623,31.973Z" transform="translate(9.495 21.802)" fill="#2e7d32"/>
    <path id="Path_10474" data-name="Path 10474" d="M174.368,6454.521H287.847l-33.338-51.689Z" transform="translate(11.652 22.884)" fill="#4caf50"/>
    <path id="Path_10475" data-name="Path 10475" d="M174.368,6454.521H287.847l-33.338-51.689Zm3.387-1,76.456-49.311,31.806,49.311Z" transform="translate(11.652 22.884)" fill="#2e7d32"/>
    <circle id="Ellipse_319" data-name="Ellipse 319" cx="23.173" cy="23.173" r="23.173" transform="translate(168.735 6278.799)" fill="#fff"/>
    <path id="Path_10476" data-name="Path 10476" d="M182.173,6269.034a23.672,23.672,0,1,0-.548,47.34c.094,0,.187,0,.281,0a23.672,23.672,0,0,0,.267-47.342Zm15.573,39.887a22.516,22.516,0,0,1-15.84,6.457h-.27a22.675,22.675,0,0,1,.256-45.348h.27a22.675,22.675,0,0,1,15.584,38.891Z" transform="translate(10.009 9.268)" fill="#2e7d32"/>
    <rect id="Rectangle_265" data-name="Rectangle 265" width="7.661" height="3.648" transform="translate(188.078 6310.371)" fill="#a5d6a7"/>
    <path id="Path_10477" data-name="Path 10477" d="M183.943,6297.688h-7.661a.5.5,0,0,0-.5.5v3.648a.5.5,0,0,0,.5.5h7.661a.5.5,0,0,0,.5-.5v-3.648A.5.5,0,0,0,183.943,6297.688Zm-.5,3.647h-6.662v-2.651h6.662Z" transform="translate(11.796 12.184)" fill="#2e7d32"/>
    <circle id="Ellipse_320" data-name="Ellipse 320" cx="3.465" cy="3.465" r="3.465" transform="translate(173.122 6298.058)" fill="#a5d6a7"/>
    <path id="Path_10478" data-name="Path 10478" d="M166.173,6286.511a3.965,3.965,0,1,0,3.964,3.965A3.97,3.97,0,0,0,166.173,6286.511Zm0,6.932a2.967,2.967,0,1,1,2.966-2.966A2.97,2.97,0,0,1,166.173,6293.443Z" transform="translate(10.414 11.048)" fill="#2e7d32"/>
    <circle id="Ellipse_321" data-name="Ellipse 321" cx="3.465" cy="3.465" r="3.465" transform="translate(203.764 6298.058)" fill="#a5d6a7"/>
    <path id="Path_10479" data-name="Path 10479" d="M193.984,6286.511a3.965,3.965,0,1,0,3.965,3.965A3.97,3.97,0,0,0,193.984,6286.511Zm0,6.932a2.967,2.967,0,1,1,2.967-2.966A2.97,2.97,0,0,1,193.984,6293.443Z" transform="translate(13.245 11.048)" fill="#2e7d32"/>
    <rect id="Rectangle_266" data-name="Rectangle 266" width="30.827" height="17.694" rx="3.49" transform="translate(176.494 6292.676)" fill="#a5d6a7"/>
    <path id="Path_10480" data-name="Path 10480" d="M192.751,6281.628H169.613a4.348,4.348,0,0,0-4.343,4.344v10a4.347,4.347,0,0,0,4.343,4.343h23.138a4.347,4.347,0,0,0,4.343-4.343v-10A4.348,4.348,0,0,0,192.751,6281.628Zm3.346,14.348a3.35,3.35,0,0,1-3.346,3.346H169.613a3.35,3.35,0,0,1-3.346-3.346v-10a3.349,3.349,0,0,1,3.346-3.345h23.138a3.349,3.349,0,0,1,3.346,3.345Z" transform="translate(10.726 10.55)" fill="#2e7d32"/>
    <path id="Path_10481" data-name="Path 10481" d="M170.608,6283.568a3.194,3.194,0,0,0-3.191,3.19v3.125a.522.522,0,1,0,1.044,0v-3.125a2.149,2.149,0,0,1,2.146-2.146.522.522,0,1,0,0-1.044Z" transform="translate(10.944 10.747)" fill="#fff"/>
    <path id="Path_10482" data-name="Path 10482" d="M179.758,6271.529a.5.5,0,0,0-.5.5v3.539a.5.5,0,1,0,1,0v-3.539A.5.5,0,0,0,179.758,6271.529Z" transform="translate(12.15 9.522)" fill="#2e7d32"/>
    <path id="Path_10483" data-name="Path 10483" d="M187.133,6278.576h-3.539a.5.5,0,1,0,0,1h3.539a.5.5,0,0,0,0-1Z" transform="translate(12.54 10.24)" fill="#2e7d32"/>
    <path id="Path_10484" data-name="Path 10484" d="M176.25,6278.576h-3.539a.5.5,0,0,0,0,1h3.539a.5.5,0,1,0,0-1Z" transform="translate(11.432 10.24)" fill="#2e7d32"/>
    <path id="Path_10485" data-name="Path 10485" d="M184.62,6273.738l-2.5,2.5a.5.5,0,0,0,.706.707l2.5-2.5a.5.5,0,1,0-.706-.706Z" transform="translate(12.425 9.732)" fill="#2e7d32"/>
    <path id="Path_10486" data-name="Path 10486" d="M175.129,6273.738a.5.5,0,1,0-.706.706l2.5,2.5a.5.5,0,0,0,.706-.707Z" transform="translate(11.642 9.732)" fill="#2e7d32"/>
    <circle id="Ellipse_322" data-name="Ellipse 322" cx="2.857" cy="2.857" r="2.857" transform="translate(182.004 6296.816) rotate(-5.655)" fill="#fff"/>
    <path id="Path_10487" data-name="Path 10487" d="M173.87,6285.117a3.356,3.356,0,1,0,3.356,3.355A3.361,3.361,0,0,0,173.87,6285.117Zm0,5.715a2.359,2.359,0,1,1,2.358-2.359A2.361,2.361,0,0,1,173.87,6290.832Z" transform="translate(11.259 10.905)" fill="#2e7d32"/>
    <circle id="Ellipse_323" data-name="Ellipse 323" cx="2.857" cy="2.857" r="2.857" transform="translate(195.829 6296.521)" fill="#fff"/>
    <path id="Path_10488" data-name="Path 10488" d="M186.175,6285.117a3.356,3.356,0,1,0,3.357,3.355A3.36,3.36,0,0,0,186.175,6285.117Zm0,5.715a2.359,2.359,0,1,1,2.359-2.359A2.362,2.362,0,0,1,186.175,6290.832Z" transform="translate(12.512 10.905)" fill="#2e7d32"/>
    <path id="Path_10489" data-name="Path 10489" d="M185.967,6287.164a1.1,1.1,0,1,0,1.1,1.1A1.1,1.1,0,0,0,185.967,6287.164Z" transform="translate(12.72 11.113)" fill="#2e7d32"/>
    <circle id="Ellipse_324" data-name="Ellipse 324" cx="1.101" cy="1.101" r="1.101" transform="translate(184.028 6298.277)" fill="#2e7d32"/>
    <path id="Path_10490" data-name="Path 10490" d="M185.83,6293.862c-.665.47-2.682.976-5.534.976s-4.868-.506-5.533-.976a.5.5,0,0,0-.576.815c1,.7,3.4,1.158,6.109,1.158s5.112-.454,6.109-1.158a.5.5,0,1,0-.575-.815Z" transform="translate(11.612 11.786)" fill="#2e7d32"/>
    <path id="Path_10491" data-name="Path 10491" d="M188.994,6301.451H173a5.926,5.926,0,0,0-5.9,6.5,23.173,23.173,0,0,0,27.787,0A5.926,5.926,0,0,0,188.994,6301.451Z" transform="translate(10.91 12.567)" fill="#a5d6a7"/>
    <path id="Path_10492" data-name="Path 10492" d="M189.04,6301H173.048a6.423,6.423,0,0,0-6.394,7.048.5.5,0,0,0,.2.35,23.5,23.5,0,0,0,13.92,4.726h.283a23.439,23.439,0,0,0,14.183-4.728.493.493,0,0,0,.2-.349A6.425,6.425,0,0,0,189.04,6301Zm5.9,7Zm-.48-.266a22.44,22.44,0,0,1-13.4,4.394h-.272a22.5,22.5,0,0,1-13.152-4.392,5.436,5.436,0,0,1,1.4-3.956,5.365,5.365,0,0,1,4.02-1.781H189.04a5.365,5.365,0,0,1,4.02,1.781A5.434,5.434,0,0,1,194.458,6307.731Z" transform="translate(10.864 12.521)" fill="#2e7d32"/>
    <path id="Path_10493" data-name="Path 10493" d="M179.758,6279.726a.5.5,0,0,0-.5.5v2.049a.5.5,0,1,0,1,0v-2.049A.5.5,0,0,0,179.758,6279.726Z" transform="translate(12.15 10.356)" fill="#2e7d32"/>
    <circle id="Ellipse_325" data-name="Ellipse 325" cx="1.459" cy="1.459" r="1.459" transform="translate(190.449 6287.663)" fill="#a5d6a7"/>
    <path id="Path_10494" data-name="Path 10494" d="M179.893,6277.077a1.958,1.958,0,1,0,1.959,1.958A1.961,1.961,0,0,0,179.893,6277.077Zm0,2.918a.961.961,0,1,1,.961-.96A.961.961,0,0,1,179.893,6280Z" transform="translate(12.015 10.087)" fill="#2e7d32"/>
    <path id="Path_10495" data-name="Path 10495" d="M268.977,6223.753H175.135a2.552,2.552,0,0,0-2.552,2.551v19.764a2.552,2.552,0,0,0,2.552,2.552h8.078v8.968l8.968-8.968h76.8a2.552,2.552,0,0,0,2.552-2.552V6226.3A2.552,2.552,0,0,0,268.977,6223.753Z" transform="translate(11.47 4.66)" fill="#fff"/>
    <path id="Path_10496" data-name="Path 10496" d="M269.069,6222.847H175.227a3.553,3.553,0,0,0-3.549,3.55v19.764a3.553,3.553,0,0,0,3.549,3.549h7.081v7.971a1,1,0,0,0,.616.921.985.985,0,0,0,.381.076,1,1,0,0,0,.706-.292l8.675-8.676h76.383a3.553,3.553,0,0,0,3.549-3.549V6226.4A3.553,3.553,0,0,0,269.069,6222.847Zm2.552,23.313a2.552,2.552,0,0,1-2.552,2.552h-76.8l-8.968,8.968v-8.968h-8.078a2.552,2.552,0,0,1-2.552-2.552V6226.4a2.552,2.552,0,0,1,2.552-2.552h93.842a2.552,2.552,0,0,1,2.552,2.552Z" transform="translate(11.378 4.569)" fill="#2e7d32"/>
    <path id="Path_10497" data-name="Path 10497" d="M263.248,6229.693h-83.7a.5.5,0,1,0,0,1h83.7a.5.5,0,1,0,0-1Z" transform="translate(12.128 5.265)" fill="#2e7d32"/>
    <path id="Path_10498" data-name="Path 10498" d="M263.248,6235h-83.7a.5.5,0,1,0,0,1h83.7a.5.5,0,1,0,0-1Z" transform="translate(12.128 5.805)" fill="#2e7d32"/>
    <path id="Path_10499" data-name="Path 10499" d="M263.248,6235h-83.7a.5.5,0,1,0,0,1h83.7a.5.5,0,1,0,0-1Z" transform="translate(12.128 5.805)" fill="#2e7d32"/>
    <path id="Path_10500" data-name="Path 10500" d="M189.273,6240.3h-9.725a.5.5,0,1,0,0,1h9.725a.5.5,0,1,0,0-1Z" transform="translate(12.128 6.345)" fill="#2e7d32"/>
    <path id="Path_10501" data-name="Path 10501" d="M157.165,6275.163H63.323a2.552,2.552,0,0,0-2.552,2.551v19.765a2.551,2.551,0,0,0,2.552,2.55h76.8l8.967,8.968v-8.968h8.079a2.551,2.551,0,0,0,2.552-2.55v-19.765A2.552,2.552,0,0,0,157.165,6275.163Z" transform="translate(0.092 9.892)" fill="#a5d6a7"/>
    <path id="Path_10502" data-name="Path 10502" d="M157.257,6274.257H63.415a3.553,3.553,0,0,0-3.549,3.549v19.765a3.554,3.554,0,0,0,3.549,3.549H139.8l8.675,8.675a1,1,0,0,0,1.7-.706v-7.969h7.081a3.554,3.554,0,0,0,3.549-3.549v-19.765A3.553,3.553,0,0,0,157.257,6274.257Zm2.552,23.313a2.551,2.551,0,0,1-2.552,2.55h-8.079v8.968l-8.967-8.968h-76.8a2.551,2.551,0,0,1-2.552-2.55v-19.765a2.552,2.552,0,0,1,2.552-2.551h93.842a2.552,2.552,0,0,1,2.552,2.551Z" transform="translate(0 9.8)" fill="#2e7d32"/>
    <path id="Path_10503" data-name="Path 10503" d="M151.436,6281.1h-83.7a.5.5,0,0,0,0,1h83.7a.5.5,0,0,0,0-1Z" transform="translate(0.75 10.497)" fill="#2e7d32"/>
    <path id="Path_10504" data-name="Path 10504" d="M151.436,6286.408h-83.7a.5.5,0,1,0,0,1h83.7a.5.5,0,1,0,0-1Z" transform="translate(0.75 11.036)" fill="#2e7d32"/>
    <path id="Path_10505" data-name="Path 10505" d="M151.436,6286.408h-83.7a.5.5,0,1,0,0,1h83.7a.5.5,0,1,0,0-1Z" transform="translate(0.75 11.036)" fill="#2e7d32"/>
    <path id="Path_10506" data-name="Path 10506" d="M89.057,6291.711H67.736a.5.5,0,1,0,0,1H89.057a.5.5,0,1,0,0-1Z" transform="translate(0.75 11.576)" fill="#2e7d32"/>
    <circle id="Ellipse_326" data-name="Ellipse 326" cx="23.173" cy="23.173" r="23.173" transform="translate(123.451 6222.157)" fill="#fff"/>
    <path id="Path_10507" data-name="Path 10507" d="M141.071,6217.624a23.672,23.672,0,0,0-.548,47.34l.282,0a23.673,23.673,0,0,0,23.663-23.4l-.5-.006.5.006a23.671,23.671,0,0,0-23.4-23.943Zm15.573,39.888a22.674,22.674,0,1,1-15.854-38.893h.27a22.675,22.675,0,0,1,15.584,38.892Z" transform="translate(5.827 4.036)" fill="#2e7d32"/>
    <path id="Path_10508" data-name="Path 10508" d="M143.778,6252.593v-5.749h-8.951v5.749c0,2.337-2.251,4.23-5.028,4.23h19.006C146.029,6256.824,143.778,6254.93,143.778,6252.593Z" transform="translate(7.116 7.01)" fill="#fff"/>
    <path id="Path_10509" data-name="Path 10509" d="M148.851,6256.371c-2.5,0-4.528-1.673-4.528-3.731v-5.749a.5.5,0,0,0-.5-.5h-8.951a.5.5,0,0,0-.5.5v5.749c0,2.059-2.032,3.731-4.529,3.731a.5.5,0,0,0,0,1h19.006a.5.5,0,0,0,0-1Zm-15.614,0a4.522,4.522,0,0,0,2.134-3.731v-5.25h7.954v5.25a4.521,4.521,0,0,0,2.135,3.731Z" transform="translate(7.07 6.964)" fill="#2e7d32"/>
    <path id="Path_10510" data-name="Path 10510" d="M132.216,6254.035a24.221,24.221,0,0,0-7.288,1.152,23.172,23.172,0,0,0,30.054.083,13.67,13.67,0,0,0-5.8-1.235Z" transform="translate(6.621 7.742)" fill="#a5d6a7"/>
    <path id="Path_10511" data-name="Path 10511" d="M155.235,6254.863a14.164,14.164,0,0,0-6-1.281h-16.97a24.7,24.7,0,0,0-7.44,1.177.5.5,0,0,0-.172.854,23.573,23.573,0,0,0,15.125,5.693h.274a23.663,23.663,0,0,0,15.3-5.609.5.5,0,0,0-.116-.834Zm-15.448,5.445a22.575,22.575,0,0,1-13.773-4.865,23.633,23.633,0,0,1,6.248-.863h16.97a13.241,13.241,0,0,1,4.838.875A22.67,22.67,0,0,1,139.787,6260.308Z" transform="translate(6.575 7.696)" fill="#2e7d32"/>
    <path id="Path_10512" data-name="Path 10512" d="M146.249,6224.245H132.69a4.381,4.381,0,0,0-4.382,4.382v13.64h22.324v-13.64A4.382,4.382,0,0,0,146.249,6224.245Z" transform="translate(6.965 4.71)" fill="#a5d6a7"/>
    <path id="Path_10513" data-name="Path 10513" d="M146.3,6223.792H132.736a4.886,4.886,0,0,0-4.881,4.881v13.64a.5.5,0,0,0,.5.5h22.324a.5.5,0,0,0,.5-.5v-13.64A4.886,4.886,0,0,0,146.3,6223.792Zm3.884,18.022H128.852v-13.142a3.888,3.888,0,0,1,3.884-3.883H146.3a3.887,3.887,0,0,1,3.884,3.883Z" transform="translate(6.919 4.664)" fill="#2e7d32"/>
    <path id="Path_10514" data-name="Path 10514" d="M132.261,6235.5h-2.818a1.961,1.961,0,0,0-2.036,2.1l.548,3.293a2.147,2.147,0,0,0,2.036,2.1h2.818a.223.223,0,0,0,.219-.227l-.548-7.037A.223.223,0,0,0,132.261,6235.5Z" transform="translate(6.871 5.856)" fill="#fff"/>
    <path id="Path_10515" data-name="Path 10515" d="M133.024,6235.746a.721.721,0,0,0-.717-.7h-2.818a2.668,2.668,0,0,0-1.984.891,2.219,2.219,0,0,0-.546,1.771l0,.017.548,3.288a2.635,2.635,0,0,0,2.529,2.521h2.818a.723.723,0,0,0,.718-.726v-.039Zm-2.988,6.789c-.3,0-1.317-.12-1.542-1.672v-.01l-.546-3.283a1.215,1.215,0,0,1,.309-.975,1.657,1.657,0,0,1,1.234-.552h2.558l.506,6.492Z" transform="translate(6.825 5.809)" fill="#2e7d32"/>
    <path id="Path_10516" data-name="Path 10516" d="M147.955,6235.5h-2.817a.224.224,0,0,0-.22.227l-.548,7.037a.223.223,0,0,0,.219.227h2.818a2.147,2.147,0,0,0,2.036-2.1l.548-3.293A1.961,1.961,0,0,0,147.955,6235.5Z" transform="translate(8.599 5.856)" fill="#fff"/>
    <path id="Path_10517" data-name="Path 10517" d="M148,6235.045h-2.817a.722.722,0,0,0-.718.7l-.548,7.022v.039a.724.724,0,0,0,.718.726h2.818a2.635,2.635,0,0,0,2.529-2.522l.548-3.287,0-.017a2.211,2.211,0,0,0-.546-1.771A2.668,2.668,0,0,0,148,6235.045Zm1.542,2.524-.546,3.283v.01c-.226,1.552-1.238,1.672-1.542,1.672h-2.516l.506-6.492H148a1.657,1.657,0,0,1,1.234.552A1.215,1.215,0,0,1,149.544,6237.569Z" transform="translate(8.553 5.809)" fill="#2e7d32"/>
    <path id="Path_10518" data-name="Path 10518" d="M144.381,6228.262H134.231a4.317,4.317,0,0,0-4.317,4.317v9.811c0,5.734,4.144,10.927,9.207,10.927h.37c5.064,0,9.206-5.193,9.206-10.927v-9.811h0A4.317,4.317,0,0,0,144.381,6228.262Z" transform="translate(7.128 5.12)" fill="#fff"/>
    <path id="Path_10519" data-name="Path 10519" d="M144.427,6227.809H134.277a4.821,4.821,0,0,0-4.816,4.816v9.811a12.621,12.621,0,0,0,2.819,7.932,8.96,8.96,0,0,0,6.887,3.495h.37a8.958,8.958,0,0,0,6.886-3.495,12.621,12.621,0,0,0,2.819-7.932v-9.811A4.821,4.821,0,0,0,144.427,6227.809Zm3.818,14.626a11.612,11.612,0,0,1-2.589,7.3,7.982,7.982,0,0,1-6.118,3.132h-.37a7.978,7.978,0,0,1-6.118-3.132,11.606,11.606,0,0,1-2.59-7.3v-9.811a3.824,3.824,0,0,1,3.818-3.819h10.151a3.823,3.823,0,0,1,3.818,3.819Z" transform="translate(7.082 5.073)" fill="#2e7d32"/>
    <path id="Path_10520" data-name="Path 10520" d="M138.567,6247.08h.237a4.9,4.9,0,0,0,2.284-.575l-5.073-.151A4.953,4.953,0,0,0,138.567,6247.08Z" transform="translate(7.749 6.961)" fill="#a5d6a7"/>
    <path id="Path_10521" data-name="Path 10521" d="M140.9,6246.107a4.382,4.382,0,0,1-2.053.52h-.237a4.44,4.44,0,0,1-2.3-.655.5.5,0,1,0-.511.856,5.411,5.411,0,0,0,2.807.8h.237a5.372,5.372,0,0,0,2.515-.633.5.5,0,0,0-.463-.885Z" transform="translate(7.703 6.914)" fill="#2e7d32"/>
    <path id="Path_10522" data-name="Path 10522" d="M134.152,6238.567h0a.881.881,0,0,0-.879.878h0a.882.882,0,0,0,.879.88h0a.881.881,0,0,0,.878-.88h0A.88.88,0,0,0,134.152,6238.567Z" transform="translate(7.47 6.168)" fill="#2e7d32"/>
    <path id="Path_10523" data-name="Path 10523" d="M142.887,6238.567h0a.881.881,0,0,0-.878.878h0a.882.882,0,0,0,.878.88h0a.882.882,0,0,0,.879-.88h0A.881.881,0,0,0,142.887,6238.567Z" transform="translate(8.359 6.168)" fill="#2e7d32"/>
    <path id="Path_10524" data-name="Path 10524" d="M138.561,6244.656a1.318,1.318,0,0,0,1.318-1.317v-6.459l-2.636,6.459A1.318,1.318,0,0,0,138.561,6244.656Z" transform="translate(7.874 5.996)" fill="#fff"/>
    <path id="Path_10525" data-name="Path 10525" d="M139.925,6236.427a.5.5,0,0,0-.5.5v6.459a.819.819,0,1,1-1.638,0,.5.5,0,0,0-1,0,1.817,1.817,0,0,0,3.635,0v-6.459A.5.5,0,0,0,139.925,6236.427Z" transform="translate(7.828 5.95)" fill="#2e7d32"/>
    <path id="Path_10526" data-name="Path 10526" d="M135.664,6235.671h-3.2a.522.522,0,0,0,0,1.045h3.2a.522.522,0,0,0,0-1.045Z" transform="translate(7.334 5.873)" fill="#a5d6a7"/>
    <path id="Path_10527" data-name="Path 10527" d="M144.807,6235.671h-3.2a.522.522,0,1,0,0,1.045h3.2a.522.522,0,0,0,0-1.045Z" transform="translate(8.265 5.873)" fill="#a5d6a7"/>
    <path id="Path_10528" data-name="Path 10528" d="M144.454,6223H133.262s-.447,5.8,4.41,5.8H142.7c3.326,0,5.654,2.664,5.654,4.317l1.771.041v-4.4A5.889,5.889,0,0,0,144.454,6223Z" transform="translate(7.468 4.583)" fill="#a5d6a7"/>
    <path id="Path_10529" data-name="Path 10529" d="M144.5,6222.545H133.308a.5.5,0,0,0-.5.46c-.009.127-.219,3.125,1.483,4.963a4.462,4.462,0,0,0,3.425,1.373h5.032a5.694,5.694,0,0,1,3.746,1.416,3.68,3.68,0,0,1,1.409,2.4.5.5,0,0,0,1,0,4.605,4.605,0,0,0-1.751-3.155,6.7,6.7,0,0,0-4.4-1.661h-5.032a3.505,3.505,0,0,1-2.689-1.05,5.916,5.916,0,0,1-1.232-3.751h10.7a5.463,5.463,0,0,1,3.688,1.656,4.981,4.981,0,0,1,1.488,3.6v4.4a.5.5,0,1,0,1,0v-4.4a5.956,5.956,0,0,0-1.778-4.307A6.494,6.494,0,0,0,144.5,6222.545Z" transform="translate(7.422 4.537)" fill="#2e7d32"/>
    <circle id="Ellipse_327" data-name="Ellipse 327" cx="1.224" cy="1.224" r="1.224" transform="translate(139.457 6248.617)" fill="#a5d6a7"/>
    <path id="Path_10530" data-name="Path 10530" d="M143.774,6242.091a1.224,1.224,0,1,0,1.224,1.224A1.224,1.224,0,0,0,143.774,6242.091Z" transform="translate(8.414 6.526)" fill="#a5d6a7"/>
    <path id="Path_10531" data-name="Path 10531" d="M268.977,6326.574H175.135a2.552,2.552,0,0,0-2.552,2.552v19.763a2.552,2.552,0,0,0,2.552,2.552h8.078v8.968l8.968-8.968h76.8a2.552,2.552,0,0,0,2.552-2.552v-19.763A2.552,2.552,0,0,0,268.977,6326.574Z" transform="translate(11.47 15.124)" fill="#4caf50"/>
    <path id="Path_10532" data-name="Path 10532" d="M269.069,6325.667H175.227a3.553,3.553,0,0,0-3.549,3.551v19.764a3.553,3.553,0,0,0,3.549,3.548h7.081v7.972a1,1,0,0,0,.616.921.985.985,0,0,0,.381.076,1,1,0,0,0,.706-.292l8.675-8.677h76.383a3.553,3.553,0,0,0,3.549-3.548v-19.764A3.553,3.553,0,0,0,269.069,6325.667Zm2.552,23.314a2.552,2.552,0,0,1-2.552,2.551h-76.8L183.3,6360.5v-8.969h-8.078a2.552,2.552,0,0,1-2.552-2.551v-19.764a2.552,2.552,0,0,1,2.552-2.552h93.842a2.552,2.552,0,0,1,2.552,2.552Z" transform="translate(11.378 15.032)" fill="#2e7d32"/>
    <path id="Path_10533" data-name="Path 10533" d="M263.248,6332.515h-83.7a.5.5,0,1,0,0,1h83.7a.5.5,0,1,0,0-1Z" transform="translate(12.128 15.728)" fill="#2e7d32"/>
    <line id="Line_14" data-name="Line 14" x1="83.7" transform="translate(191.676 6354.584)" fill="#a5d6a7"/>
    <path id="Path_10534" data-name="Path 10534" d="M263.248,6337.818h-83.7a.5.5,0,1,0,0,1h83.7a.5.5,0,1,0,0-1Z" transform="translate(12.128 16.267)" fill="#2e7d32"/>
    <path id="Path_10535" data-name="Path 10535" d="M263.248,6337.818h-83.7a.5.5,0,1,0,0,1h83.7a.5.5,0,1,0,0-1Z" transform="translate(12.128 16.267)" fill="#2e7d32"/>
    <path id="Path_10536" data-name="Path 10536" d="M189.273,6343.122h-9.725a.5.5,0,1,0,0,1h9.725a.5.5,0,1,0,0-1Z" transform="translate(12.128 16.807)" fill="#2e7d32"/>
    <circle id="Ellipse_328" data-name="Ellipse 328" cx="23.173" cy="23.173" r="23.173" transform="translate(123.451 6335.441)" fill="#fff"/>
    <path id="Path_10537" data-name="Path 10537" d="M141.071,6320.444a23.672,23.672,0,0,0-.548,47.341h.282a23.672,23.672,0,0,0,23.663-23.4l-.5-.005.5.005a23.673,23.673,0,0,0-23.4-23.944Zm15.573,39.888a22.518,22.518,0,0,1-15.84,6.457h-.269a22.674,22.674,0,0,1,.255-45.347h.27a22.674,22.674,0,0,1,15.584,38.89Z" transform="translate(5.827 14.499)" fill="#2e7d32"/>
    <path id="Path_10538" data-name="Path 10538" d="M143.778,6355.413v-5.748h-8.951v5.748c0,2.337-2.251,4.231-5.028,4.231h19.006C146.029,6359.645,143.778,6357.75,143.778,6355.413Z" transform="translate(7.116 17.473)" fill="#fff"/>
    <path id="Path_10539" data-name="Path 10539" d="M148.851,6359.192c-2.5,0-4.528-1.674-4.528-3.732v-5.749a.5.5,0,0,0-.5-.5h-8.951a.5.5,0,0,0-.5.5v5.749c0,2.059-2.032,3.732-4.529,3.732a.5.5,0,0,0,0,1h19.006a.5.5,0,1,0,0-1Zm-15.614,0a4.524,4.524,0,0,0,2.134-3.732v-5.249h7.954v5.249a4.522,4.522,0,0,0,2.135,3.732Z" transform="translate(7.07 17.427)" fill="#2e7d32"/>
    <path id="Path_10540" data-name="Path 10540" d="M132.216,6356.855a24.236,24.236,0,0,0-7.288,1.152,23.173,23.173,0,0,0,30.054.083,13.669,13.669,0,0,0-5.8-1.235Z" transform="translate(6.621 18.205)" fill="#a5d6a7"/>
    <path id="Path_10541" data-name="Path 10541" d="M155.235,6357.684a14.15,14.15,0,0,0-6-1.281h-16.97a24.69,24.69,0,0,0-7.44,1.177.5.5,0,0,0-.172.853,23.567,23.567,0,0,0,15.125,5.694h.274a23.665,23.665,0,0,0,15.3-5.609.5.5,0,0,0-.116-.834Zm-15.186,5.446h-.262a22.575,22.575,0,0,1-13.773-4.865,23.635,23.635,0,0,1,6.248-.862h16.97a13.241,13.241,0,0,1,4.838.875A22.663,22.663,0,0,1,140.049,6363.13Z" transform="translate(6.575 18.159)" fill="#2e7d32"/>
    <path id="Path_10542" data-name="Path 10542" d="M146.249,6327.065H132.69a4.382,4.382,0,0,0-4.382,4.382v13.64h22.324v-13.64A4.383,4.383,0,0,0,146.249,6327.065Z" transform="translate(6.965 15.174)" fill="#a5d6a7"/>
    <path id="Path_10543" data-name="Path 10543" d="M146.3,6326.613H132.736a4.887,4.887,0,0,0-4.881,4.881v13.639a.5.5,0,0,0,.5.5h22.324a.5.5,0,0,0,.5-.5v-13.639A4.887,4.887,0,0,0,146.3,6326.613Zm3.884,18.023H128.852v-13.142a3.888,3.888,0,0,1,3.884-3.883H146.3a3.888,3.888,0,0,1,3.884,3.883Z" transform="translate(6.919 15.127)" fill="#2e7d32"/>
    <path id="Path_10544" data-name="Path 10544" d="M132.261,6338.318h-2.818a1.961,1.961,0,0,0-2.036,2.1l.548,3.29a2.148,2.148,0,0,0,2.036,2.1h2.818a.223.223,0,0,0,.219-.227l-.548-7.037A.223.223,0,0,0,132.261,6338.318Z" transform="translate(6.871 16.318)" fill="#fff"/>
    <path id="Path_10545" data-name="Path 10545" d="M133.024,6338.565a.721.721,0,0,0-.717-.7h-2.818a2.667,2.667,0,0,0-1.984.891,2.219,2.219,0,0,0-.546,1.771l0,.017.548,3.287a2.634,2.634,0,0,0,2.529,2.521h2.818a.722.722,0,0,0,.718-.725v-.039Zm-2.988,6.791c-.3,0-1.317-.12-1.542-1.673v-.009l-.546-3.283a1.218,1.218,0,0,1,.309-.976,1.659,1.659,0,0,1,1.234-.552h2.558l.506,6.493Z" transform="translate(6.825 16.272)" fill="#2e7d32"/>
    <path id="Path_10546" data-name="Path 10546" d="M147.955,6338.318h-2.817a.224.224,0,0,0-.22.227l-.548,7.037a.223.223,0,0,0,.219.227h2.818a2.148,2.148,0,0,0,2.036-2.1l.548-3.29A1.961,1.961,0,0,0,147.955,6338.318Z" transform="translate(8.599 16.318)" fill="#fff"/>
    <path id="Path_10547" data-name="Path 10547" d="M148,6337.866h-2.817a.722.722,0,0,0-.718.7l-.548,7.023v.039a.723.723,0,0,0,.718.725h2.818a2.633,2.633,0,0,0,2.529-2.521l.548-3.287,0-.017a2.211,2.211,0,0,0-.546-1.771A2.666,2.666,0,0,0,148,6337.866Zm1.542,2.524-.546,3.283v.009c-.226,1.553-1.238,1.673-1.542,1.673h-2.516l.506-6.493H148a1.659,1.659,0,0,1,1.234.552A1.218,1.218,0,0,1,149.544,6340.391Z" transform="translate(8.553 16.272)" fill="#2e7d32"/>
    <path id="Path_10548" data-name="Path 10548" d="M144.381,6331.083H134.231a4.317,4.317,0,0,0-4.317,4.317v9.811c0,5.734,4.144,10.928,9.207,10.928h.37c5.064,0,9.206-5.194,9.206-10.928V6335.4h0A4.317,4.317,0,0,0,144.381,6331.083Z" transform="translate(7.128 15.582)" fill="#fff"/>
    <path id="Path_10549" data-name="Path 10549" d="M144.427,6330.63H134.277a4.821,4.821,0,0,0-4.816,4.816v9.811a12.62,12.62,0,0,0,2.819,7.932,8.961,8.961,0,0,0,6.887,3.495h.37a8.959,8.959,0,0,0,6.886-3.495,12.62,12.62,0,0,0,2.819-7.932v-9.811A4.821,4.821,0,0,0,144.427,6330.63Zm3.818,14.626a11.609,11.609,0,0,1-2.589,7.3,7.983,7.983,0,0,1-6.118,3.133h-.37a7.98,7.98,0,0,1-6.118-3.133,11.6,11.6,0,0,1-2.59-7.3v-9.811a3.823,3.823,0,0,1,3.818-3.819h10.151a3.822,3.822,0,0,1,3.818,3.819Z" transform="translate(7.082 15.536)" fill="#2e7d32"/>
    <path id="Path_10550" data-name="Path 10550" d="M138.567,6349.9h.237a4.89,4.89,0,0,0,2.284-.576l-5.073-.15A4.948,4.948,0,0,0,138.567,6349.9Z" transform="translate(7.749 17.423)" fill="#a5d6a7"/>
    <path id="Path_10551" data-name="Path 10551" d="M140.9,6348.929a4.381,4.381,0,0,1-2.053.519h-.237a4.435,4.435,0,0,1-2.3-.654.5.5,0,1,0-.511.856,5.412,5.412,0,0,0,2.807.8h.237a5.372,5.372,0,0,0,2.515-.633.5.5,0,1,0-.463-.884Z" transform="translate(7.703 17.378)" fill="#2e7d32"/>
    <path id="Path_10552" data-name="Path 10552" d="M134.152,6341.388h0a.878.878,0,1,0,0,1.757h0a.878.878,0,0,0,0-1.757Z" transform="translate(7.47 16.631)" fill="#2e7d32"/>
    <path id="Path_10553" data-name="Path 10553" d="M142.887,6341.388h0a.878.878,0,0,0,0,1.757h0a.878.878,0,1,0,0-1.757Z" transform="translate(8.359 16.631)" fill="#2e7d32"/>
    <path id="Path_10554" data-name="Path 10554" d="M138.561,6347.477a1.318,1.318,0,0,0,1.318-1.318V6339.7l-2.636,6.458A1.318,1.318,0,0,0,138.561,6347.477Z" transform="translate(7.874 16.459)" fill="#fff"/>
    <path id="Path_10555" data-name="Path 10555" d="M139.925,6339.248a.5.5,0,0,0-.5.5v6.458a.819.819,0,1,1-1.638,0,.5.5,0,0,0-1,0,1.817,1.817,0,0,0,3.635,0v-6.458A.5.5,0,0,0,139.925,6339.248Z" transform="translate(7.828 16.413)" fill="#2e7d32"/>
    <path id="Path_10556" data-name="Path 10556" d="M135.664,6338.492h-3.2a.522.522,0,1,0,0,1.044h3.2a.522.522,0,1,0,0-1.044Z" transform="translate(7.334 16.336)" fill="#a5d6a7"/>
    <path id="Path_10557" data-name="Path 10557" d="M144.807,6338.492h-3.2a.522.522,0,1,0,0,1.044h3.2a.522.522,0,1,0,0-1.044Z" transform="translate(8.265 16.336)" fill="#a5d6a7"/>
    <path id="Path_10558" data-name="Path 10558" d="M144.454,6325.818H133.262s-.447,5.8,4.41,5.8H142.7c3.326,0,5.654,2.665,5.654,4.317l1.771.042v-4.4A5.89,5.89,0,0,0,144.454,6325.818Z" transform="translate(7.468 15.047)" fill="#a5d6a7"/>
    <path id="Path_10559" data-name="Path 10559" d="M144.5,6325.366H133.308a.5.5,0,0,0-.5.46c-.009.127-.219,3.125,1.483,4.963a4.461,4.461,0,0,0,3.425,1.373h5.032a5.7,5.7,0,0,1,3.746,1.416,3.681,3.681,0,0,1,1.409,2.4.5.5,0,0,0,1,0,4.606,4.606,0,0,0-1.751-3.154,6.7,6.7,0,0,0-4.4-1.662h-5.032a3.5,3.5,0,0,1-2.689-1.05,5.914,5.914,0,0,1-1.232-3.751h10.7a5.465,5.465,0,0,1,3.688,1.656,4.984,4.984,0,0,1,1.488,3.6v4.4a.5.5,0,1,0,1,0v-4.4a5.951,5.951,0,0,0-1.778-4.306A6.491,6.491,0,0,0,144.5,6325.366Z" transform="translate(7.422 15.001)" fill="#2e7d32"/>
    <circle id="Ellipse_329" data-name="Ellipse 329" cx="1.224" cy="1.224" r="1.224" transform="translate(139.457 6361.902)" fill="#a5d6a7"/>
    <path id="Path_10560" data-name="Path 10560" d="M143.774,6344.912a1.224,1.224,0,1,0,1.224,1.225A1.224,1.224,0,0,0,143.774,6344.912Z" transform="translate(8.414 16.99)" fill="#a5d6a7"/>
  </g>
</svg>
