<svg xmlns="http://www.w3.org/2000/svg" width="535.034" height="295.118" viewBox="0 0 535.034 295.118">
  <g id="Group_7151" data-name="Group 7151" transform="translate(-135.249 -2447.074)">
    <rect id="Rectangle_268" data-name="Rectangle 268" width="10.275" height="10.275" transform="translate(544.664 2546.248)" fill="#413d91"/>
    <rect id="Rectangle_312" data-name="Rectangle 312" width="10.275" height="10.275" transform="translate(476.664 2643.248)" fill="#413d91"/>
    <rect id="Rectangle_269" data-name="Rectangle 269" width="5.44" height="5.44" transform="translate(192.639 2656.391)" fill="#c2c8ff"/>
    <rect id="Rectangle_270" data-name="Rectangle 270" width="2.178" height="2.178" transform="translate(172.261 2454.494)" fill="#fff"/>
    <rect id="Rectangle_271" data-name="Rectangle 271" width="2.178" height="2.178" transform="translate(145.076 2478.008)" fill="#fff"/>
    <rect id="Rectangle_272" data-name="Rectangle 272" width="2.178" height="2.178" transform="translate(404.51 2475.168)" fill="#c2c8ff"/>
    <rect id="Rectangle_273" data-name="Rectangle 273" width="2.178" height="2.178" transform="translate(187.437 2627.197)" fill="#fff"/>
    <rect id="Rectangle_274" data-name="Rectangle 274" width="2.178" height="2.178" transform="translate(256.469 2596.164)" fill="#848ff7"/>
    <rect id="Rectangle_275" data-name="Rectangle 275" width="2.178" height="2.178" transform="translate(137.65 2522.621)" fill="#fff"/>
    <rect id="Rectangle_276" data-name="Rectangle 276" width="4.364" height="4.364" transform="translate(135.249 2575.594) rotate(-45)" fill="#848ff7"/>
    <rect id="Rectangle_277" data-name="Rectangle 277" width="3.306" height="3.306" transform="matrix(0.707, -0.707, 0.707, 0.707, 321.675, 2613.79)" fill="#c0c6ff"/>
    <rect id="Rectangle_314" data-name="Rectangle 314" width="3.306" height="3.306" transform="matrix(0.707, -0.707, 0.707, 0.707, 490.675, 2611.79)" fill="#c0c6ff"/>
    <rect id="Rectangle_313" data-name="Rectangle 313" width="3.306" height="3.306" transform="matrix(0.707, -0.707, 0.707, 0.707, 286.675, 2600.79)" fill="#c0c6ff"/>
    <g id="Group_6167" data-name="Group 6167" transform="translate(-2656.881 340.589)">
      <rect id="Rectangle_278" data-name="Rectangle 278" width="5.193" height="5.193" transform="translate(2886.097 2221.194)" fill="#c0c6ff"/>
      <rect id="Rectangle_279" data-name="Rectangle 279" width="5.193" height="5.193" transform="translate(2895.866 2221.194)" fill="#c0c6ff"/>
      <rect id="Rectangle_280" data-name="Rectangle 280" width="5.193" height="5.193" transform="translate(2905.636 2221.194)" fill="#c0c6ff"/>
    </g>
    <g id="Group_6168" data-name="Group 6168" transform="translate(-2656.881 340.589)">
      <rect id="Rectangle_281" data-name="Rectangle 281" width="5.193" height="5.193" transform="translate(2814.305 2123.352)" fill="#fff"/>
      <rect id="Rectangle_282" data-name="Rectangle 282" width="5.193" height="5.193" transform="translate(2804.535 2123.352)" fill="#c0c6ff"/>
      <rect id="Rectangle_283" data-name="Rectangle 283" width="5.193" height="5.193" transform="translate(2794.765 2123.352)" fill="#848ff7"/>
    </g>
    <path id="Path_10561" data-name="Path 10561" d="M2921.028,2383.915h12.625l-6.312-10.933Z" transform="translate(-2600.881 340.589)" fill="#c0c6ff"/>
    <g id="Group_6169" data-name="Group 6169" transform="translate(-2656.881 340.589)">
      <path id="Path_10562" data-name="Path 10562" d="M2843.821,2115.232l4.307-7.46h-8.614Zm0-1.873-2.685-4.651h5.37Z" fill="#c0c6ff"/>
    </g>
    <circle id="Ellipse_330" data-name="Ellipse 330" cx="4.16" cy="4.16" r="4.16" transform="translate(216.621 2585.755)" fill="#848ff7"/>
    <circle id="Ellipse_331" data-name="Ellipse 331" cx="4.16" cy="4.16" r="4.16" transform="translate(348.992 2464.312) rotate(-7.018)" fill="#848ff7"/>
    <circle id="Ellipse_345" data-name="Ellipse 345" cx="4.16" cy="4.16" r="4.16" transform="translate(293.992 2498.312) rotate(-7.018)" fill="#848ff7"/>
    <circle id="Ellipse_346" data-name="Ellipse 346" cx="4.16" cy="4.16" r="4.16" transform="translate(288.992 2650.312) rotate(-7.018)" fill="#848ff7"/>
    <circle id="Ellipse_347" data-name="Ellipse 347" cx="4.16" cy="4.16" r="4.16" transform="translate(499.992 2733.312) rotate(-7.018)" fill="#848ff7"/>
    <circle id="Ellipse_348" data-name="Ellipse 348" cx="4.16" cy="4.16" r="4.16" transform="translate(494.992 2569.312) rotate(-7.018)" fill="#848ff7"/>
    <circle id="Ellipse_332" data-name="Ellipse 332" cx="4.16" cy="4.16" r="4.16" transform="translate(193.682 2703.259)" fill="#848ff7"/>
    <circle id="Ellipse_333" data-name="Ellipse 333" cx="1.407" cy="1.407" r="1.407" transform="translate(529.642 2556.674)" fill="#848ff7"/>
    <rect id="Rectangle_284" data-name="Rectangle 284" width="5.366" height="0.936" transform="matrix(0.804, -0.594, 0.594, 0.804, 154.061, 2488.424)" fill="#c0c6ff"/>
    <rect id="Rectangle_285" data-name="Rectangle 285" width="0.936" height="4.428" transform="translate(321.114 2475.037) rotate(-53.616)" fill="#848ff7"/>
    <rect id="Rectangle_286" data-name="Rectangle 286" width="10.275" height="10.275" transform="translate(242.993 2543.698)" fill="#413d91"/>
    <rect id="Rectangle_287" data-name="Rectangle 287" width="5.44" height="5.44" transform="translate(602.854 2653.841)" fill="#c2c8ff"/>
    <rect id="Rectangle_288" data-name="Rectangle 288" width="2.178" height="2.178" transform="translate(623.494 2451.944)" fill="#fff"/>
    <rect id="Rectangle_289" data-name="Rectangle 289" width="2.178" height="2.178" transform="translate(585.987 2647.48)" fill="#fff"/>
    <rect id="Rectangle_290" data-name="Rectangle 290" width="2.178" height="2.178" transform="translate(475.363 2718.027)" fill="#fff"/>
    <rect id="Rectangle_291" data-name="Rectangle 291" width="2.178" height="2.178" transform="translate(465.694 2478.609)" fill="#fff"/>
    <rect id="Rectangle_292" data-name="Rectangle 292" width="2.178" height="2.178" transform="translate(539.285 2593.613)" fill="#848ff7"/>
    <rect id="Rectangle_293" data-name="Rectangle 293" width="2.178" height="2.178" transform="translate(668.105 2520.07)" fill="#fff"/>
    <rect id="Rectangle_294" data-name="Rectangle 294" width="4.364" height="4.364" transform="matrix(0.707, -0.707, 0.707, 0.707, 656.512, 2573.043)" fill="#848ff7"/>
    <rect id="Rectangle_295" data-name="Rectangle 295" width="3.306" height="3.306" transform="matrix(0.707, -0.707, 0.707, 0.707, 527.582, 2611.24)" fill="#c0c6ff"/>
    <g id="Group_6170" data-name="Group 6170" transform="translate(-2551.881 340.589)">
      <rect id="Rectangle_296" data-name="Rectangle 296" width="5.193" height="5.193" transform="translate(3183.209 2270.056)" fill="#c2c8ff"/>
      <rect id="Rectangle_297" data-name="Rectangle 297" width="5.193" height="5.193" transform="translate(3173.439 2270.056)" fill="#c2c8ff"/>
      <rect id="Rectangle_298" data-name="Rectangle 298" width="5.193" height="5.193" transform="translate(3163.67 2270.056)" fill="#c2c8ff"/>
    </g>
    <g id="Group_6171" data-name="Group 6171" transform="translate(-2554.881 340.589)">
      <rect id="Rectangle_299" data-name="Rectangle 299" width="5.193" height="5.193" transform="translate(3142.861 2107.734)" fill="#c2c8ff"/>
      <rect id="Rectangle_300" data-name="Rectangle 300" width="5.193" height="5.193" transform="translate(3152.631 2107.734)" fill="#c0c6ff"/>
      <rect id="Rectangle_301" data-name="Rectangle 301" width="5.193" height="5.193" transform="translate(3162.4 2107.734)" fill="#848ff7"/>
    </g>
    <g id="Group_6213" data-name="Group 6213" transform="translate(-2875.881 360.589)">
      <rect id="Rectangle_299-2" data-name="Rectangle 299" width="5.193" height="5.193" transform="translate(3142.861 2107.734)" fill="#c2c8ff"/>
      <rect id="Rectangle_300-2" data-name="Rectangle 300" width="5.193" height="5.193" transform="translate(3152.631 2107.734)" fill="#c0c6ff"/>
      <rect id="Rectangle_301-2" data-name="Rectangle 301" width="5.193" height="5.193" transform="translate(3162.4 2107.734)" fill="#848ff7"/>
    </g>
    <path id="Path_10564" data-name="Path 10564" d="M3027.479,2117.418H3040.1l-6.312-10.933Z" transform="translate(-2600.881 340.589)" fill="#c2c8ff"/>
    <g id="Group_6172" data-name="Group 6172" transform="translate(-2554.881 340.589)">
      <path id="Path_10565" data-name="Path 10565" d="M3146.356,2201.661l4.306-7.459h-8.613Zm0-1.873-2.685-4.65h5.369Z" fill="#848ff7"/>
    </g>
    <circle id="Ellipse_334" data-name="Ellipse 334" cx="4.16" cy="4.16" r="4.16" transform="translate(572.992 2583.204)" fill="#848ff7"/>
    <circle id="Ellipse_335" data-name="Ellipse 335" cx="4.16" cy="4.16" r="4.16" transform="translate(385.435 2739.008) rotate(-67.5)" fill="#848ff7"/>
    <circle id="Ellipse_336" data-name="Ellipse 336" cx="4.16" cy="4.16" r="4.16" transform="translate(560.906 2704.917)" fill="#848ff7"/>
    <circle id="Ellipse_349" data-name="Ellipse 349" cx="4.16" cy="4.16" r="4.16" transform="translate(298.906 2707.917)" fill="#848ff7"/>
    <circle id="Ellipse_337" data-name="Ellipse 337" cx="1.407" cy="1.407" r="1.407" transform="translate(323.962 2452.535)" fill="#c0c6ff"/>
    <circle id="Ellipse_338" data-name="Ellipse 338" cx="1.407" cy="1.407" r="1.407" transform="translate(369.696 2471.73)" fill="#848ff7"/>
    <rect id="Rectangle_302" data-name="Rectangle 302" width="0.936" height="5.366" transform="matrix(0.594, -0.804, 0.804, 0.594, 639, 2483.436)" fill="#c0c6ff"/>
    <rect id="Rectangle_303" data-name="Rectangle 303" width="4.428" height="0.936" transform="translate(528.698 2474.359) rotate(-36.382)" fill="#848ff7"/>
  </g>
</svg>
