<svg xmlns="http://www.w3.org/2000/svg" xmlns:xlink="http://www.w3.org/1999/xlink" width="147.382" height="143.26" viewBox="0 0 147.382 143.26">
  <defs>
    <filter id="Path_10416" x="0" y="0" width="147.382" height="143.26" filterUnits="userSpaceOnUse">
      <feOffset dy="3" input="SourceAlpha"/>
      <feGaussianBlur stdDeviation="10" result="blur"/>
      <feFlood flood-opacity="0.239"/>
      <feComposite operator="in" in2="blur"/>
      <feComposite in="SourceGraphic"/>
    </filter>
  </defs>
  <g id="FULL_COLOR_ICON" data-name="FULL COLOR ICON" transform="translate(-347.059 -229.905)">
    <g id="TYPE_A" data-name="TYPE A">
      <g id="Group_6054" data-name="Group 6054">
        <g transform="matrix(1, 0, 0, 1, 347.06, 229.91)" filter="url(#Path_10416)">
          <path id="Path_10416-2" data-name="Path 10416" d="M464.441,292.361c0-19.55-19.6-35.456-43.691-35.456s-43.691,15.906-43.691,35.456c0,17.527,15.544,32.205,36.539,34.981,1.423.306,3.36.938,3.85,2.154a8.985,8.985,0,0,1,.141,3.951s-.513,3.082-.624,3.74c-.19,1.1-.878,4.32,3.785,2.355s25.161-14.816,34.328-25.366h0c6.332-6.944,9.365-13.991,9.365-21.815" transform="translate(-347.06 -229.91)" fill="#fff"/>
        </g>
        <g id="Group_6053" data-name="Group 6053">
          <path id="Path_10417" data-name="Path 10417" d="M411.873,282.914h-3.065a.85.85,0,0,0-.851.849V302.8a.85.85,0,0,0,.851.849h3.065a.851.851,0,0,0,.851-.849V283.763a.851.851,0,0,0-.851-.849" fill="#00b900"/>
          <path id="Path_10418" data-name="Path 10418" d="M432.967,282.914H429.9a.85.85,0,0,0-.851.849v11.31l-8.724-11.781a.944.944,0,0,0-.066-.087l-.006,0c-.016-.019-.034-.036-.051-.053l-.016-.014a.559.559,0,0,0-.045-.038l-.022-.017-.044-.031-.026-.015a.51.51,0,0,0-.045-.025l-.027-.013c-.016-.007-.032-.015-.049-.021l-.028-.01-.05-.016-.03-.008-.049-.011-.036-.005-.045-.005c-.014,0-.029,0-.044,0h-3.094a.851.851,0,0,0-.851.849V302.8a.851.851,0,0,0,.851.849h3.065a.85.85,0,0,0,.851-.849V291.494l8.735,11.8a.861.861,0,0,0,.216.21l.009.006a.4.4,0,0,0,.052.032l.025.013c.013.007.026.014.04.02l.042.018.025.009.058.019.012,0a.868.868,0,0,0,.218.029h3.065a.85.85,0,0,0,.851-.849V283.763a.85.85,0,0,0-.851-.849" fill="#00b900"/>
          <path id="Path_10419" data-name="Path 10419" d="M404.485,298.883h-8.327V283.764a.85.85,0,0,0-.85-.851h-3.065a.851.851,0,0,0-.851.851V302.8h0a.845.845,0,0,0,.238.588l.012.013.012.012a.844.844,0,0,0,.588.237h12.243a.85.85,0,0,0,.85-.851v-3.065a.85.85,0,0,0-.85-.851" fill="#00b900"/>
          <path id="Path_10420" data-name="Path 10420" d="M449.891,287.681a.85.85,0,0,0,.849-.851v-3.065a.85.85,0,0,0-.849-.851H437.647a.845.845,0,0,0-.591.24l-.009.009-.014.015a.842.842,0,0,0-.236.586h0V302.8h0a.843.843,0,0,0,.238.588l.012.013.012.011a.845.845,0,0,0,.588.238h12.244a.85.85,0,0,0,.849-.851v-3.065a.85.85,0,0,0-.849-.851h-8.327v-3.218h8.327a.85.85,0,0,0,.849-.851V291.75a.85.85,0,0,0-.849-.852h-8.327v-3.217Z" fill="#00b900"/>
        </g>
      </g>
    </g>
  </g>
</svg>
