<svg xmlns="http://www.w3.org/2000/svg" width="140.206" height="299.363" viewBox="0 0 140.206 299.363">
  <g id="Group_7153" data-name="Group 7153" transform="translate(-521.396 -2436.522)">
    <g id="Group_6176" data-name="Group 6176" transform="translate(-2554.881 340.589)">
      <path id="Path_10566" data-name="Path 10566" d="M3116.07,2141.236l-1.586,1.336s.23,2.274.355,2.921.292,1.982.459,1.481a22.68,22.68,0,0,0,.23-2.963,18.9,18.9,0,0,1,1.4,3.339c.041.689,0,2.65.25,2.108a16.831,16.831,0,0,0,.5-2.713s.146,2.942.355,2.692a7.448,7.448,0,0,0,.333-3.026C3118.2,2145.764,3116.07,2141.236,3116.07,2141.236Z" fill="#f9cfaa"/>
      <g id="Group_6174" data-name="Group 6174">
        <path id="Path_10567" data-name="Path 10567" d="M3090.485,2178.076s-9.13,3.286-8.377,3.492,11.145,0,11.145,0l-.157-1.751Z" fill="#5c5fe0"/>
        <path id="Path_10568" data-name="Path 10568" d="M3090.485,2178.076s-5.562,2.007-4.5,1.91,7.109-.169,7.109-.169l.484-6.481-3.676.58Z" fill="#f9cfaa"/>
      </g>
      <g id="Group_6175" data-name="Group 6175">
        <path id="Path_10569" data-name="Path 10569" d="M3112.887,2178.076s-7.971,3.286-7.146,3.492,11.146,0,11.146,0l-.775-1.751Z" fill="#5c5fe0"/>
        <path id="Path_10570" data-name="Path 10570" d="M3110.84,2173.916l2.047,4.16s-4.854,2.007-3.824,1.91,7.049-.169,7.049-.169l-1.8-6.481Z" fill="#f9cfaa"/>
      </g>
      <path id="Path_10571" data-name="Path 10571" d="M3088.055,2099.591c-1.107.925-2.021,1.328-2.394,1.795a17.423,17.423,0,0,0-1.088,3.518l.979.762a5.728,5.728,0,0,0,1.414-3.119c.051-.8,2.591-3.253,2.213-3.609C3088.871,2098.648,3088.414,2099.29,3088.055,2099.591Z" fill="#f9cfaa"/>
      <path id="Path_10572" data-name="Path 10572" d="M3105.864,2104.276c-1.4-2.709-1.161-6.239-3.434-7.013-3.2-1.089-4.643,3.24-4.449,5.368a10.6,10.6,0,0,1-.145,4.159c-.532,2.37.242,3.724,3.095,3.918s8.173-2.273,8.173-2.273A13.733,13.733,0,0,1,3105.864,2104.276Z" fill="#f28f00"/>
      <path id="Path_10573" data-name="Path 10573" d="M3098.174,2105.581c.049,3.773-1.789,10.543-1.789,10.543l4.4.919s-.29-8.27.483-11.558C3101.63,2103.952,3098.174,2105.581,3098.174,2105.581Z" fill="#f9cfaa"/>
      <path id="Path_10574" data-name="Path 10574" d="M3100.5,2099.391c-2.757-.29-5.659,9.431-3.386,10.3s3.839-2.679,4.546-4.691C3102.285,2103.212,3102.836,2099.637,3100.5,2099.391Z" fill="#f9cfaa"/>
      <path id="Path_10575" data-name="Path 10575" d="M3101.269,2104.663l-.58,1.112s2.542.288,2.467-1.306C3103.107,2103.454,3102,2103.937,3101.269,2104.663Z" fill="#f9cfaa"/>
      <path id="Path_10576" data-name="Path 10576" d="M3092.008,2116a10.193,10.193,0,0,0-.435,7.472c1.378,3.7,3.917,9.721,3.917,9.721h8.923a27.8,27.8,0,0,1,.508-6.529c1.451-4.933,2.321-9.866,2.321-9.866a30.258,30.258,0,0,0-6.964-1.16A57.9,57.9,0,0,0,3092.008,2116Z" fill="#ffa000"/>
      <path id="Path_10577" data-name="Path 10577" d="M3094.91,2116.148c-2.322.073-14-1.523-16.177,0-1.976,1.383-2.249,3.12.8,4.208,3.007,1.074,14.291-.218,14.291-.218S3096.3,2116.1,3094.91,2116.148Z" fill="#ffa000"/>
      <path id="Path_10578" data-name="Path 10578" d="M3086.156,2096.707c0,.145,1.983,10.253,1.983,10.253l5.127-1.016-1.5-10.011Z" fill="#002654"/>
      <path id="Path_10579" data-name="Path 10579" d="M3088.986,2099.971s2.224-1.644,2.176-1.982c-.089-.625-4.885,2.031-5.465,2.611s-.339,2.9-1.5,5.417l1.257.58a11.591,11.591,0,0,0,2.273-2.152c.967-2.1,3-2.805,3.144-3.24.295-.886-1.959.628-1.959.628s2.587-2.007,2.587-2.539S3088.986,2099.971,3088.986,2099.971Z" fill="#f9cfaa"/>
      <path id="Path_10580" data-name="Path 10580" d="M3077.064,2114.045c-1.16,2.031-1.378,4.642,1.741,6.166,3.005,1.467,3.337-4.063,3.337-4.063l4.933-9.938-2.684-2.829S3078.03,2112.355,3077.064,2114.045Z" fill="#ffa000"/>
      <path id="Path_10581" data-name="Path 10581" d="M3095.49,2133.2s-6.843,14.9-7.327,17.99-2.321,24.665-2.321,24.665a14.639,14.639,0,0,0,5.223.774,40.469,40.469,0,0,0,7.061-.968s-1.662-19.253-1.838-21.182c-.1-1.064,3.772-14.6,3.772-14.6Z" fill="#5c5fe0"/>
      <path id="Path_10582" data-name="Path 10582" d="M3109.346,2139.483c-1.258-2.708-5.03-7.158-5.03-7.158l-8.826.871.411,6.19,1.354,2.128,3.773.1,1.45,16.153,5.03,17.7a16.234,16.234,0,0,0,7.158.387,13.237,13.237,0,0,0,5.029-2.225s-8.8-17.023-9.092-19.054S3110.6,2142.191,3109.346,2139.483Z" fill="#5c5fe0"/>
      <path id="Path_10583" data-name="Path 10583" d="M3107.242,2116.8l-3.047,5.441s2.539,5.876,2.975,8.487,6.166,13.2,6.166,13.2l4.5-1.958-6.238-12.623S3108.113,2117.744,3107.242,2116.8Z" fill="#ffa000"/>
    </g>
    <g id="Group_6181" data-name="Group 6181" transform="translate(-2554.881 340.589)">
      <path id="Path_10610" data-name="Path 10610" d="M3107.063,2332.012c.026.3.823,5.544.823,5.544l3.167-.085-.139-5.459Z" fill="#f9cfaa"/>
      <path id="Path_10611" data-name="Path 10611" d="M3111,2298.694l-7.156-4.4c.243,4.062.123,18.168.468,22.118s1.3,17.886,1.3,17.886l6.447.17s-1.5-16.363-1.577-18.507S3111,2298.694,3111,2298.694Z" fill="#ffa000"/>
      <path id="Path_10612" data-name="Path 10612" d="M3107.886,2337.556l-3.749,1.65a12.064,12.064,0,0,0-2.133.847,1.474,1.474,0,0,0-.42.337.619.619,0,0,0,.514.974h9.507l-.552-3.893Z" fill="#5c5fe0"/>
      <path id="Path_10613" data-name="Path 10613" d="M3095.412,2337.556l3.173-.085.339-5.459h-3.851C3095.073,2332.308,3095.412,2337.556,3095.412,2337.556Z" fill="#f9cfaa"/>
      <path id="Path_10614" data-name="Path 10614" d="M3093.691,2316.411c0,3.95-.268,17.886-.268,17.886l6.432.17s-.071-16.363.042-18.507,2.031-17.266,2.031-17.266l-6.77-4.4C3095.045,2298.355,3093.691,2312.461,3093.691,2316.411Z" fill="#ffa000"/>
      <path id="Path_10615" data-name="Path 10615" d="M3122.646,2292.826l-2.859.7a14.861,14.861,0,0,0,.7,3.767c.558,1.6.14,3.347.7,3s.627-2.93.627-2.93a9.737,9.737,0,0,1,1.953,2.232c.349.837,1.256,4.882,1.465,3.976a23.659,23.659,0,0,0-.07-4.046s.767,5.72,1.325,4.673-.628-7.044-.628-7.044Z" fill="#f9cfaa"/>
      <path id="Path_10616" data-name="Path 10616" d="M3082.631,2262.611l-3.3-3.47s-1.608,5.078-1.524,6.94,4.232,6.855,4.232,6.855l1.693.508-1.016-6.432Z" fill="#f9cfaa"/>
      <path id="Path_10617" data-name="Path 10617" d="M3110.392,2263.8l-2.116,11.51s4.063,7.617,5.248,10.326,5.67,11.087,5.67,11.087l5.755-2.793s-4.57-8.125-6.855-11.849S3114.031,2270.651,3110.392,2263.8Z" fill="#413d91"/>
      <path id="Path_10618" data-name="Path 10618" d="M3104.146,2252.609l-5.425,1.117c.107,3.4.319,9.308.319,9.308l6.861.425a42.4,42.4,0,0,1-1.755-7.127A35.632,35.632,0,0,1,3104.146,2252.609Z" fill="#f9cfaa"/>
      <path id="Path_10619" data-name="Path 10619" d="M3101.167,2244.245c-1.862-.085-3.47,2.708-5.078,5.332s-1.758,7.056,1.1,7.532a5.729,5.729,0,0,0,3.978-1.269s6.009-2.708,5.332-6.178S3101.167,2244.245,3101.167,2244.245Z" fill="#f9cfaa"/>
      <path id="Path_10620" data-name="Path 10620" d="M3100.024,2246.149a37.906,37.906,0,0,1,1.016,4.4,32.273,32.273,0,0,0,1.65,5.163l2.709.3s3.343-5.163,3.216-7.278S3100.024,2246.149,3100.024,2246.149Z" fill="#413d91"/>
      <path id="Path_10621" data-name="Path 10621" d="M3100.7,2251.862l.423,2.412s2.434-1.607,1.82-2.835C3102.182,2249.915,3100.7,2251.862,3100.7,2251.862Z" fill="#f9cfaa"/>
      <path id="Path_10622" data-name="Path 10622" d="M3109.207,2241.875c-3.731-2.881-11.341,3.5-11.341,3.5a14.632,14.632,0,0,0,5.628,5.093,15.032,15.032,0,0,0,4.317,1.269S3113.72,2245.359,3109.207,2241.875Z" fill="#69f0ae"/>
      <path id="Path_10623" data-name="Path 10623" d="M3111.167,2238.569c-2.447.319-1.915,4.308-1.915,4.308s2.34,1.7,3.67.531S3113.031,2238.325,3111.167,2238.569Z" fill="#69f0ae"/>
      <path id="Path_10624" data-name="Path 10624" d="M3091.567,2267.128c-2.836,5.052-8.089,14.187-6.481,18,1.108,2.624,3.138,4.329,5.755,1.1s8.23-17.438,8.23-17.438l-.436-5.933C3097.675,2262.154,3094.359,2262.154,3091.567,2267.128Z" fill="#5c5fe0"/>
      <path id="Path_10625" data-name="Path 10625" d="M3084.663,2270.482l-4.825,1.777s3.3,10.918,6.094,14.642c0,0,4.571-5.247,2.963-8.633S3084.663,2270.482,3084.663,2270.482Z" fill="#5c5fe0"/>
      <path id="Path_10626" data-name="Path 10626" d="M3110.392,2263.8c-1.354-2.624-15.15.338-15.15.338.593,5.163-1.777,16.674-2.116,29.538-.076,2.908-1.354,9.987-1.354,9.987s7.617.169,11.68.508c2.469.206,9.733-.339,9.733-.339s-.426-17.118-.846-20.9C3111.492,2275.306,3111.746,2266.419,3110.392,2263.8Z" fill="#5c5fe0"/>
      <path id="Path_10627" data-name="Path 10627" d="M3096.7,2262.129s2.606,7.659,7.659,8.191c4,.421,6.869-.35,7.552-3.085a11.363,11.363,0,0,0-.9-6.914A24.323,24.323,0,0,0,3096.7,2262.129Z" fill="#413d91"/>
      <path id="Path_10628" data-name="Path 10628" d="M3077.046,2258.859c.056.338,5.36,10.833,5.36,10.833l5.586-2.37-4.4-10.72Z" fill="#002654"/>
      <path id="Path_10629" data-name="Path 10629" d="M3081.531,2260.664c-.508-.762-2.2,4.147-1.946,6.856l2.2,3.047a21.955,21.955,0,0,0-.254-4.317C3081.193,2265.15,3082.039,2261.426,3081.531,2260.664Z" fill="#f9cfaa"/>
      <path id="Path_10630" data-name="Path 10630" d="M3095.412,2337.556l-3.894,1.65a16.425,16.425,0,0,0-3.639.847,1.7,1.7,0,0,0-.451.337.581.581,0,0,0,.429.974h10.94l-.212-3.893Z" fill="#5c5fe0"/>
    </g>
    <g id="Group_6183" data-name="Group 6183" transform="translate(-2533.881 340.589)">
      <path id="Path_10646" data-name="Path 10646" d="M3177.931,2296.761c-1.084-.908-4.333-3.045-6.792-1.405s2.43,4.947,3.074,4.918c0,0,3.477,6.244,5,7.3s5.391-4.648,3.905-8.648C3181.908,2295.669,3179.014,2297.668,3177.931,2296.761Z" fill="#ffb300"/>
      <path id="Path_10647" data-name="Path 10647" d="M3169.43,2389.9l-.608,2.292s-6.03.943-6.8,1.527l-.023.018a.867.867,0,0,0,.527,1.555h9.966a1.207,1.207,0,0,0,1.206-1.255l-.171-4.272Z" fill="#413d91"/>
      <path id="Path_10648" data-name="Path 10648" d="M3187.767,2389.053l1,3.143s-6.029.943-6.8,1.527l-.023.018a.867.867,0,0,0,.527,1.555h11.223l-1.252-6.661Z" fill="#413d91"/>
      <path id="Path_10649" data-name="Path 10649" d="M3163.908,2351.649s0,2.9.176,4.04a3.393,3.393,0,0,0,1.756,2.547c.7.175-.439-1.669-.439-2.811A8.514,8.514,0,0,0,3163.908,2351.649Z" fill="#f9cfaa"/>
      <path id="Path_10650" data-name="Path 10650" d="M3151.35,2360.7c-1.317.351-.974,12.391-.593,14.107.176.791,19.562.032,19.562.032s.791-9.573.264-12.822S3152.667,2360.343,3151.35,2360.7Z" fill="#69f0ae"/>
      <path id="Path_10651" data-name="Path 10651" d="M3157.828,2356.659c-1.993.748-1.059,5.355-1.048,5.4l1.083-.27c-.225-.9-.393-3.8.357-4.085a20.552,20.552,0,0,1,6.825-.143,23.768,23.768,0,0,1,.238,3.924h1.116c0-1.473-.058-4.032-.446-4.613C3165.287,2355.873,3158.968,2356.232,3157.828,2356.659Z" fill="#69f0ae"/>
      <path id="Path_10652" data-name="Path 10652" d="M3161.713,2350.683a45.617,45.617,0,0,0-2.819,5.824,1.261,1.261,0,0,0,.744,1.534c.878.264,4.091.535,4.44-.139.166-.322.094-3.97.533-5.111S3161.713,2350.683,3161.713,2350.683Z" fill="#f9cfaa"/>
      <path id="Path_10653" data-name="Path 10653" d="M3178.37,2347.112l-7.143-2.459c-.469,3.161-2.576,16.627-2.81,19.555s-.937,27.518-.937,27.518h8.221s-.56-21.951-.209-24.293S3178.37,2347.112,3178.37,2347.112Z" fill="#002654"/>
      <path id="Path_10654" data-name="Path 10654" d="M3187.035,2367.252l.117-20.375-12.178-1.522.468,5.855h4.1s.7,14.169.7,15.925,5.92,24.15,5.92,24.15l8.578-.419s-3.388-14.243-4.045-16.25A31.439,31.439,0,0,0,3187.035,2367.252Z" fill="#002654"/>
      <path id="Path_10655" data-name="Path 10655" d="M3155.986,2313.647l5.905,11.148.607-2.759-4.635-9.271Z" fill="#002654"/>
      <path id="Path_10656" data-name="Path 10656" d="M3164.787,2336.9c-.439,2.108-5.27,16.159-5.27,16.159l6.236,1.142,3.688-14.842,6.587-15.281-3.6-6.674C3169.617,2320.56,3165.226,2334.787,3164.787,2336.9Z" fill="#5c5fe0"/>
      <path id="Path_10657" data-name="Path 10657" d="M3174.8,2297.932c-1.815.468-1.229,5.035-1,7.084a11.408,11.408,0,0,0-1.405,4.567c-.173,2.129,4.646,1.615,6.206-.527,1.961-2.693.585-7.553-.059-9.368S3176.613,2297.463,3174.8,2297.932Z" fill="#f9cfaa"/>
      <path id="Path_10658" data-name="Path 10658" d="M3171.438,2306.242a28.278,28.278,0,0,0,3.6.205l-.974-4.889C3172.5,2305.13,3171.024,2306.066,3171.438,2306.242Z" fill="#f9cfaa"/>
      <path id="Path_10659" data-name="Path 10659" d="M3176.2,2296.819l-.878.176c1.581.673.82,4.069,2.166,5.152a2.756,2.756,0,0,0,2.781.41l-.468-4.04Z" fill="#f8b20d"/>
      <path id="Path_10660" data-name="Path 10660" d="M3180.3,2302.264c-1.23-.7-2.02.937-2.02.937s-1.249,1.89.293,2.518C3180.3,2306.421,3181.176,2302.764,3180.3,2302.264Z" fill="#f9cfaa"/>
      <path id="Path_10661" data-name="Path 10661" d="M3175.12,2308.382c.644,2.459-.614,8.431.117,8.519a28.9,28.9,0,0,0,4.684-1.2l-.468-9.924Z" fill="#f9cfaa"/>
      <path id="Path_10662" data-name="Path 10662" d="M3185.776,2323.283c.088-2.284,1.669-5.533-.176-8.168s-10.8,0-13.173,2.284-.966,11.943-.966,11.943l-2.986,19.409,20.111-.263S3185.688,2325.566,3185.776,2323.283Z" fill="#5c5fe0"/>
      <path id="Path_10663" data-name="Path 10663" d="M3162.44,2318.311c-.45.376-.784,5-.784,5a7.726,7.726,0,0,1-1.3-1.136c-.537-.62-2.376-6.737-3.054-6.091s1.379,6.878,1.379,6.878l4.978,6.415,1.38-.022.288-2.753s-1.935-4.408-1.944-6.341S3162.891,2317.936,3162.44,2318.311Z" fill="#f9cfaa"/>
      <path id="Path_10664" data-name="Path 10664" d="M3173.217,2332.5a53.4,53.4,0,0,1-7.728-7.377l-4.04,2.9s9.661,14.315,13.964,12.3C3177.5,2339.341,3176.982,2335.242,3173.217,2332.5Z" fill="#413d91"/>
      <path id="Path_10665" data-name="Path 10665" d="M3184.373,2314.267c-4.231-.233-8.345,16.393-11.858,20.608,0,0-.176,4.743,2.108,5.709s11.036-15.3,12.382-18.618C3188.323,2318.716,3188.18,2314.476,3184.373,2314.267Z" fill="#413d91"/>
    </g>
    <g id="Group_6195" data-name="Group 6195" transform="translate(-2538.881 340.589)">
      <g id="Group_6184" data-name="Group 6184">
        <path id="Path_10666" data-name="Path 10666" d="M3197.438,2173.231c-.254-1.694-1.867-11.736-2.263-14.383,0,0-4.917-2-4.8.5a104.768,104.768,0,0,0,5.588,28.856c.613,1.686,3.626.114,3.342-.588C3198.409,2185.393,3197.691,2174.925,3197.438,2173.231Z" fill="#f9cfaa"/>
        <path id="Path_10667" data-name="Path 10667" d="M3195.843,2186.432c-.329.78.1,2.015.311,3.16s-.179,2.222.22,2.281c.955.141,1.013-1.369,1.1-2.437a5.06,5.06,0,0,0-.084-1.368Z" fill="#f9cfaa"/>
        <path id="Path_10668" data-name="Path 10668" d="M3198.766,2185.345c-.34-.84-1.891,2.556-1.891,2.556.29.85.724,2.124.836,2.6s.108,3.434.6,3.726c.252.149,1.4-.7,1.847-1.495a5.857,5.857,0,0,0,.147-3.35C3200.126,2188.734,3199.346,2186.78,3198.766,2185.345Z" fill="#f9cfaa"/>
      </g>
      <path id="Path_10669" data-name="Path 10669" d="M3175,2144.343c-1.838,1.226-13.555,6.868-12.776,12.3,0,0,2.679,2.7,3.1,1.929,2.565-4.645,10.29-10.578,11.021-10.936C3176.2,2147.2,3175.94,2143.713,3175,2144.343Z" fill="#f9cfaa"/>
      <path id="Path_10670" data-name="Path 10670" d="M3176.345,2147.633c.02.059.038.062.056-.009C3176.405,2147.609,3176.384,2147.613,3176.345,2147.633Z" fill="#f9cfaa"/>
      <path id="Path_10671" data-name="Path 10671" d="M3190.175,2150.614c-2.642-.163-1.58,6-1.58,6l2.158,3.852s6.163-.77,5.7-1.849S3195.183,2150.922,3190.175,2150.614Z" fill="#69f0ae"/>
      <g id="Group_6187" data-name="Group 6187">
        <g id="Group_6186" data-name="Group 6186">
          <path id="Path_10672" data-name="Path 10672" d="M3173.885,2143.5c.08.25,1.821.478,1.821.478l-.214-3.575C3174.622,2142.372,3173.8,2143.25,3173.885,2143.5Z" fill="#f9cfaa"/>
          <path id="Path_10673" data-name="Path 10673" d="M3176.834,2136.119c-1.473,1.167-2.49,11.039-.523,11.936,2.135.973,6.84.026,7.428-1.443s2.033-9.232,2.033-9.232C3185.269,2135.955,3178.943,2134.447,3176.834,2136.119Z" fill="#f9cfaa"/>
          <path id="Path_10674" data-name="Path 10674" d="M3179.776,2145.441s-.1,4.777.055,5.277,5.374.28,5.68-.058c.4-.44-.085-4.142.57-7.917l-3.386-1.189Z" fill="#f9cfaa"/>
          <path id="Path_10675" data-name="Path 10675" d="M3177.558,2133.535c-2.715.859-4.05,3.06-3.738,3.432s1.842-1.005,1.842-1.005a3.324,3.324,0,0,0-1,1.669c-.133,2.495,5.387,3.732,6.4,3.954,1.883.415.066,4.657,1.622,4.86a4.064,4.064,0,0,0,2.393-.275c1.639-1.356,4.133-6.842,3.531-9.2C3187.72,2133.5,3180.911,2132.475,3177.558,2133.535Z" fill="#5c5fe0"/>
          <g id="Group_6185" data-name="Group 6185">
            <path id="Path_10676" data-name="Path 10676" d="M3181.761,2141.2c-.6-.113-1.291.469-1.546,1.3s.023,1.6.622,1.709,1.291-.469,1.546-1.3S3182.36,2141.309,3181.761,2141.2Z" fill="#ed8766"/>
            <path id="Path_10677" data-name="Path 10677" d="M3181.655,2141.692c-.32-.061-.746.326-.882.77s-.041.983.279,1.044.69-.251.826-.7S3181.975,2141.752,3181.655,2141.692Z" fill="#241d48"/>
            <path id="Path_10678" data-name="Path 10678" d="M3181.213,2141.635l-.555.734s-.143,1.4-.119,1.255.084-.16.542-.489S3180.644,2142.774,3181.213,2141.635Z" fill="#ed8766"/>
          </g>
          <path id="Path_10679" data-name="Path 10679" d="M3175.413,2146.315a2.8,2.8,0,0,0,1-.929l-1.126-.006C3175.316,2145.713,3175.358,2146.027,3175.413,2146.315Z" fill="#fff"/>
        </g>
      </g>
      <path id="Path_10680" data-name="Path 10680" d="M3173.9,2180.117l-.4,11.505,1.3-.565,13.16,1.772s1.059.127,2.236-2.157c2.381-4.623-.423-12.1-.423-12.1Z" fill="#241d48"/>
      <g id="Group_6191" data-name="Group 6191">
        <path id="Path_10681" data-name="Path 10681" d="M3194.38,2226.46l-4.208.847.259,3.005a36.962,36.962,0,0,0,3.978-1.369C3194.366,2228.789,3194.38,2226.46,3194.38,2226.46Z" fill="#f9cfaa"/>
        <path id="Path_10682" data-name="Path 10682" d="M3188.138,2208.264c-.235-2.311,4.177-16.436,2.8-25.065-.705-4.412-10.764.616-10.764.616-.212,7.165.888,19.936,1.24,23.4s7.781,19.975,7.781,19.975h5.83s-1.464-5.241-3.374-10.27C3190.254,2213.251,3188.287,2209.727,3188.138,2208.264Z" fill="#5c5fe0"/>
        <g id="Group_6190" data-name="Group 6190">
          <g id="Group_6188" data-name="Group 6188">
            <path id="Path_10683" data-name="Path 10683" d="M3194.409,2228.943h-4.129s-2.509.857-4.016,1.177c-2.907.616-2.344,2.008-1.523,2.008h9.4a.469.469,0,0,0,.432-.532Z" fill="#f4d5b1"/>
          </g>
          <g id="Group_6189" data-name="Group 6189">
            <path id="Path_10684" data-name="Path 10684" d="M3194.409,2228.943h-4.129s-2.509.857-4.016,1.177c-2.907.616-2.344,2.008-1.523,2.008h9.4a.469.469,0,0,0,.432-.532Z" fill="#413d91"/>
          </g>
        </g>
      </g>
      <path id="Path_10685" data-name="Path 10685" d="M3171.923,2227.307l.154,3.005a38.225,38.225,0,0,0,4.027-1.369c-.039-.154.057-2.483.057-2.483Z" fill="#f9cfaa"/>
      <path id="Path_10686" data-name="Path 10686" d="M3173.824,2183.411c-.462,7.165-2.81,18.678-2.579,22.145s-.3,21.636-.3,21.636h5.83a63.105,63.105,0,0,0,1.5-9.4c.328-4.018-.025-9.031.281-10.685.422-2.277,6.634-19.666,5.94-24.057S3173.824,2183.411,3173.824,2183.411Z" fill="#5c5fe0"/>
      <g id="Group_6194" data-name="Group 6194">
        <g id="Group_6192" data-name="Group 6192">
          <path id="Path_10687" data-name="Path 10687" d="M3171.974,2228.943s-2.539.857-4.057,1.177c-2.928.616-2.414,2.008-1.593,2.008h9.4a.488.488,0,0,0,.45-.532l-.074-2.653Z" fill="#f4d5b1"/>
        </g>
        <g id="Group_6193" data-name="Group 6193">
          <path id="Path_10688" data-name="Path 10688" d="M3171.974,2228.943s-2.539.857-4.057,1.177c-2.928.616-2.414,2.008-1.593,2.008h9.4a.488.488,0,0,0,.45-.532l-.074-2.653Z" fill="#413d91"/>
        </g>
      </g>
      <path id="Path_10689" data-name="Path 10689" d="M3192.345,2152.149c.027-2.016-5.444-1.849-8.774-1.849-7.705,0-10.689.427-9.794,2.51,2.6,6.049-.337,24.325-.748,35.008l19.715.206S3192.152,2166.716,3192.345,2152.149Z" fill="#69f0ae"/>
      <path id="Path_10690" data-name="Path 10690" d="M3163.881,2154.095c-1.983.266-2.278,3.254-1.1,4.751,1.6,2.028,9.12,1.471,11.36,1.081l-.839-7.272S3165.9,2153.823,3163.881,2154.095Z" fill="#f9cfaa"/>
      <path id="Path_10691" data-name="Path 10691" d="M3174.776,2150.936a17.285,17.285,0,0,0-4.358,1.937c-.417.264,1.836,9.607,2.39,9.56s4.655-.75,4.655-.75S3175.8,2150.7,3174.776,2150.936Z" fill="#69f0ae"/>
      <rect id="Rectangle_308" data-name="Rectangle 308" width="8.061" height="5.249" rx="0.375" transform="translate(3176.646 2146.461) rotate(-68.983)" fill="#002654"/>
      <path id="Path_10692" data-name="Path 10692" d="M3180.452,2141.746l-2.77.535s-2.244.591-2.728,2.211a9.348,9.348,0,0,0-.033,3.809s4.131-1.7,4.914-2.845a10.121,10.121,0,0,0,1.1-2.746A.808.808,0,0,0,3180.452,2141.746Z" fill="#f9cfaa"/>
      <path id="Path_10693" data-name="Path 10693" d="M3180.4,2146.124c-.9-.079-3.28-.218-3.28-.218l-.438,1.124s4.718.344,4.78.125S3181.462,2146.218,3180.4,2146.124Z" fill="#f9cfaa"/>
    </g>
  </g>
</svg>
