<svg xmlns="http://www.w3.org/2000/svg" width="134.683" height="300.435" viewBox="0 0 134.683 300.435">
  <g id="Group_7152" data-name="Group 7152" transform="translate(-128.828 -2438.672)">
    <g id="Group_6180" data-name="Group 6180" transform="translate(-2656.881 340.589)">
      <g id="Group_6177" data-name="Group 6177">
        <path id="Path_10584" data-name="Path 10584" d="M2908.057,2161.251l.278,4.194,7.542-4.377-1.15-3.192S2908.387,2161,2908.057,2161.251Z" fill="#f9cfaa"/>
        <path id="Path_10585" data-name="Path 10585" d="M2914.727,2157.876l1.15,3.192s3.981,8.307,4.461,6.883-2.4-11.37-2.4-11.37Z" fill="#413d91"/>
      </g>
      <g id="Group_6178" data-name="Group 6178">
        <path id="Path_10586" data-name="Path 10586" d="M2875.076,2178.756l.283,8.935,3.377-.328c.031-.206.674-7.694.473-7.844Z" fill="#f9cfaa"/>
        <path id="Path_10587" data-name="Path 10587" d="M2875.359,2187.691s-3.662,1.139-6.519,1.668c-1.372.254-1.7,1.25-1.164,1.322,1.958.265,11.11.113,11.11.113l-.05-3.431Z" fill="#413d91"/>
      </g>
      <path id="Path_10588" data-name="Path 10588" d="M2873.72,2157.878c-2.34,4.553-2.244,25.079-2.244,25.079l9.219-.145s1.257-20.348,1.547-21.509,11.3-10.358,11.3-10.358l.146-8.783-10.742.449C2881.858,2145.515,2875.614,2154.192,2873.72,2157.878Z" fill="#69f0ae"/>
      <path id="Path_10589" data-name="Path 10589" d="M2897.463,2163.285c-.29-.871-2.1-14.115-4.358-17.641-.4-.63-9.311,4.8-9.311,4.8s6.207,22.29,10.185,23.008c3.315.6,19.962-4.355,19.962-4.355l-3.049-11.107S2897.754,2164.156,2897.463,2163.285Z" fill="#69f0ae"/>
      <g id="Group_6179" data-name="Group 6179">
        <path id="Path_10590" data-name="Path 10590" d="M2888.039,2101.334c-.87-.687-5.631.183-8.744,3.754s-.779,2.106-.779,2.106,2.427,6.318,6.272,5.768S2889.951,2102.844,2888.039,2101.334Z" fill="#002654"/>
        <path id="Path_10591" data-name="Path 10591" d="M2888.873,2113.973c-2.564-.229-1.881-2.741-2.751-4.938s-2.192-4.4-4.905-4.634c-2.609-.229-5.979,2.669-6.5,6.41-.549,3.937,1.779,5.027,1.42,7.462-.412,2.793-8.745,6.638-4.4,11.537,5.938,6.688,17.627-6.959,20.419-4.853s11.587-5.079,7.737-10.438C2897.562,2111.268,2891.437,2114.2,2888.873,2113.973Z" fill="#ffa000"/>
        <circle id="Ellipse_339" data-name="Ellipse 339" cx="1.946" cy="1.946" r="1.946" transform="translate(2886.116 2098.083)" fill="#002654"/>
      </g>
      <path id="Path_10592" data-name="Path 10592" d="M2889.3,2120.6l4.62,19.4s10.581-2.011,8.5-9.241C2899.735,2121.445,2890.989,2119.192,2889.3,2120.6Z" fill="#ffb300"/>
      <path id="Path_10593" data-name="Path 10593" d="M2880.164,2105.546c-1.939.606-2.106,3.3-1.968,5.4s.595,5.814,2.564,6.5c1.585.553,3.226-2.412,3.387-6.135C2884.331,2107.1,2882.362,2104.859,2880.164,2105.546Z" fill="#f9cfaa"/>
      <path id="Path_10594" data-name="Path 10594" d="M2882.882,2111.979s-.5.275.412,1.328,3.02-1.853,2.014-3.068C2884.21,2108.912,2882.882,2111.979,2882.882,2111.979Z" fill="#f9cfaa"/>
      <path id="Path_10595" data-name="Path 10595" d="M2880.958,2113.359c.022.151.042.3.059.449.566,4.8-1.116,8.707.246,8.707a41.435,41.435,0,0,0,4.273-.427l-.977-10.194Z" fill="#f9cfaa"/>
      <path id="Path_10596" data-name="Path 10596" d="M2876.929,2122.882c-2.014,1.739,1.221,7.111,1.221,17.916a61.058,61.058,0,0,1-.641,6.775l18.038-1.281s-2.381-22.525-4.029-26.188S2878.944,2121.142,2876.929,2122.882Z" fill="#5c5fe0"/>
      <path id="Path_10597" data-name="Path 10597" d="M2890.707,2119.333c-3.113-1.587-1.35,3.61-1.411,5.5a74.863,74.863,0,0,1,5.29,7.265c1.038,2.015,3.1,6.164,5.906,6.592s1-4.508-1.462-9.977C2896.209,2122.437,2893.82,2120.92,2890.707,2119.333Z" fill="#5c5fe0"/>
      <path id="Path_10598" data-name="Path 10598" d="M2867.782,2136.474c-1.056,2.416-.365,3.036.662,3.561,2.991,1.526,10.561-9.828,10.561-9.828l-2.076-7.325C2875.326,2124.2,2869.8,2131.855,2867.782,2136.474Z" fill="#5c5fe0"/>
      <path id="Path_10599" data-name="Path 10599" d="M2875.4,2126s2.808,8.119,2.93,8.424l4.212-1.465-2.014-8.729Z" fill="#002654"/>
      <path id="Path_10600" data-name="Path 10600" d="M2878.283,2129.235c-.427.3.783-1.165,1.088-2.2s-1.526.793-1.526.793.854-1.709.61-2.014-2.2,2.075-2.747,2.564a15.2,15.2,0,0,0-1.892,3.418,1.456,1.456,0,0,0,1.709.977c1.282-.306,4.134-4.144,3.975-4.435S2878.711,2128.93,2878.283,2129.235Z" fill="#f9cfaa"/>
      <path id="Path_10601" data-name="Path 10601" d="M2867.571,2136.826c-1.027,2.361.046,4.713,1.975,4.162,2.469-.705,7.618-8.394,7.618-8.394l-2.257-3.809S2868.981,2133.582,2867.571,2136.826Z" fill="#413d91"/>
      <path id="Path_10602" data-name="Path 10602" d="M2890.034,2135.064a3.4,3.4,0,0,1-.578-2.707l.157-.881c.939-5.272,1.618-9.082,2.9-11.838l-1.919-.892c-1.4,3.006-2.1,6.929-3.064,12.359l-.157.88a5.518,5.518,0,0,0,.952,4.327c1.3,1.777,3.659,2.94,6.827,3.362l.279-2.1C2892.886,2137.237,2890.969,2136.345,2890.034,2135.064Z" fill="#ffb300"/>
      <path id="Path_10603" data-name="Path 10603" d="M2888.088,2126.979c-.679.579-1.847,3.334-.941,3.881s4.687,2.746,4.687,2.746l-.066-3.549S2888.767,2126.4,2888.088,2126.979Z" fill="#f9cfaa"/>
      <path id="Path_10604" data-name="Path 10604" d="M2889.1,2126.281c-.2.519.811,1.587.811,1.587l-.247,1.129,1.87.882-.812-2.557S2889.261,2125.876,2889.1,2126.281Z" fill="#f9cfaa"/>
      <path id="Path_10605" data-name="Path 10605" d="M2900.511,2133.864c-1.054-.806-8.817-5.008-8.817-5.008l-3.1,4.373c1.282.855,8.746,6.631,12.414,5.643C2903.111,2138.3,2901.566,2134.67,2900.511,2133.864Z" fill="#413d91"/>
    </g>
    <g id="Group_6182" data-name="Group 6182" transform="translate(-2656.881 340.589)">
      <path id="Path_10631" data-name="Path 10631" d="M2830.637,2323.973l.149,1.2,2.652-.315,3.041-6.529-2.535-.575S2830.654,2323.836,2830.637,2323.973Z" fill="#002654"/>
      <path id="Path_10632" data-name="Path 10632" d="M2836.21,2318.923c-.384-.294-1.966,3.294-1.966,3.294s-2.515,2.212-2.82,2.486.817-3.554.453-3.776c-.64-.389-2.23,4.449-3.15,5.616l2.14,1.309,4.353-4.736S2836.594,2319.217,2836.21,2318.923Z" fill="#f9cfaa"/>
      <path id="Path_10633" data-name="Path 10633" d="M2839.747,2396.7c-2.227-.24-9.639-2.934-9.639-2.934l-2.235-5.867-3.842,2.166,1.607,8.451h16.484S2842.515,2397,2839.747,2396.7Z" fill="#ffb300"/>
      <path id="Path_10634" data-name="Path 10634" d="M2797.985,2396.7c-2.227-.24-5.175-5-5.175-5l3.029-4.733-3.5-3.03-6.627,8.9,8.426,5.683h6.224S2800.753,2397,2797.985,2396.7Z" fill="#ffb300"/>
      <path id="Path_10635" data-name="Path 10635" d="M2807.478,2365.411s-7.683,5.727-11.594,9.359-9.134,12.952-9.134,12.952l7.575,4.545s17.2-18.754,19.16-22.945,4.191-13.271,4.191-13.271l-8.941-13.41C2807.338,2349.626,2807.478,2365.411,2807.478,2365.411Z" fill="#5c5fe0"/>
      <path id="Path_10636" data-name="Path 10636" d="M2817.4,2344.038l-8.661-1.4c-.419,3.911-.838,5.727.419,8.94s10.2,16.9,10.2,16.9l1.816,14.388,1.257,10.477,9.779-.978-4.471-25.7Z" fill="#413d91"/>
      <path id="Path_10637" data-name="Path 10637" d="M2811.11,2319.243c-2.235,4.19-6.845,31.988-6.845,31.988a66.858,66.858,0,0,0,9.847,1.177c5.113.189,7.574-1.137,7.574-1.137L2819,2330Z" fill="#ffa000"/>
      <path id="Path_10638" data-name="Path 10638" d="M2824.7,2304.2c-.606.14.622-2.417-.326-3.026-1.3-.838-3.027,1.35-4.238,1.024-1.176-.317-1.191-3.34-4.19-3.492-3.679-.186-5.984,7.263-5.169,10.523a5,5,0,0,0,3.818,4s4.238-7.311,4.377-7.311,3.912,1.583,5.448,1.257,2.887-1.3,2.561-2.886S2825.306,2304.057,2824.7,2304.2Z" fill="#002654"/>
      <path id="Path_10639" data-name="Path 10639" d="M2811.11,2319.243l5.378,1.4.972-6.386-3.05-3.911S2814.044,2313.585,2811.11,2319.243Z" fill="#f9cfaa"/>
      <path id="Path_10640" data-name="Path 10640" d="M2816.412,2305.873c-1.024,1.723-2.375,4.61-2.1,7.031s1.45,5.328,3.771,4.284c1.894-.852,2.981-5.774,3.307-7.218s.232-4.144-.326-4.7A3.019,3.019,0,0,0,2816.412,2305.873Z" fill="#f9cfaa"/>
      <path id="Path_10641" data-name="Path 10641" d="M2821.208,2307.735l-.978,4.75,1.441.234a.394.394,0,0,0,.451-.465C2821.865,2310.958,2821.245,2307.846,2821.208,2307.735Z" fill="#f9cfaa"/>
      <path id="Path_10642" data-name="Path 10642" d="M2813.386,2307.782c-1.292.878-.792,3.492.186,3.4a4.209,4.209,0,0,0,2-1.071S2814.55,2306.99,2813.386,2307.782Z" fill="#f9cfaa"/>
      <path id="Path_10643" data-name="Path 10643" d="M2802.782,2319.945c.1,1.952,1.218,5.7,4.711,5.344,1.993-.205,4.071-3.392,4.071-3.392l2.359-4.425-10.509-1.8S2802.545,2315.134,2802.782,2319.945Z" fill="#ffa000"/>
      <path id="Path_10644" data-name="Path 10644" d="M2814.463,2317.706c-2.3-1.118-4.168,1.884-3.982,4.47.42,5.8,5.518,17.322,9.639,19.208,2.66,1.217,3.632-4.331,3.632-4.331s-2.444-8.381-3.911-11.524S2816.768,2318.824,2814.463,2317.706Z" fill="#ffb300"/>
      <path id="Path_10645" data-name="Path 10645" d="M2824.241,2330.278a63.967,63.967,0,0,1-4.26,6.636l-1.188,3.352s1.327,2.026,4.54,1.327c2.354-.511,9.5-14.109,9.5-14.109l-3.981-3.073A26.2,26.2,0,0,0,2824.241,2330.278Z" fill="#ffb300"/>
    </g>
    <g id="Group_6198" data-name="Group 6198" transform="translate(-2656.881 340.589)">
      <g id="Group_6196" data-name="Group 6196">
        <path id="Path_10694" data-name="Path 10694" d="M2833.185,2261.968l3.953-1.807.113-4.349-4.405-.508C2832.846,2255.473,2833.185,2261.968,2833.185,2261.968Z" fill="#f9cfaa"/>
        <path id="Path_10695" data-name="Path 10695" d="M2845.065,2260.938a4.394,4.394,0,0,0-1.319-.438c-1.147-.2-6.608-.96-6.608-.96l-4.057.112.1,2.316h11.627A.546.546,0,0,0,2845.065,2260.938Z" fill="#413d91"/>
      </g>
      <g id="Group_6197" data-name="Group 6197">
        <path id="Path_10696" data-name="Path 10696" d="M2819.491,2260.161l3.953,1.807s.339-6.5.339-6.664l-4.405.508Z" fill="#f9cfaa"/>
        <path id="Path_10697" data-name="Path 10697" d="M2812.883,2260.5a4.4,4.4,0,0,0-1.319.438.546.546,0,0,0,.253,1.03h11.627l.1-2.316-4.057-.112S2814.029,2260.3,2812.883,2260.5Z" fill="#413d91"/>
      </g>
      <path id="Path_10698" data-name="Path 10698" d="M2820.618,2209.076c0,6.552-.875,25.1-.875,25.1l-1.808,22.478h6.778l2.259-20.332,1.017-15.052,4.235-.084-2.456-11.691Z" fill="#ffb300"/>
      <path id="Path_10699" data-name="Path 10699" d="M2827.989,2207.551c1.581,8.585,2.711,28.211,2.711,28.211l.9,20.9h6.891s.023-17.951.113-23.834c.112-7.455-.678-23.721-.678-23.721Z" fill="#ffb300"/>
      <path id="Path_10700" data-name="Path 10700" d="M2831.462,2167.649l-4.066.339-.424,10.59,6.608,1.1s-.932-3.389-1.271-5.676S2831.462,2167.649,2831.462,2167.649Z" fill="#f9cfaa"/>
      <path id="Path_10701" data-name="Path 10701" d="M2831.759,2156.593c-1.949-.587-3.686,1.144-4.914,2.033s-3.316-1.242-5.168-.508c-2.457.974-1.405,3.656-.169,4.575,1.652,1.228,5.464,1.567,5.464,1.567s3.77,5.253,6.82,2.2S2834.427,2157.4,2831.759,2156.593Z" fill="#002654"/>
      <path id="Path_10702" data-name="Path 10702" d="M2829.768,2160.787c-2.627-1.017-4.326,3.737-3.982,6.438.593,4.66,2.165,7.051,4.405,6.524C2833.072,2173.071,2833.968,2162.413,2829.768,2160.787Z" fill="#f9cfaa"/>
      <path id="Path_10703" data-name="Path 10703" d="M2831.716,2166.689a2.111,2.111,0,0,0,.283,2.259c1.186,1.638,3.219-1.3,2.315-3.389C2833.9,2164.6,2831.716,2166.689,2831.716,2166.689Z" fill="#f9cfaa"/>
      <path id="Path_10704" data-name="Path 10704" d="M2839.934,2178.832c-2.118-1.525-18.045-1.271-20.417-.17s.932,14.487.762,22.281,0,11.437,0,11.691,18.892,0,18.892,0-.575-7.205-.847-12.369C2837.562,2185.779,2842.052,2180.357,2839.934,2178.832Z" fill="#5c5fe0"/>
      <path id="Path_10705" data-name="Path 10705" d="M2819.517,2178.662c-1.7-1.186-8.5,15.268-9.658,18.469-1.864,5.168-1.694,6.947.254,9.827,0,0,3.96-1.882,4.914-4.744,1.694-5.083,7.709-15.673,7.54-16.351S2821.211,2179.848,2819.517,2178.662Z" fill="#5c5fe0"/>
      <path id="Path_10706" data-name="Path 10706" d="M2839.3,2178.662c-1.695,1.186-2.881,6.524-3.05,7.2s5.845,11.268,7.54,16.351c.954,2.862,4.913,4.744,4.913,4.744,1.949-2.88,2.118-4.659.254-9.827C2847.808,2193.93,2841,2177.476,2839.3,2178.662Z" fill="#5c5fe0"/>
      <path id="Path_10707" data-name="Path 10707" d="M2833.834,2193.064c-1.059-.889-3.262-3.558-3.473-3.05s1.609,3.093,1.821,3.474a4.718,4.718,0,0,1,.466,1.313c.127.551-1.44-.3-1.906.127s3.219,3.6,3.982,3.474,1.186-1.4,1.186-1.4S2834.893,2193.954,2833.834,2193.064Z" fill="#f9cfaa"/>
      <path id="Path_10708" data-name="Path 10708" d="M2827.12,2199.033l4.828.275.638-10.46-5.719.06Z" fill="#002654"/>
      <path id="Path_10709" data-name="Path 10709" d="M2831.226,2189.915c-.166-.791-3.678,1.566-4.641,2.183a29.71,29.71,0,0,0-2.954,3.884l.669,2.149a9.441,9.441,0,0,0,3-1.512c.964-.9,3.625-2.526,3.74-3.034s-2.49,1.176-2.49,1.176,2.609-2.531,2.669-3.208-1.3.164-1.3.164S2831.3,2190.265,2831.226,2189.915Z" fill="#f9cfaa"/>
      <path id="Path_10710" data-name="Path 10710" d="M2809.351,2205.01c.172,3.1,2.346,4.026,4.49,3.388,3.134-.932,12.707-9.4,12.707-9.4l-2.033-5S2809.1,2200.435,2809.351,2205.01Z" fill="#413d91"/>
      <path id="Path_10711" data-name="Path 10711" d="M2835.359,2194.547l-2.033,5s8.52,7.921,11.655,8.853c2.144.638,4.317-.286,4.49-3.388C2849.725,2200.435,2835.359,2194.547,2835.359,2194.547Z" fill="#413d91"/>
    </g>
    <g id="Group_6201" data-name="Group 6201" transform="translate(-2656.881 340.589)">
      <path id="Path_10712" data-name="Path 10712" d="M2911.287,2304.194l.353,2.03,1.941-1.9,3.309-12.617-2.074-.177S2911.287,2304.018,2911.287,2304.194Z" fill="#002654"/>
      <path id="Path_10713" data-name="Path 10713" d="M2915.037,2298.548l-3,6.542-.347-2.357s.836-3.656.439-4.1-1.588,3-1.941,4.058.353,5.912.4,6.044l1.456.75s3.176-6.132,3.662-7.191,1.058-6.793.705-7.543S2915.037,2298.548,2915.037,2298.548Z" fill="#f9cfaa"/>
      <path id="Path_10714" data-name="Path 10714" d="M2899.332,2302.959c-2.294-.794-.618,5.735-.353,9.088,0,0,6.088,10.941,8.382,11.823s2.294-1.588,2.206-4.941S2901.626,2303.753,2899.332,2302.959Z" fill="#69f0ae"/>
      <path id="Path_10715" data-name="Path 10715" d="M2905.949,2321.135c.441,2.294,2.118,4.323,4.676,2.382,1.741-1.32,3.177-15.264,3.177-15.264l-4.412-2.206S2905.011,2316.255,2905.949,2321.135Z" fill="#69f0ae"/>
      <g id="Group_6199" data-name="Group 6199">
        <path id="Path_10716" data-name="Path 10716" d="M2885.5,2354.221a165.035,165.035,0,0,0-.794,20.735l3.7,1.588s.569-6.814,1.236-10.5c1.5-8.294,3.088-16.323,3.088-16.323l-5.382-3.617C2886.647,2351.4,2886.428,2345.724,2885.5,2354.221Z" fill="#f9cfaa"/>
        <path id="Path_10717" data-name="Path 10717" d="M2892.095,2382.632c-.757-.325-2.3-1-2.537-1.853-.441-1.588-1.147-4.235-1.147-4.235l-3.7-1.588-.072,9.072h1.213l.208-3.5s.239,2.633.768,3.251c.431.5,4.226.6,5.621.613a.439.439,0,0,0,.433-.536A1.674,1.674,0,0,0,2892.095,2382.632Z" fill="#ffa000"/>
      </g>
      <g id="Group_6200" data-name="Group 6200">
        <path id="Path_10718" data-name="Path 10718" d="M2895.14,2354.221a165.59,165.59,0,0,0,1.019,20.735l3.845,1.588s-.027-6.814.317-10.5c.774-8.294,1.66-16.323,1.66-16.323l-5.7-3.617C2896.04,2351.4,2895.324,2345.724,2895.14,2354.221Z" fill="#f9cfaa"/>
        <path id="Path_10719" data-name="Path 10719" d="M2904.22,2382.632c-.785-.325-2.387-1-2.7-1.853-.58-1.588-1.518-4.235-1.518-4.235l-3.845-1.588.723,9.072h1.213l-.1-3.5s.469,2.633,1.053,3.251c.475.5,4.278.6,5.674.613a.4.4,0,0,0,.386-.536A1.874,1.874,0,0,0,2904.22,2382.632Z" fill="#ffa000"/>
      </g>
      <path id="Path_10720" data-name="Path 10720" d="M2880.274,2328.37a9.825,9.825,0,0,0,1.412,3.352c.529.618,2.117,2.383,2.117,2.383a39.506,39.506,0,0,1-1.323-4.412C2882.48,2329.075,2880.274,2328.37,2880.274,2328.37Z" fill="#f9cfaa"/>
      <path id="Path_10721" data-name="Path 10721" d="M2897.479,2321.223l-9.705,1.323s-4.324,5.206-4.853,7.853-2.206,29.178-2.206,29.178,9.176-.794,13.411-.441,11.294.441,11.294.441-1.934-26.268-2.912-29.972A17.416,17.416,0,0,0,2897.479,2321.223Z" fill="#5c5fe0"/>
      <path id="Path_10722" data-name="Path 10722" d="M2873.08,2290.366a9.2,9.2,0,0,0-2.04,8.692c.935,3.895,6.294,4.449,6.294,4.449a18.976,18.976,0,0,1,1.479-7.854,14.5,14.5,0,0,1,5.242-5.837l0-2.7A9.835,9.835,0,0,0,2873.08,2290.366Z" fill="#413d91"/>
      <path id="Path_10723" data-name="Path 10723" d="M2886.979,2282.49c-7.235.352-10.176,7.411-5.352,12.94,3.357,3.849,9.529,1.412,9.529,1.412l4.352-4.882C2896.214,2288.019,2894.265,2282.134,2886.979,2282.49Z" fill="#5c5fe0"/>
      <path id="Path_10724" data-name="Path 10724" d="M2893.861,2286.254c-1.845-1.384-4.47-.765-6.058,1.823s-.412,10.983,3.353,11.059c2.941.059,4.235-5.176,4.411-6.882S2895.744,2287.666,2893.861,2286.254Z" fill="#f9cfaa"/>
      <path id="Path_10725" data-name="Path 10725" d="M2884.744,2291.607c0,2.647,3.353,1.235,3.353,1.235l-.176-1.765S2884.744,2288.827,2884.744,2291.607Z" fill="#f9cfaa"/>
      <path id="Path_10726" data-name="Path 10726" d="M2892.009,2295.107c.617-2.471-3.971-2.912-3.971-2.912a45.561,45.561,0,0,1-.353,12.264l5.912-.265S2891.391,2297.577,2892.009,2295.107Z" fill="#f9cfaa"/>
      <path id="Path_10727" data-name="Path 10727" d="M2899.332,2302.959c-2.294-.441-12.705.177-16.058,1.235-2.822.891-1.235,9.97-.971,12.529s1.147,6.794,4.235,7.059c3.233.277,12-.265,14.647-3C2902.4,2319.523,2902.089,2303.489,2899.332,2302.959Z" fill="#69f0ae"/>
      <path id="Path_10728" data-name="Path 10728" d="M2873.176,2314.5c-1.2,1.625-5.175,6.839-2.078,8.4,2.418,1.217,4.323.441,5.117-.706s7.412-10.675,7.412-10.675l-.353-7.324C2879.833,2305.959,2875.024,2312.008,2873.176,2314.5Z" fill="#69f0ae"/>
      <path id="Path_10729" data-name="Path 10729" d="M2882.127,2327.223l-1.677,2.911,3.177,1.059s2.117,2.47,3.088,3.441,2.382-.353,2.382-.353a23.221,23.221,0,0,0-1.676-4.411C2886.627,2328.634,2883.45,2327.928,2882.127,2327.223Z" fill="#f9cfaa"/>
      <path id="Path_10730" data-name="Path 10730" d="M2875.6,2319.988a8.892,8.892,0,0,0-4.795-.532c-1.117,2.561-1.045,4.117,1.354,6s8.754,6.333,8.754,6.333l2.056-4.283S2878,2321.016,2875.6,2319.988Z" fill="#69f0ae"/>
    </g>
  </g>
</svg>
