<svg xmlns="http://www.w3.org/2000/svg" xmlns:xlink="http://www.w3.org/1999/xlink" width="220" height="171.098" viewBox="0 0 220 171.098">
  <defs>
    <linearGradient id="linear-gradient" x1="0.5" x2="0.5" y2="1" gradientUnits="objectBoundingBox">
      <stop offset="0" stop-color="#004c8c"/>
      <stop offset="0.404" stop-color="#002f6c"/>
      <stop offset="1" stop-color="#04194b"/>
    </linearGradient>
  </defs>
  <g id="Group_7577" data-name="Group 7577" transform="translate(-85 -650)">
    <circle id="Ellipse_519" data-name="Ellipse 519" cx="71.5" cy="71.5" r="71.5" transform="translate(162 650)" fill="url(#linear-gradient)"/>
    <g id="Group_7570" data-name="Group 7570" transform="translate(0 103)">
      <g id="Group_7569" data-name="Group 7569" transform="translate(-302.089 -239.651)" opacity="0.099">
        <g id="Group_7566" data-name="Group 7566" transform="translate(406.089 825.401)">
          <g id="Group_7563" data-name="Group 7563" transform="translate(0 45.226)">
            <path id="Path_14545" data-name="Path 14545" d="M537.482,925.045c4.67,5.864,9.462,11.675,15.248,16.3a43.626,43.626,0,0,0,6.665,4.431,12.824,12.824,0,0,1-2.5,1.309c-4.238,1.626-9.036.18-12.9-2.263s-7.14-5.808-10.86-8.478-15.688-8.976-20.138-8.181c-4.76.852-8.473,4.7-11.826,8.344-9.207,9.977-22.524,23.471-32,33.674-.242-.309-.471-.62-.713-.928-1.854-2.413-3.7-4.828-5.561-7.24-.173-.236-.359-.484-.544-.719,12.175-12.41,27.64-28.9,38.2-42.451.385-.5.771-.993,1.181-1.5l.011-.015c1.811-2.226,3.834-4.341,6.474-5.184,3.131-1,6.513-.013,9.618,1.121a153.663,153.663,0,0,1,16.435,7.705,17.376,17.376,0,0,0-7.086,2.118C530.628,923.641,534.07,924.3,537.482,925.045Z" transform="translate(-419.518 -891.232)" fill="#363636"/>
            <path id="Path_14546" data-name="Path 14546" d="M441.661,899.188c-.113-.415-.25-.828-.388-1.239,10.384-2.215,21.923-4.369,31.03-5.9,7.266-1.217,14.709-2.132,21.958-.819a22.622,22.622,0,0,1,2.88.729,7.79,7.79,0,0,1-4.588,5.812c-2.583,1.2-5.494,1.257-8.31,1.4-12.355.624-28.042,3.411-41.091,6.193A52.472,52.472,0,0,0,441.661,899.188Z" transform="translate(-414.487 -886.186)" fill="#363636"/>
            <path id="Path_14547" data-name="Path 14547" d="M569.837,943.906a24.676,24.676,0,0,0,8.5,1.044q-3.514,4.4-7.439,8.419c-1.158,1.192-2.343,2.359-3.556,3.489-2.215,2.08-4.673,4.13-7.605,4.524-2.87.375-5.7-.919-8.292-2.262-8.521-4.422-24.1-13.995-31.6-20.1-1.972-1.6-4.285-3.36-6.707-2.763-1.657.4-2.893,1.84-4.024,3.188-9.895,11.775-25,26.015-37.174,35.737-.213-.272-.428-.557-.629-.83,9.478-10.2,22.8-23.7,32-33.674,3.353-3.642,7.066-7.492,11.826-8.344,4.45-.795,16.418,5.5,20.138,8.181s6.984,6.049,10.86,8.478,8.662,3.889,12.9,2.263a12.824,12.824,0,0,0,2.5-1.309,43.615,43.615,0,0,1-6.665-4.431c-5.785-4.623-10.578-10.435-15.248-16.3q3.591.786,7.131,1.7c.84.516,1.628,1,2.323,1.436,5.4,3.437,10.572,7.361,16.38,9.947A32.531,32.531,0,0,0,569.837,943.906Z" transform="translate(-421.655 -895.407)" fill="#363636"/>
            <path id="Path_14548" data-name="Path 14548" d="M463.489,988.934a11.278,11.278,0,0,0-5.381-.6,11.333,11.333,0,0,0-.2-1.724,19.165,19.165,0,0,0-1.84-4.983,20.162,20.162,0,0,0,5.329-3.848c1.866,2.412,3.708,4.827,5.561,7.24Z" transform="translate(-418.017 -906.996)" fill="#363636"/>
            <path id="Path_14549" data-name="Path 14549" d="M450.171,987.187a11.337,11.337,0,0,1,.2,1.724,6.9,6.9,0,0,0-1.032.18,11.6,11.6,0,0,0-5.207,2.812q-10.154-3.916-20.474-7.27a9.371,9.371,0,0,1,3.667-3.66,7.56,7.56,0,0,1,2.851-.745c4.807-.324,9.261,3.232,14.066,3.027a10.379,10.379,0,0,0,4.086-1.052A19.165,19.165,0,0,1,450.171,987.187Z" transform="translate(-410.283 -907.577)" fill="#363636"/>
            <path id="Path_14550" data-name="Path 14550" d="M457.605,997.4q-3.516-1.432-7.051-2.8a11.6,11.6,0,0,1,5.207-2.812,6.9,6.9,0,0,1,1.032-.18,11.275,11.275,0,0,1,5.381.6Q459.9,994.81,457.605,997.4Z" transform="translate(-416.702 -910.275)" fill="#363636"/>
            <path id="Path_14551" data-name="Path 14551" d="M443.741,905.793c13.049-2.782,28.736-5.569,41.091-6.193,2.815-.142,5.727-.2,8.31-1.4a7.79,7.79,0,0,0,4.589-5.812c4.844,1.522,9.275,4.534,13.232,7.752,3.2,2.589,8.527,6.218,13.8,9.76,3.328,2.243,6.628,4.448,9.331,6.326a32.792,32.792,0,0,0-4.269.125,153.724,153.724,0,0,0-16.435-7.705c-3.1-1.134-6.486-2.12-9.618-1.121-2.64.844-4.663,2.959-6.474,5.185l-.011.015a12.764,12.764,0,0,0-5.981-4.4,28.311,28.311,0,0,0-9.757-1.267c-11.018.041-25.142,1.943-37.151,3.918-.052-.741-.118-1.479-.206-2.2C444.067,907.771,443.916,906.774,443.741,905.793Z" transform="translate(-415.076 -886.616)" fill="#363636"/>
            <path id="Path_14552" data-name="Path 14552" d="M442.2,912.972l-4.55,1.244a11.965,11.965,0,0,0-2.25-2.321l.452-.6c1.881-.424,3.863-.857,5.895-1.3C441.926,910.977,442.077,911.973,442.2,912.972Z" transform="translate(-413.086 -890.819)" fill="#363636"/>
            <path id="Path_14553" data-name="Path 14553" d="M434.775,909.959a10.6,10.6,0,0,0-2.005-1.267,10.438,10.438,0,0,0,.734-1.562,19.438,19.438,0,0,0,1-5.235,17.685,17.685,0,0,0,5.125-.009,52.478,52.478,0,0,1,1.491,6.175c-2.032.439-4.014.872-5.895,1.3Z" transform="translate(-412.457 -888.882)" fill="#363636"/>
            <path id="Path_14554" data-name="Path 14554" d="M427.625,897.722c.167.037.334.074.513.1a19.443,19.443,0,0,1-1,5.235,10.442,10.442,0,0,1-.734,1.562c-.3-.156-.618-.286-.933-.414a11.238,11.238,0,0,0-5.835-.6q-6.555-9.058-13.545-17.743a8.839,8.839,0,0,1,4.975-.993,7.528,7.528,0,0,1,2.777.992c4.219,2.461,6.156,7.967,10.308,10.528A10.4,10.4,0,0,0,427.625,897.722Z" transform="translate(-406.089 -884.806)" fill="#363636"/>
            <path id="Path_14555" data-name="Path 14555" d="M428.407,915.831q-2.234-3.215-4.527-6.384a11.239,11.239,0,0,1,5.836.6c.314.129.629.258.933.414a10.6,10.6,0,0,1,2.005,1.267,11.963,11.963,0,0,1,2.25,2.321C432.733,914.636,430.576,915.233,428.407,915.831Z" transform="translate(-410.335 -890.653)" fill="#363636"/>
          </g>
          <g id="Group_7565" data-name="Group 7565" transform="translate(107.161)">
            <path id="Path_14556" data-name="Path 14556" d="M622.56,879.848a12.377,12.377,0,0,0,1.351,1.864,33.306,33.306,0,0,1-15.83,11.051c.287-1.186.509-2.392.706-3.6a31.34,31.34,0,0,0,12.665-11.859l0,.026A13.326,13.326,0,0,0,622.56,879.848Z" transform="translate(-561.462 -837.79)" fill="#363636"/>
            <path id="Path_14557" data-name="Path 14557" d="M609.542,874.2a50.085,50.085,0,0,0,11.12-8.767,24.985,24.985,0,0,0,1.012,9.043,31.339,31.339,0,0,1-12.665,11.859A55.624,55.624,0,0,0,609.542,874.2Z" transform="translate(-561.683 -834.955)" fill="#363636"/>
            <path id="Path_14560" data-name="Path 14560" d="M609.532,872.432c-.054-.9-.157-1.782-.273-2.675a7.388,7.388,0,0,0,4.819-2.335,15.319,15.319,0,0,0,2.681-4.1,5.352,5.352,0,0,0,2.341-.083,6.435,6.435,0,0,0,1.8-.723c-.087.727-.149,1.452-.184,2.2v.014A50.081,50.081,0,0,1,609.6,873.5,10.033,10.033,0,0,0,609.532,872.432Z" transform="translate(-561.743 -834.261)" fill="#363636"/>
            <path id="Path_14561" data-name="Path 14561" d="M598.242,888.123c-.2,1.2-.419,2.41-.706,3.6a33.308,33.308,0,0,0,15.83-11.051l.014.011c1.532,1.766,3.459,3.294,4.678,5.384a24.255,24.255,0,0,1,3.2,9.853c.655,6.856-1.609,13.691-4.75,19.733-.455.857-.933,1.728-1.453,2.565-3.73-2.363-7.472-4.711-11.2-7.087A30.825,30.825,0,0,0,607,900.373c-4.69,4.518-8.9,9.747-14.921,11.481-5.515,1.591-11.688-.12-17.184.978h-.012q-4.319-.654-8.665-1.041c-.764-.072-1.539-.129-2.313-.173a183.057,183.057,0,0,0,12.808-14.681,10.619,10.619,0,0,0-4.483-3.447c2.7-5.295,4.049-11.495,8.024-15.809a15.106,15.106,0,0,1,18.453-2.765,10,10,0,0,1,.069,1.071A55.613,55.613,0,0,1,598.242,888.123Z" transform="translate(-550.918 -836.747)" fill="#363636"/>
            <path id="Path_14562" data-name="Path 14562" d="M607.3,919.73a1.332,1.332,0,0,1-.084.195c-1.209,2.327-2.863,4.618-5.265,5.439-2.23.764-4.649.109-6.924-.493a152.055,152.055,0,0,0-16.69-3.436c5.5-1.1,11.669.614,17.184-.978,6.021-1.734,10.231-6.964,14.921-11.481A30.818,30.818,0,0,1,607.3,919.73Z" transform="translate(-554.363 -845.349)" fill="#363636"/>
            <path id="Path_14563" data-name="Path 14563" d="M605.057,941.469c-.991,1.361-2.009,2.7-3.067,4.014a24.677,24.677,0,0,1-8.5-1.044,32.477,32.477,0,0,1-4.384-1.607c-5.808-2.585-10.977-6.51-16.38-9.946-.7-.438-1.482-.92-2.323-1.436a196.1,196.1,0,0,1,23.177,7.565c3.623,1.428,7.4,3,11.242,2.505A1.519,1.519,0,0,0,605.057,941.469Z" transform="translate(-552.469 -850.713)" fill="#363636"/>
            <path id="Path_14564" data-name="Path 14564" d="M599.593,939.476a1.494,1.494,0,0,1-.235.05c-3.845.5-7.619-1.077-11.242-2.505a196.139,196.139,0,0,0-23.177-7.564q-3.546-.91-7.131-1.7c-3.411-.744-6.853-1.4-10.3-1.959a17.375,17.375,0,0,1,7.086-2.118,32.837,32.837,0,0,1,4.269-.125l.012,0c.379,0,.735.021,1.115.037.774.044,1.549.1,2.313.173q4.352.392,8.665,1.041h.012a152.08,152.08,0,0,1,16.69,3.436c2.276.6,4.694,1.257,6.924.493,2.4-.821,4.056-3.111,5.265-5.439a1.34,1.34,0,0,0,.084-.195c3.732,2.376,7.474,4.724,11.2,7.087C608.352,934.719,604.539,938.726,599.593,939.476Z" transform="translate(-547.005 -848.721)" fill="#363636"/>
            <path id="Path_14565" data-name="Path 14565" d="M551.8,911.623a20.4,20.4,0,0,0,15.693-9.162,26.026,26.026,0,0,0,1.457-2.525,10.618,10.618,0,0,1,4.483,3.447,183.031,183.031,0,0,1-12.808,14.681c-.38-.016-.735-.034-1.115-.037l-.012,0c-2.7-1.878-6-4.083-9.331-6.326C550.656,911.682,551.172,911.658,551.8,911.623Z" transform="translate(-547.639 -843.192)" fill="#363636"/>
            <path id="Path_14572" data-name="Path 14572" d="M560.933,921.776c1.086.577,2.014,2.672.578,3.6-1.217.79-3.077.433-4.327.261-1.507-.208-3.027-.514-4.545-.645a13.972,13.972,0,0,1-4.03-1.428,2.69,2.69,0,0,1-1.319-.907c-.166-.258-.217-.693.047-.875a1.452,1.452,0,0,1-.231-1.929.737.737,0,0,0,.151-.275c.03-.167-.088-.3-.165-.442a1.052,1.052,0,0,1,.028-1,1.641,1.641,0,0,0,.291-.544,1.089,1.089,0,0,0-.1-.477,1.969,1.969,0,0,1,.045-1.289.414.414,0,0,1,.12-.188.325.325,0,0,1,.274-.031c.851.192,1.264.983,1.941,1.454.244.17,1.156.529,1.411.107.3-.5-.866-.986-1.136-1.122a3.7,3.7,0,0,1-1.693-1.213.326.326,0,0,1-.059-.176c0-.135.135-.231.253-.284a2.835,2.835,0,0,1,1.963.007,27.594,27.594,0,0,1,4.1,1.865,4.913,4.913,0,0,1,2.655,2.236c.4.833.448,2.026,1.239,2.525a4.6,4.6,0,0,0,1.554.429A3.67,3.67,0,0,1,560.933,921.776Z" transform="translate(-546.846 -846.596)" fill="#363636"/>
          </g>
        </g>
        <g id="Group_7567" data-name="Group 7567" transform="translate(473.088 850.366)">
          <path id="Path_14573" data-name="Path 14573" d="M535.289,904.033l-2.473-.281H532.8l-9.121-8.023-.127-1.7Z" transform="translate(-501.125 -866.745)" fill="#363636"/>
          <path id="Path_14574" data-name="Path 14574" d="M537.17,900.336l-3.689-.421-6.887-5.955,3.4.553Z" transform="translate(-501.85 -866.73)" fill="#363636"/>
          <path id="Path_14575" data-name="Path 14575" d="M532.843,904.287l-2.689-.3h-.013l-6.248-5.5-.17-2.226Z" transform="translate(-501.165 -867.28)" fill="#363636"/>
          <path id="Path_14576" data-name="Path 14576" d="M530.194,904.687l-2.986-.328-3.081-2.7-.181-2.468Z" transform="translate(-501.218 -867.978)" fill="#363636"/>
          <path id="Path_14577" data-name="Path 14577" d="M547.909,912.023l.132,1.855-23.126-2.022-.02-.021L524.757,910Z" transform="translate(-501.412 -870.559)" fill="#363636"/>
          <path id="Path_14578" data-name="Path 14578" d="M527.264,905.132l-2.892-.313-.189-2.39Z" transform="translate(-501.275 -868.751)" fill="#363636"/>
          <path id="Path_14579" data-name="Path 14579" d="M516.65,887.177l.17,2.225L517,891.87l.189,2.39.248,3.375.139,1.833-7.171-5.959-14.6-12.132c-.722-7.884-.981-15.286-1.717-23.184l21.783,18.6.321,4.231.326,4.452Z" transform="translate(-494.093 -858.193)" fill="#363636"/>
          <path id="Path_14580" data-name="Path 14580" d="M525.418,888.377l22.1,18.372.006.065-23.152-2.022-.248-3.375,2.892.314,2.987.328h.013l2.689.3h.014l2.473.281-11.734-10.009-.326-4.451Zm3.746,4.756-3.4-.553,6.887,5.955,3.688.421Z" transform="translate(-501.023 -865.35)" fill="#363636"/>
        </g>
      </g>
      <g id="Group_7568" data-name="Group 7568" transform="translate(-321.089 -263.868)">
        <g id="Group_7566-2" data-name="Group 7566" transform="translate(406.089 825.401)">
          <g id="Group_7563-2" data-name="Group 7563" transform="translate(0 52.047)">
            <path id="Path_14545-2" data-name="Path 14545" d="M548.812,927.053c5.374,6.748,10.889,13.436,17.547,18.756a50.2,50.2,0,0,0,7.671,5.1,14.75,14.75,0,0,1-2.875,1.506c-4.877,1.871-10.4.207-14.845-2.6-4.46-2.795-8.217-6.684-12.5-9.757s-18.054-10.33-23.175-9.415c-5.478.98-9.751,5.411-13.61,9.6-10.6,11.482-25.921,27.01-36.829,38.752-.279-.356-.542-.713-.821-1.068-2.133-2.777-4.253-5.556-6.4-8.332-.2-.272-.413-.557-.626-.827,14.011-14.282,31.808-33.253,43.959-48.853.443-.579.888-1.143,1.359-1.726l.013-.017c2.084-2.562,4.412-5,7.451-5.966,3.6-1.149,7.5-.015,11.068,1.29a176.861,176.861,0,0,1,18.914,8.867,20,20,0,0,0-8.154,2.437C540.925,925.437,544.886,926.2,548.812,927.053Z" transform="translate(-413.058 -888.141)" fill="#ffc400"/>
            <path id="Path_14546-2" data-name="Path 14546" d="M441.72,900.486c-.13-.477-.287-.952-.446-1.426,11.95-2.549,25.229-5.028,35.709-6.79,8.362-1.4,16.928-2.454,25.269-.943a26.067,26.067,0,0,1,3.314.839,8.966,8.966,0,0,1-5.28,6.688c-2.973,1.378-6.323,1.446-9.563,1.61-14.219.718-32.271,3.926-47.288,7.127A60.4,60.4,0,0,0,441.72,900.486Z" transform="translate(-410.447 -885.522)" fill="#ffc400"/>
            <path id="Path_14547-2" data-name="Path 14547" d="M584.7,946.121a28.4,28.4,0,0,0,9.782,1.2q-4.044,5.058-8.561,9.689c-1.333,1.371-2.7,2.714-4.092,4.015-2.549,2.394-5.378,4.753-8.753,5.206-3.3.431-6.558-1.057-9.542-2.6-9.806-5.089-27.731-16.105-36.371-23.131-2.269-1.845-4.932-3.866-7.719-3.179-1.906.462-3.329,2.118-4.631,3.669-11.387,13.55-28.772,29.938-42.78,41.127-.245-.313-.492-.64-.724-.955,10.908-11.742,26.233-27.271,36.829-38.752,3.858-4.191,8.132-8.622,13.61-9.6,5.121-.915,18.894,6.327,23.175,9.415s8.038,6.962,12.5,9.757c4.446,2.811,9.969,4.475,14.845,2.6a14.75,14.75,0,0,0,2.875-1.506,50.2,50.2,0,0,1-7.67-5.1c-6.658-5.321-12.173-12.008-17.547-18.756q4.133.9,8.207,1.953c.967.594,1.873,1.149,2.673,1.652,6.219,3.955,12.167,8.471,18.851,11.447A37.424,37.424,0,0,0,584.7,946.121Z" transform="translate(-414.167 -890.308)" fill="#ffb100"/>
            <path id="Path_14548-2" data-name="Path 14548" d="M464.608,990.617a12.975,12.975,0,0,0-6.193-.695,13.033,13.033,0,0,0-.233-1.984,22.053,22.053,0,0,0-2.118-5.734,23.2,23.2,0,0,0,6.133-4.429c2.147,2.776,4.267,5.555,6.4,8.332C467.277,987.6,465.943,989.108,464.608,990.617Z" transform="translate(-412.279 -896.322)" fill="#feb37c"/>
            <path id="Path_14549-2" data-name="Path 14549" d="M454.169,988.24a13.037,13.037,0,0,1,.233,1.984,7.935,7.935,0,0,0-1.187.208,13.346,13.346,0,0,0-5.992,3.236q-11.686-4.506-23.562-8.366a10.784,10.784,0,0,1,4.219-4.212,8.7,8.7,0,0,1,3.281-.857c5.532-.373,10.657,3.719,16.187,3.483a11.947,11.947,0,0,0,4.7-1.211A22.054,22.054,0,0,1,454.169,988.24Z" transform="translate(-408.266 -896.623)" fill="#ff65ab"/>
            <path id="Path_14550-2" data-name="Path 14550" d="M458.669,998.284q-4.046-1.648-8.115-3.217a13.346,13.346,0,0,1,5.992-3.236,7.935,7.935,0,0,1,1.187-.208,12.975,12.975,0,0,1,6.193.695Q461.313,995.308,458.669,998.284Z" transform="translate(-411.597 -898.023)" fill="#dd2b78"/>
            <path id="Path_14551-2" data-name="Path 14551" d="M443.741,907.815c15.017-3.2,33.07-6.409,47.288-7.127,3.24-.164,6.59-.232,9.563-1.61a8.965,8.965,0,0,0,5.28-6.688c5.574,1.751,10.674,5.218,15.228,8.922,3.677,2.979,9.813,7.156,15.883,11.232,3.83,2.581,7.628,5.118,10.739,7.28a37.756,37.756,0,0,0-4.912.144A176.867,176.867,0,0,0,523.9,911.1c-3.573-1.3-7.465-2.439-11.068-1.29-3.038.971-5.366,3.4-7.451,5.967l-.013.017a14.688,14.688,0,0,0-6.883-5.068,32.581,32.581,0,0,0-11.229-1.458c-12.679.047-28.933,2.236-42.754,4.509-.06-.852-.136-1.7-.237-2.535C444.116,910.09,443.943,908.943,443.741,907.815Z" transform="translate(-410.753 -885.745)" fill="#ffb100"/>
            <path id="Path_14552-2" data-name="Path 14552" d="M443.229,913.421l-5.236,1.432a13.764,13.764,0,0,0-2.589-2.671l.52-.694c2.165-.488,4.445-.987,6.784-1.491C442.91,911.124,443.083,912.271,443.229,913.421Z" transform="translate(-409.72 -887.926)" fill="#feb37c"/>
            <path id="Path_14553-2" data-name="Path 14553" d="M435.078,911.176a12.206,12.206,0,0,0-2.308-1.459,12.019,12.019,0,0,0,.845-1.8,22.374,22.374,0,0,0,1.154-6.024,20.348,20.348,0,0,0,5.9-.01,60.4,60.4,0,0,1,1.715,7.106c-2.338.5-4.619,1-6.784,1.491Z" transform="translate(-409.394 -886.922)" fill="#feb37c"/>
            <path id="Path_14554-2" data-name="Path 14554" d="M430.873,899.67c.192.042.385.085.59.11a22.374,22.374,0,0,1-1.154,6.024,12.019,12.019,0,0,1-.845,1.8c-.35-.18-.711-.329-1.073-.477a12.936,12.936,0,0,0-6.716-.69q-7.543-10.424-15.587-20.418a10.174,10.174,0,0,1,5.726-1.142,8.661,8.661,0,0,1,3.2,1.142c4.856,2.833,7.084,9.169,11.863,12.116A11.965,11.965,0,0,0,430.873,899.67Z" transform="translate(-406.089 -884.806)" fill="#ff65ab"/>
            <path id="Path_14555-2" data-name="Path 14555" d="M429.089,916.816q-2.571-3.7-5.209-7.346a12.936,12.936,0,0,1,6.716.69c.362.148.724.3,1.073.477a12.206,12.206,0,0,1,2.308,1.459,13.764,13.764,0,0,1,2.589,2.671C434.069,915.44,431.586,916.127,429.089,916.816Z" transform="translate(-408.293 -887.841)" fill="#dd2b78"/>
          </g>
          <g id="Group_7565-2" data-name="Group 7565" transform="translate(123.322)">
            <path id="Path_14556-2" data-name="Path 14556" d="M624.743,880.231a14.247,14.247,0,0,0,1.555,2.145,38.329,38.329,0,0,1-18.217,12.718c.33-1.365.585-2.753.812-4.138a36.066,36.066,0,0,0,14.575-13.648l0,.03A15.334,15.334,0,0,0,624.743,880.231Z" transform="translate(-554.431 -831.831)" fill="#f74e97"/>
            <path id="Path_14557-2" data-name="Path 14557" d="M609.622,875.52a57.635,57.635,0,0,0,12.8-10.09,28.754,28.754,0,0,0,1.164,10.407,36.066,36.066,0,0,1-14.575,13.648A64.012,64.012,0,0,0,609.622,875.52Z" transform="translate(-554.546 -830.359)" fill="#feb37c"/>
            <path id="Path_14558" data-name="Path 14558" d="M607.724,867.969a5.459,5.459,0,0,1-2.314-.371c-2.468-.968-3.975-3.562-5.04-6.092a44.558,44.558,0,0,1-3.5-17.927,10.66,10.66,0,0,0,11.255-2.2c1.2-1.19,2.851-2.928,4.518-1.652,1.357,1.062,2,4.261,1.754,5.893a11.015,11.015,0,0,0-.357,2.546c.076.866.722,1.767,1.527,1.673a1.735,1.735,0,0,0,1.191-1c.262-.485.433-1.023.726-1.481,2.288-3.378,1.5,3.835,1.516,4.508.022,2.876.041,5.739.048,8.617a6.159,6.159,0,0,1-2.694.1,17.626,17.626,0,0,1-3.086,4.713A8.5,8.5,0,0,1,607.724,867.969Z" transform="translate(-553.042 -827.12)" fill="#feb37c"/>
            <path id="Path_14559" data-name="Path 14559" d="M595.937,841.861a9.17,9.17,0,0,1-2.279-1.292,11.807,11.807,0,0,1-4.334-9.454,26.452,26.452,0,0,0,9.434-1.75c4.3-1.478,8.532-3.424,13.025-3.879s9.523.905,12.135,4.814c2.274,3.392,2.249,7.881,2.151,12.041-.116,4.131-.27,8.479-2.3,12.032a9.6,9.6,0,0,1-3.582,3.551,7.4,7.4,0,0,1-2.076.831c-.007-2.878-.026-5.74-.048-8.617-.015-.673.773-7.886-1.516-4.508-.294.458-.464,1-.726,1.481a1.735,1.735,0,0,1-1.191,1c-.805.094-1.451-.808-1.527-1.673a11.015,11.015,0,0,1,.357-2.546c.249-1.632-.4-4.831-1.754-5.893-1.667-1.276-3.316.463-4.518,1.652A10.66,10.66,0,0,1,595.937,841.861Z" transform="translate(-552.108 -825.401)" fill="#00b0ff"/>
            <path id="Path_14560-2" data-name="Path 14560" d="M609.574,873.927c-.062-1.036-.18-2.05-.315-3.078a8.5,8.5,0,0,0,5.546-2.687,17.626,17.626,0,0,0,3.086-4.713,6.159,6.159,0,0,0,2.694-.1,7.4,7.4,0,0,0,2.076-.831c-.1.837-.172,1.671-.212,2.532v.016a57.635,57.635,0,0,1-12.8,10.09A11.549,11.549,0,0,0,609.574,873.927Z" transform="translate(-554.577 -829.999)" fill="#ed8a55"/>
            <path id="Path_14561-2" data-name="Path 14561" d="M603.421,890.414c-.227,1.385-.482,2.773-.812,4.138a38.329,38.329,0,0,0,18.217-12.718l.016.013c1.763,2.033,3.98,3.791,5.384,6.2a27.913,27.913,0,0,1,3.688,11.339c.754,7.89-1.851,15.755-5.466,22.709-.524.986-1.074,1.989-1.673,2.952-4.293-2.719-8.6-5.422-12.894-8.156a35.466,35.466,0,0,0,3.617-12.375c-5.4,5.2-10.242,11.217-17.171,13.213-6.347,1.831-13.451-.138-19.776,1.125h-.014q-4.97-.753-9.971-1.2c-.879-.082-1.771-.148-2.662-.2a210.61,210.61,0,0,0,14.74-16.9,12.221,12.221,0,0,0-5.159-3.966c3.109-6.094,4.659-13.229,9.234-18.194a17.385,17.385,0,0,1,21.237-3.182,11.549,11.549,0,0,1,.08,1.233A64.012,64.012,0,0,1,603.421,890.414Z" transform="translate(-548.959 -831.289)" fill="#ff65ab"/>
            <path id="Path_14562-2" data-name="Path 14562" d="M611.669,921.351a1.532,1.532,0,0,1-.1.224c-1.391,2.678-3.294,5.315-6.059,6.259-2.566.88-5.35.125-7.968-.567a175.006,175.006,0,0,0-19.207-3.954c6.325-1.262,13.429.706,19.776-1.125,6.929-2,11.774-8.014,17.171-13.213A35.466,35.466,0,0,1,611.669,921.351Z" transform="translate(-550.747 -835.753)" fill="#dd2b78"/>
            <path id="Path_14563-2" data-name="Path 14563" d="M610.284,942.98c-1.141,1.567-2.312,3.106-3.53,4.619a28.4,28.4,0,0,1-9.782-1.2,37.424,37.424,0,0,1-5.045-1.849c-6.684-2.975-12.632-7.492-18.851-11.447-.8-.5-1.706-1.058-2.673-1.652a225.708,225.708,0,0,1,26.672,8.705c4.169,1.644,8.513,3.454,12.938,2.883A1.734,1.734,0,0,0,610.284,942.98Z" transform="translate(-549.764 -838.537)" fill="#dd2b78"/>
            <path id="Path_14564-2" data-name="Path 14564" d="M607.448,941.946a1.734,1.734,0,0,1-.271.058c-4.424.57-8.768-1.24-12.938-2.883a225.71,225.71,0,0,0-26.672-8.705q-4.081-1.047-8.207-1.953c-3.926-.856-7.887-1.616-11.852-2.254a20,20,0,0,1,8.154-2.437,37.768,37.768,0,0,1,4.912-.144l.014,0c.436,0,.845.025,1.283.043.891.051,1.783.117,2.662.2q5.008.451,9.971,1.2h.014a175.006,175.006,0,0,1,19.207,3.954c2.619.692,5.4,1.447,7.968.567,2.765-.944,4.668-3.581,6.059-6.259a1.532,1.532,0,0,0,.1-.224c4.295,2.734,8.6,5.436,12.894,8.156C617.528,936.472,613.14,941.083,607.448,941.946Z" transform="translate(-546.929 -837.503)" fill="#feb37c"/>
            <path id="Path_14565-2" data-name="Path 14565" d="M552.046,913.386a23.472,23.472,0,0,0,18.06-10.543,29.93,29.93,0,0,0,1.677-2.905,12.22,12.22,0,0,1,5.159,3.966,210.61,210.61,0,0,1-14.74,16.9c-.437-.018-.846-.039-1.283-.043l-.014,0c-3.111-2.161-6.908-4.7-10.739-7.28C550.73,913.453,551.323,913.426,552.046,913.386Z" transform="translate(-547.258 -834.634)" fill="#feb37c"/>
            <g id="Group_7564" data-name="Group 7564" transform="translate(43.641 17.215)">
              <path id="Path_14566" data-name="Path 14566" d="M604.384,850.921a12.707,12.707,0,0,1-.076,5.309,2.234,2.234,0,0,0-.079,1.131c.188.629.863.861,1.437,1" transform="translate(-597.59 -845.777)" fill="none" stroke="#9b786e" stroke-linecap="round" stroke-linejoin="round" stroke-width="0.574"/>
              <path id="Path_14567" data-name="Path 14567" d="M612.118,851.042a4.883,4.883,0,0,0-1.5-.14,1.073,1.073,0,0,1,.383-1.05.859.859,0,0,1,1.255.382,1.239,1.239,0,0,1,.114.895A1.921,1.921,0,0,0,612.118,851.042Z" transform="translate(-598.385 -845.626)" fill="#444"/>
              <path id="Path_14568" data-name="Path 14568" d="M600.42,851.461a5.477,5.477,0,0,0-1.734.373,1.228,1.228,0,0,1-.065-.281.959.959,0,0,1,.795-1.122,1.032,1.032,0,0,1,1,1C600.421,851.442,600.42,851.451,600.42,851.461Z" transform="translate(-596.9 -845.716)" fill="#444"/>
              <path id="Path_14569" data-name="Path 14569" d="M613.489,846.181a3.919,3.919,0,0,0-5.095-.35" transform="translate(-598.112 -845.049)" fill="none" stroke="#9b786e" stroke-linecap="round" stroke-linejoin="round" stroke-width="0.623"/>
              <path id="Path_14570" data-name="Path 14570" d="M601.186,846.2a3.54,3.54,0,0,0-4.528.563" transform="translate(-596.658 -845.122)" fill="none" stroke="#9b786e" stroke-linecap="round" stroke-linejoin="round" stroke-width="0.623"/>
              <path id="Path_14571" data-name="Path 14571" d="M609.146,863.246a3.972,3.972,0,0,1-5.019.687" transform="translate(-597.583 -847.303)" fill="none" stroke="#d6428b" stroke-linecap="round" stroke-linejoin="round" stroke-width="0.708"/>
            </g>
            <path id="Path_14572-2" data-name="Path 14572" d="M563.057,922.919c1.25.664,2.317,3.074.665,4.147-1.4.909-3.541.5-4.979.3-1.735-.239-3.484-.591-5.23-.742a16.072,16.072,0,0,1-4.637-1.644,3.1,3.1,0,0,1-1.517-1.044c-.191-.3-.25-.8.054-1.008a1.671,1.671,0,0,1-.265-2.22.847.847,0,0,0,.174-.316c.034-.193-.1-.35-.19-.509a1.21,1.21,0,0,1,.032-1.149,1.892,1.892,0,0,0,.335-.626,1.252,1.252,0,0,0-.113-.549,2.267,2.267,0,0,1,.052-1.483.477.477,0,0,1,.138-.216.373.373,0,0,1,.315-.035c.98.221,1.454,1.131,2.234,1.673.281.2,1.33.609,1.623.123.344-.571-1-1.135-1.307-1.291a4.257,4.257,0,0,1-1.948-1.4.376.376,0,0,1-.068-.2c.005-.156.156-.266.292-.327a3.262,3.262,0,0,1,2.259.008,31.767,31.767,0,0,1,4.713,2.147,5.654,5.654,0,0,1,3.056,2.573c.456.958.516,2.331,1.426,2.905a5.291,5.291,0,0,0,1.788.493A4.227,4.227,0,0,1,563.057,922.919Z" transform="translate(-546.846 -836.401)" fill="#feb37c"/>
          </g>
        </g>
        <g id="Group_7567-2" data-name="Group 7567" transform="translate(483.192 854.131)">
          <path id="Path_14573-2" data-name="Path 14573" d="M537.059,905.542l-2.846-.323H534.2l-10.5-9.233-.146-1.962Z" transform="translate(-497.742 -862.631)" fill="#f5f5f5"/>
          <path id="Path_14574-2" data-name="Path 14574" d="M538.765,901.3l-4.245-.484-7.925-6.854,3.909.637Z" transform="translate(-498.119 -862.623)" fill="#f5f5f5"/>
          <path id="Path_14575-2" data-name="Path 14575" d="M534.219,905.5l-3.095-.342h-.016l-7.191-6.33-.2-2.561Z" transform="translate(-497.763 -862.909)" fill="#adb5bd"/>
          <path id="Path_14576-2" data-name="Path 14576" d="M531.136,905.517l-3.437-.378-3.545-3.111-.208-2.841Z" transform="translate(-497.791 -863.271)" fill="#adb5bd"/>
          <path id="Path_14577-2" data-name="Path 14577" d="M551.4,912.328l.152,2.134-26.613-2.327-.023-.025-.161-2.11Z" transform="translate(-497.891 -864.61)" fill="#f5f5f5"/>
          <path id="Path_14578-2" data-name="Path 14578" d="M527.729,905.54l-3.328-.361-.217-2.75Z" transform="translate(-497.82 -863.672)" fill="#f5f5f5"/>
          <path id="Path_14579-2" data-name="Path 14579" d="M520.052,891.548l.2,2.561.208,2.84.217,2.75.286,3.884.16,2.11-8.252-6.857-16.8-13.962c-.831-9.073-1.129-17.591-1.976-26.681l25.068,21.4.37,4.869.375,5.123Z" transform="translate(-494.093 -858.193)" fill="#f5f5f5"/>
          <path id="Path_14580-2" data-name="Path 14580" d="M525.763,888.407l25.429,21.143.007.074L524.555,907.3l-.286-3.884,3.328.361,3.437.378h.015l3.095.342h.016l2.846.323L523.5,893.3l-.375-5.123Zm4.311,5.473-3.909-.637,7.926,6.853,4.245.484Z" transform="translate(-497.689 -861.907)" fill="#adb5bd"/>
        </g>
      </g>
    </g>
  </g>
</svg>
