<svg xmlns="http://www.w3.org/2000/svg" xmlns:xlink="http://www.w3.org/1999/xlink" width="730" height="234.293" viewBox="0 0 730 234.293">
  <defs>
    <linearGradient id="linear-gradient" x1="0.5" x2="0.5" y2="1" gradientUnits="objectBoundingBox">
      <stop offset="0" stop-color="#004c8c"/>
      <stop offset="0.404" stop-color="#002f6c"/>
      <stop offset="1" stop-color="#04194b"/>
    </linearGradient>
    <clipPath id="clip-path">
      <rect id="Rectangle_601" data-name="Rectangle 601" width="730" height="175" rx="10" transform="translate(275 188)" fill="url(#linear-gradient)"/>
    </clipPath>
  </defs>
  <g id="Group_7630" data-name="Group 7630" transform="translate(-275 -188)">
    <rect id="Rectangle_600" data-name="Rectangle 600" width="730" height="175" rx="10" transform="translate(275 188)" fill="url(#linear-gradient)"/>
    <g id="Group_7623" data-name="Group 7623" transform="translate(-655.282 194.428)" opacity="0.145">
      <g id="Group_7618" data-name="Group 7618" transform="translate(1206.282 144.934)">
        <path id="Path_14662" data-name="Path 14662" d="M1320.325,195.5c-.969-1.068-2.7-.6-4.075-.173a24.289,24.289,0,0,1-10.153.9c-3.228-.4-5.988-3.162-8.349-5.293-.811-.732-1.6-1.491-2.451-2.174a29.389,29.389,0,0,0-7.3-4.035c-.418-.173-.816-.368-1.208-.573-.367-.288-.74-.567-1.136-.83l.352.4a39.155,39.155,0,0,0-4.079-2.245,28.11,28.11,0,0,0-5.283-1.85,11.239,11.239,0,0,0-3.818-.237,14.224,14.224,0,0,0-5.1,1.873c-.642.353-1.276.727-1.9,1.1q-13.089,7.854-26.189,15.709c.161.375.332.738.5,1.106q1,2.155,2.082,4.262c.153.31.305.61.469.913q6.849-3.426,13.966-6.276,4.609-1.85,9.292-3.452c2.224-.767,4.757-1.934,7.193-2.234a8.623,8.623,0,0,1,1.649-.061c3.445.234,6.2,2.653,9.062,4.3,2.686,1.556,5.376,3.1,8.058,4.666q3.49-1.725,6.991-3.437a6.39,6.39,0,0,0,1.163.37c1.117.245,2.273.274,3.385.541a8.9,8.9,0,0,1,1.1.352q1.612,1.118,3.213,2.24a20.637,20.637,0,0,1,3.322,2.661,6.857,6.857,0,0,1,1.925,3.738,4.444,4.444,0,0,1-.585,2.863l.774-.21a12.455,12.455,0,0,0,1.927-.707c.008.027.02.055.028.082a6.7,6.7,0,0,0,3.981-3.582,19.124,19.124,0,0,0,1.5-5.286,13.3,13.3,0,0,0,.307-3.811A2.827,2.827,0,0,0,1320.325,195.5Z" transform="translate(-1217.207 -179.319)" fill="#363636"/>
        <path id="Path_14663" data-name="Path 14663" d="M1324.01,216.608a4.443,4.443,0,0,1-.585,2.863c-1.62.43-3.249.871-4.869,1.29a98.767,98.767,0,0,0-14.663,1.015c-3.049.491-6.189,1.261-8.594,3.2-2.7,2.17-4.163,5.513-5.358,8.769a117.379,117.379,0,0,0-4.192,14.092q-2.341,4.771-4.57,9.6c-.707-.171-1.41-.364-2.121-.567q-2.3-.63-4.562-1.335c-.427-.128-.85-.268-1.267-.409a108.657,108.657,0,0,0,4.245-12.059c.714-2.484,1.054-4.894,1.97-7.294q1.541-4.046,3.074-8.077c1.115-2.917,2.267-5.9,4.338-8.237,2.228-2.517,5.339-4.063,8.359-5.542q3.856-1.889,7.694-3.777,2.417-1.194,4.836-2.382c1.287-.632,2.734-1.778,4.222-1.357,2.645.749,4.529,2.219,6.8,3.805a20.642,20.642,0,0,1,3.322,2.661A6.856,6.856,0,0,1,1324.01,216.608Z" transform="translate(-1228.215 -188.162)" fill="#363636"/>
        <path id="Path_14664" data-name="Path 14664" d="M1309.994,228.816a98.763,98.763,0,0,1,14.663-1.015q-6.7,1.786-13.388,3.572a30.662,30.662,0,0,0-7.542,2.738c-2.551,1.46-3.549,4.533-4.893,7.067q-2.3,4.338-4.513,8.725-1.259,2.475-2.47,4.97a117.379,117.379,0,0,1,4.192-14.092c1.195-3.256,2.653-6.6,5.358-8.769C1303.8,230.077,1306.944,229.307,1309.994,228.816Z" transform="translate(-1234.315 -195.202)" fill="#363636"/>
        <path id="Path_14665" data-name="Path 14665" d="M1280.408,281.034c.268.082.545.153.816.218-.237.528-.484,1.058-.731,1.592-.267-.077-.545-.147-.812-.229-.658-.182-1.316-.358-1.974-.535-1.533-.431-3.077-.855-4.609-1.269-.46-.13-.919-.254-1.373-.374l-.852-.241c.138-.615.276-1.234.407-1.86.4.138.783.26,1.177.387.418.141.84.28,1.267.409q2.267.708,4.562,1.335C1279,280.671,1279.7,280.863,1280.408,281.034Z" transform="translate(-1227.443 -211.758)" fill="#363636"/>
        <path id="Path_14666" data-name="Path 14666" d="M1277.594,283.285a22.619,22.619,0,0,0-1.263,4.887,18.826,18.826,0,0,1-2.613-.517,18.4,18.4,0,0,1-3.192-1.164,14.354,14.354,0,0,0,2.459-4.475C1274.517,282.43,1276.06,282.854,1277.594,283.285Z" transform="translate(-1227.329 -212.964)" fill="#363636"/>
        <path id="Path_14667" data-name="Path 14667" d="M1272.809,290.92a.037.037,0,0,0-.008.029c-.14,1.136-.18,2.275-.255,3.409q-6.322,1.757-12.771,3.063a16.867,16.867,0,0,1,4.6-3.067c2.108-1.049,4.372-2.166,5.819-3.952A18.826,18.826,0,0,0,1272.809,290.92Z" transform="translate(-1223.807 -215.712)" fill="#363636"/>
        <path id="Path_14668" data-name="Path 14668" d="M1263.774,288.672a18.4,18.4,0,0,0,3.192,1.164c-1.448,1.785-3.711,2.9-5.819,3.952a16.866,16.866,0,0,0-4.6,3.067q-3.3.677-6.626,1.222a2.3,2.3,0,0,1,.342-1.314,5.168,5.168,0,0,1,1.665-1.532c3.176-2.124,6.753-3.447,10.109-5.181A5.949,5.949,0,0,0,1263.774,288.672Z" transform="translate(-1220.577 -215.144)" fill="#363636"/>
        <path id="Path_14669" data-name="Path 14669" d="M1241.6,212.882c.3.6.619,1.2.943,1.781-.559.184-1.124.358-1.677.535-.256-.517-.522-1.032-.789-1.548-.174-.346-.354-.691-.527-1.031q-1.083-2.121-2.168-4.246c-.348-.692-.7-1.378-1.054-2.064.547-.319,1.095-.639,1.653-.955.178.422.361.838.565,1.247.161.375.332.738.5,1.106q1,2.155,2.082,4.262C1241.287,212.279,1241.439,212.579,1241.6,212.882Z" transform="translate(-1216.126 -187.848)" fill="#363636"/>
        <path id="Path_14670" data-name="Path 14670" d="M1235.475,209.844q1.085,2.128,2.168,4.246a23.036,23.036,0,0,0-4.452,2.363,19.691,19.691,0,0,1-1.386-2.264,18.451,18.451,0,0,1-1.3-3.146A14.58,14.58,0,0,0,1235.475,209.844Z" transform="translate(-1214.217 -189.319)" fill="#363636"/>
        <path id="Path_14671" data-name="Path 14671" d="M1219.645,213.239c2.194.849,4.549,1.759,6.841,1.631a19.709,19.709,0,0,0,1.386,2.264c-.009.012-.031.015-.035.026-.922.662-1.791,1.394-2.681,2.1q-5.574-3.459-10.888-7.34A16.915,16.915,0,0,1,1219.645,213.239Z" transform="translate(-1208.899 -190)" fill="#363636"/>
        <path id="Path_14672" data-name="Path 14672" d="M1223.87,212.546c-2.292.128-4.647-.782-6.841-1.631a16.916,16.916,0,0,0-5.376-1.318q-2.729-1.991-5.37-4.071a2.294,2.294,0,0,1,1.2-.641,5.379,5.379,0,0,1,2.255.194c3.709.908,7.1,2.657,10.649,3.969a5.809,5.809,0,0,0,2.177.352A18.452,18.452,0,0,0,1223.87,212.546Z" transform="translate(-1206.282 -187.676)" fill="#363636"/>
      </g>
      <g id="Group_7621" data-name="Group 7621" transform="translate(1264.561 74.365)">
        <path id="Path_14673" data-name="Path 14673" d="M1411.2,118.349c-5.029-4.018-12.062-4.379-18.446-3.555-2.515.325-5.162.791-7.517-.152-3.81-1.525-5.323-5.981-6.77-9.822A19.349,19.349,0,0,0,1374,97.284c-1.548-1.445-7.414-6.409-8.293-2.1-.628,3.077.227,6.195.177,9.308,4.6,11.71,16.836,18.655,29.522,23.866,7.984,3.613,11.544,12.7,11.86,22.241a23.972,23.972,0,0,0,7.827-6.513,14.737,14.737,0,0,0,2.537-4.668,16.4,16.4,0,0,0,.5-5.728C1417.783,127.92,1415.721,121.955,1411.2,118.349Z" transform="translate(-1316.714 -80.621)" fill="#363636"/>
        <path id="Path_14674" data-name="Path 14674" d="M1393.991,133.73c-12.686-5.212-24.927-12.157-29.522-23.866a11.134,11.134,0,0,1-.563,3.5c-.586,1.7-1.608,3.217-2.2,4.913a10.54,10.54,0,0,0,2.135,10.348c1.649,1.8,3.876,2.96,5.733,4.547a21.784,21.784,0,0,1,6.259,9.9c.925,2.9,1.521,6.24,2.854,8.981,3.549,7.3,14.559,7.774,21.475,6.078a25.1,25.1,0,0,0,5.687-2.157C1405.535,146.43,1401.975,137.343,1393.991,133.73Z" transform="translate(-1315.303 -85.995)" fill="#363636"/>
        <path id="Path_14675" data-name="Path 14675" d="M1440.656,108a.514.514,0,0,0-.141-.671.745.745,0,0,0-.443-.032,11.271,11.271,0,0,0-4.578,1.712,14.532,14.532,0,0,1-1.8,1.141,2.657,2.657,0,0,1-2.07.16.453.453,0,0,1,.058-.588,1.579,1.579,0,0,1,.552-.318,2.31,2.31,0,0,0,.957-.644,1.031,1.031,0,0,0,.163-1.088c-2.374,1.013-4.717,1.253-6.323,3.4a33.179,33.179,0,0,0-2.3,3.595l2.761,3.022a20.731,20.731,0,0,1,1.426-1.617,3.605,3.605,0,0,1,1.763-2.219,51.355,51.355,0,0,0,5.841-2.935q1.853-1.087,3.595-2.324l-.008-.083A1.466,1.466,0,0,0,1440.656,108Z" transform="translate(-1336.127 -85.147)" fill="#363636"/>
        <g id="Group_7619" data-name="Group 7619">
          <path id="Path_14676" data-name="Path 14676" d="M1295.886,88.988a8.242,8.242,0,0,1,.85,1.573,20.487,20.487,0,0,1,1.121,4.052c.021.076.043.153.064.229l3.889-1.4c-.4-1.013-.792-2.029-1.17-3.049-.229-.612-.457-1.228-.674-1.84l-.709-1.356a5.178,5.178,0,0,1-1.148-1.148c-.093-.106-.19-.214-.3-.315a2,2,0,0,0-1.025-.582,9.965,9.965,0,0,1-1.28-.065,2.1,2.1,0,0,1-.908-.7c-.312-.352-.614-.711-.9-1.077.328,1.232.7,2.435,1.129,3.671a6.937,6.937,0,0,0,.494,1.171C1295.481,88.445,1295.694,88.706,1295.886,88.988Z" transform="translate(-1293.2 -77.295)" fill="#363636"/>
          <path id="Path_14677" data-name="Path 14677" d="M1297.952,79.994a.526.526,0,0,1-.433-.169,1.5,1.5,0,0,1,.048.768c-.092.309-.362.253-.569.41-.282.192-.19.37-.347.621-.365.607-.765,0-1.194.266-.115.071-.059.276-.169.349-.18.109-.253.083-.449-.007a1.054,1.054,0,0,1-.29-.192,4.517,4.517,0,0,1-.615-.723,6.255,6.255,0,0,1-.531-.779c.059.267.126.531.2.8.288.366.59.726.9,1.077a2.094,2.094,0,0,0,.908.7,9.844,9.844,0,0,0,1.28.066,2,2,0,0,1,1.025.582,3.257,3.257,0,0,1,.389-1.163c.561-1,1.494-1.7,1.84-2.663-.206.073-.422-.111-.559-.3a7.509,7.509,0,0,1-1.146-2.086,1.875,1.875,0,0,1-.087-.272c.056.428.1.859.141,1.29a3.847,3.847,0,0,1,0,.82,1.417,1.417,0,0,1-.055.266A.471.471,0,0,1,1297.952,79.994Z" transform="translate(-1293.103 -75.319)" fill="#363636"/>
          <path id="Path_14678" data-name="Path 14678" d="M1295.142,81.856c.11-.073.054-.278.169-.349.429-.266.829.341,1.194-.266.157-.251.065-.43.347-.621.207-.157.477-.1.57-.41a1.5,1.5,0,0,0-.048-.768.526.526,0,0,0,.433.169.471.471,0,0,0,.286-.34,1.417,1.417,0,0,0,.055-.266l-1.339-.471a.632.632,0,0,0-.022-.2c-.066-.306-.2-.675-.311-1.063l0-.007c-.18-.379-.454-1-.9-1.118-.931-.258-.5.972-.964,1.168a1.124,1.124,0,0,0-.5.357c-.118.19.009.426-.075.564-.2.355-.861.194-1.037.726a1.486,1.486,0,0,0,.251,1.187s0,.007,0,.007a6.242,6.242,0,0,0,.531.779,4.5,4.5,0,0,0,.615.723,1.052,1.052,0,0,0,.29.192C1294.889,81.939,1294.962,81.965,1295.142,81.856Z" transform="translate(-1292.958 -74.936)" fill="#363636"/>
          <path id="Path_14679" data-name="Path 14679" d="M1302.994,75c-1.367.373-.658,2.788-.713,3.723-.008.171-.048.377-.213.45a.04.04,0,0,1-.021.009l0,.005c-.346.965-1.278,1.658-1.84,2.663a3.252,3.252,0,0,0-.389,1.163c.107.1.2.209.3.315a5.179,5.179,0,0,0,1.148,1.148l.709,1.356c.217.612.444,1.228.674,1.84a10.057,10.057,0,0,1,.214-1.637c.289-1.363.789-2.671,1.15-4.022a5.848,5.848,0,0,0,.25-1.856c-.085-1.321-.828-2.515-1-3.824A3.5,3.5,0,0,0,1302.994,75Z" transform="translate(-1295.204 -74.573)" fill="#363636"/>
          <path id="Path_14680" data-name="Path 14680" d="M1298.251,74.436a.836.836,0,0,0-.326.42,3.09,3.09,0,0,0,.146,1.835l0,.007c.116.388.245.757.311,1.063a.639.639,0,0,1,.022.2l1.339.471a3.847,3.847,0,0,0,0-.82c-.036-.431-.085-.862-.141-1.29-.18-.627-.366-1.563-.85-1.893A.494.494,0,0,0,1298.251,74.436Z" transform="translate(-1294.555 -74.365)" fill="#363636"/>
        </g>
        <path id="Path_14681" data-name="Path 14681" d="M1407.34,119.407c-.522-.451-1.049-.915-1.571-1.367l-.314.357a40.617,40.617,0,0,1-22.814,17.085c-4.414,1.271-9.163,1.842-12.985,4.387-4.38,2.907-6.338,7.591-7.9,12.39a65.78,65.78,0,0,0-2.717,15.455c-.082,1.093-1.708,10.448-2.466,12.842a29.615,29.615,0,0,0,8.118-2.185c.143-1.013.1-2.038.178-3.072.119-1.672.212-3.337.253-5.013a59.4,59.4,0,0,1,.7-9.707,58.409,58.409,0,0,1,4.251-14.49c2.873-5.99,13.485-7.466,19.014-10.041a36.61,36.61,0,0,0,10.222-7.1c2.964-2.93,5.407-6.341,8.4-9.22C1407.588,119.623,1407.466,119.511,1407.34,119.407Z" transform="translate(-1313.799 -88.673)" fill="#363636"/>
        <path id="Path_14682" data-name="Path 14682" d="M1375.463,114.444A3.351,3.351,0,0,1,1373.93,116a17.4,17.4,0,0,1-3.178,1.493,3.99,3.99,0,0,0,.117-.959l.178-2.049a1.9,1.9,0,0,0,1.7-.7c.53-.575,1.165-1.306,1.936-1.142A1.355,1.355,0,0,1,1375.463,114.444Z" transform="translate(-1318.444 -86.898)" fill="#363636"/>
        <path id="Path_14683" data-name="Path 14683" d="M1354.442,128.706c.406-1.244.783-2.488,1.132-3.74l8.687.1c-.609,1.628-1.159,3.287-1.627,4.974-.19.672-.368,1.337-.522,2.021a21.493,21.493,0,0,1-10.367,4.114C1352.73,133.722,1353.637,131.227,1354.442,128.706Z" transform="translate(-1312.217 -90.942)" fill="#363636"/>
        <path id="Path_14684" data-name="Path 14684" d="M1366.327,100.289a4,4,0,0,1,.766,4.594c-.248.4-.6.735-.807,1.146a1.171,1.171,0,0,0,.052,1.32.816.816,0,0,0,.327.223,1.9,1.9,0,0,0,1.7-.7c.531-.575,1.165-1.306,1.936-1.142a1.355,1.355,0,0,1,.775,1.8,3.351,3.351,0,0,1-1.533,1.554,17.4,17.4,0,0,1-3.178,1.493,4.841,4.841,0,0,1-.568,1.471,37.067,37.067,0,0,0,8-3.849c2.147-2.824,2-7.7.379-10.678-2.433-4.47-8.779-6.688-13.625-5.807a3.942,3.942,0,0,0-2.829,1.594c-.564.968-.52,2.749.6,2.811l1.453.62c.766.324,1.543.651,2.316.987A11.5,11.5,0,0,1,1366.327,100.289Z" transform="translate(-1314.061 -79.987)" fill="#363636"/>
        <path id="Path_14685" data-name="Path 14685" d="M1356.614,114.774c-.945.038-2.243-.031-2.74-.988a7.07,7.07,0,0,1-.335-3.472,16.633,16.633,0,0,1,.907-4.557c.5-1.429,1.348-2.642,1.85-4.065.292-.827.61-2.5,1.74-2.655a.609.609,0,0,1,.265.041c.868.278,1.68.754,2.524,1.109a11.5,11.5,0,0,1,4.229,2.562,4,4,0,0,1,.766,4.594c-.248.4-.6.735-.807,1.146a1.171,1.171,0,0,0,.052,1.32.825.825,0,0,0,.327.224l-.178,2.049a3.99,3.99,0,0,1-.117.959,34.913,34.913,0,0,1-6.742,1.553A13.955,13.955,0,0,1,1356.614,114.774Z" transform="translate(-1312.786 -82.447)" fill="#363636"/>
        <path id="Path_14686" data-name="Path 14686" d="M1359.649,121.339c1.333-.2,2.662-.425,3.973-.738a23.4,23.4,0,0,1,3.506-.976c-.547.038-.831,2.615-.917,3.03-.112.9.044.719-.835.7-1.221-.03-2.777-.075-4-.09l-3.936-.047s.318-1.133.471-1.7A13.956,13.956,0,0,0,1359.649,121.339Z" transform="translate(-1314.083 -89.193)" fill="#363636"/>
        <path id="Path_14687" data-name="Path 14687" d="M1384.073,107.76c-.21-.184-.428-.369-.638-.553-.956,1.226-1.819,2.505-2.877,3.677A33.1,33.1,0,0,1,1376,115a32.37,32.37,0,0,1-31.587,4.141c-.19.672-.368,1.337-.522,2.021a21.493,21.493,0,0,1-10.368,4.114c.985-2.458,1.892-4.953,2.7-7.474a51.387,51.387,0,0,1-34.1-26.11c-.288.134-.588.273-.885.4a25.329,25.329,0,0,1-4.582,1.526c-.175.04-.351.081-.523.113a38.782,38.782,0,0,0,4.853,12.569c4.728,7.857,12.233,13.021,19.5,18.261,1.841,1.327,3.839,3.135,3.595,5.391-.157,1.448-1.218,2.61-1.854,3.919a7.008,7.008,0,0,0-.691,2.657,21.943,21.943,0,0,0,.187,3.024,19.765,19.765,0,0,1-9.914,18.477,71.274,71.274,0,0,0,10.591,9.319,27.276,27.276,0,0,0,8.008,3.749,32.608,32.608,0,0,0,4.76.915c.044,0,.087-.008.133-.009a18.737,18.737,0,0,0,2.072-.152.635.635,0,0,0,.358-.372c1.191-3.987.943-7.991,1.51-12.04s1.162-8.169,1.9-12.2c1.12-6.147,3.512-12.555,8.715-16.009,3.821-2.544,8.57-3.115,12.984-4.387a40.618,40.618,0,0,0,22.815-17.085l.314-.357C1385.341,108.861,1384.7,108.309,1384.073,107.76Z" transform="translate(-1293.999 -80.043)" fill="#363636"/>
      </g>
    </g>
    <g id="Group_7622" data-name="Group 7622" transform="translate(-657.282 187.428)">
      <g id="Group_7618-2" data-name="Group 7618" transform="translate(1206.282 144.934)">
        <path id="Path_14662-2" data-name="Path 14662" d="M1320.325,195.5c-.969-1.068-2.7-.6-4.075-.173a24.289,24.289,0,0,1-10.153.9c-3.228-.4-5.988-3.162-8.349-5.293-.811-.732-1.6-1.491-2.451-2.174a29.389,29.389,0,0,0-7.3-4.035c-.418-.173-.816-.368-1.208-.573-.367-.288-.74-.567-1.136-.83l.352.4a39.155,39.155,0,0,0-4.079-2.245,28.11,28.11,0,0,0-5.283-1.85,11.239,11.239,0,0,0-3.818-.237,14.224,14.224,0,0,0-5.1,1.873c-.642.353-1.276.727-1.9,1.1q-13.089,7.854-26.189,15.709c.161.375.332.738.5,1.106q1,2.155,2.082,4.262c.153.31.305.61.469.913q6.849-3.426,13.966-6.276,4.609-1.85,9.292-3.452c2.224-.767,4.757-1.934,7.193-2.234a8.623,8.623,0,0,1,1.649-.061c3.445.234,6.2,2.653,9.062,4.3,2.686,1.556,5.376,3.1,8.058,4.666q3.49-1.725,6.991-3.437a6.39,6.39,0,0,0,1.163.37c1.117.245,2.273.274,3.385.541a8.9,8.9,0,0,1,1.1.352q1.612,1.118,3.213,2.24a20.637,20.637,0,0,1,3.322,2.661,6.857,6.857,0,0,1,1.925,3.738,4.444,4.444,0,0,1-.585,2.863l.774-.21a12.455,12.455,0,0,0,1.927-.707c.008.027.02.055.028.082a6.7,6.7,0,0,0,3.981-3.582,19.124,19.124,0,0,0,1.5-5.286,13.3,13.3,0,0,0,.307-3.811A2.827,2.827,0,0,0,1320.325,195.5Z" transform="translate(-1217.207 -179.319)" fill="#ffb100"/>
        <path id="Path_14663-2" data-name="Path 14663" d="M1324.01,216.608a4.443,4.443,0,0,1-.585,2.863c-1.62.43-3.249.871-4.869,1.29a98.767,98.767,0,0,0-14.663,1.015c-3.049.491-6.189,1.261-8.594,3.2-2.7,2.17-4.163,5.513-5.358,8.769a117.379,117.379,0,0,0-4.192,14.092q-2.341,4.771-4.57,9.6c-.707-.171-1.41-.364-2.121-.567q-2.3-.63-4.562-1.335c-.427-.128-.85-.268-1.267-.409a108.657,108.657,0,0,0,4.245-12.059c.714-2.484,1.054-4.894,1.97-7.294q1.541-4.046,3.074-8.077c1.115-2.917,2.267-5.9,4.338-8.237,2.228-2.517,5.339-4.063,8.359-5.542q3.856-1.889,7.694-3.777,2.417-1.194,4.836-2.382c1.287-.632,2.734-1.778,4.222-1.357,2.645.749,4.529,2.219,6.8,3.805a20.642,20.642,0,0,1,3.322,2.661A6.856,6.856,0,0,1,1324.01,216.608Z" transform="translate(-1228.215 -188.162)" fill="#ffc400"/>
        <path id="Path_14664-2" data-name="Path 14664" d="M1309.994,228.816a98.763,98.763,0,0,1,14.663-1.015q-6.7,1.786-13.388,3.572a30.662,30.662,0,0,0-7.542,2.738c-2.551,1.46-3.549,4.533-4.893,7.067q-2.3,4.338-4.513,8.725-1.259,2.475-2.47,4.97a117.379,117.379,0,0,1,4.192-14.092c1.195-3.256,2.653-6.6,5.358-8.769C1303.8,230.077,1306.944,229.307,1309.994,228.816Z" transform="translate(-1234.315 -195.202)" fill="#ffb100"/>
        <path id="Path_14665-2" data-name="Path 14665" d="M1280.408,281.034c.268.082.545.153.816.218-.237.528-.484,1.058-.731,1.592-.267-.077-.545-.147-.812-.229-.658-.182-1.316-.358-1.974-.535-1.533-.431-3.077-.855-4.609-1.269-.46-.13-.919-.254-1.373-.374l-.852-.241c.138-.615.276-1.234.407-1.86.4.138.783.26,1.177.387.418.141.84.28,1.267.409q2.267.708,4.562,1.335C1279,280.671,1279.7,280.863,1280.408,281.034Z" transform="translate(-1227.443 -211.758)" fill="#ffc400"/>
        <path id="Path_14666-2" data-name="Path 14666" d="M1277.594,283.285a22.619,22.619,0,0,0-1.263,4.887,18.826,18.826,0,0,1-2.613-.517,18.4,18.4,0,0,1-3.192-1.164,14.354,14.354,0,0,0,2.459-4.475C1274.517,282.43,1276.06,282.854,1277.594,283.285Z" transform="translate(-1227.329 -212.964)" fill="#feb37c"/>
        <path id="Path_14667-2" data-name="Path 14667" d="M1272.809,290.92a.037.037,0,0,0-.008.029c-.14,1.136-.18,2.275-.255,3.409q-6.322,1.757-12.771,3.063a16.867,16.867,0,0,1,4.6-3.067c2.108-1.049,4.372-2.166,5.819-3.952A18.826,18.826,0,0,0,1272.809,290.92Z" transform="translate(-1223.807 -215.712)" fill="#ff65ab"/>
        <path id="Path_14668-2" data-name="Path 14668" d="M1263.774,288.672a18.4,18.4,0,0,0,3.192,1.164c-1.448,1.785-3.711,2.9-5.819,3.952a16.866,16.866,0,0,0-4.6,3.067q-3.3.677-6.626,1.222a2.3,2.3,0,0,1,.342-1.314,5.168,5.168,0,0,1,1.665-1.532c3.176-2.124,6.753-3.447,10.109-5.181A5.949,5.949,0,0,0,1263.774,288.672Z" transform="translate(-1220.577 -215.144)" fill="#ff65ab"/>
        <path id="Path_14669-2" data-name="Path 14669" d="M1241.6,212.882c.3.6.619,1.2.943,1.781-.559.184-1.124.358-1.677.535-.256-.517-.522-1.032-.789-1.548-.174-.346-.354-.691-.527-1.031q-1.083-2.121-2.168-4.246c-.348-.692-.7-1.378-1.054-2.064.547-.319,1.095-.639,1.653-.955.178.422.361.838.565,1.247.161.375.332.738.5,1.106q1,2.155,2.082,4.262C1241.287,212.279,1241.439,212.579,1241.6,212.882Z" transform="translate(-1216.126 -187.848)" fill="#ffc400"/>
        <path id="Path_14670-2" data-name="Path 14670" d="M1235.475,209.844q1.085,2.128,2.168,4.246a23.036,23.036,0,0,0-4.452,2.363,19.691,19.691,0,0,1-1.386-2.264,18.451,18.451,0,0,1-1.3-3.146A14.58,14.58,0,0,0,1235.475,209.844Z" transform="translate(-1214.217 -189.319)" fill="#feb37c"/>
        <path id="Path_14671-2" data-name="Path 14671" d="M1219.645,213.239c2.194.849,4.549,1.759,6.841,1.631a19.709,19.709,0,0,0,1.386,2.264c-.009.012-.031.015-.035.026-.922.662-1.791,1.394-2.681,2.1q-5.574-3.459-10.888-7.34A16.915,16.915,0,0,1,1219.645,213.239Z" transform="translate(-1208.899 -190)" fill="#dd2b78"/>
        <path id="Path_14672-2" data-name="Path 14672" d="M1223.87,212.546c-2.292.128-4.647-.782-6.841-1.631a16.916,16.916,0,0,0-5.376-1.318q-2.729-1.991-5.37-4.071a2.294,2.294,0,0,1,1.2-.641,5.379,5.379,0,0,1,2.255.194c3.709.908,7.1,2.657,10.649,3.969a5.809,5.809,0,0,0,2.177.352A18.452,18.452,0,0,0,1223.87,212.546Z" transform="translate(-1206.282 -187.676)" fill="#ff65ab"/>
      </g>
      <g id="Group_7621-2" data-name="Group 7621" transform="translate(1264.561 74.365)">
        <path id="Path_14673-2" data-name="Path 14673" d="M1411.2,118.349c-5.029-4.018-12.062-4.379-18.446-3.555-2.515.325-5.162.791-7.517-.152-3.81-1.525-5.323-5.981-6.77-9.822A19.349,19.349,0,0,0,1374,97.284c-1.548-1.445-7.414-6.409-8.293-2.1-.628,3.077.227,6.195.177,9.308,4.6,11.71,16.836,18.655,29.522,23.866,7.984,3.613,11.544,12.7,11.86,22.241a23.972,23.972,0,0,0,7.827-6.513,14.737,14.737,0,0,0,2.537-4.668,16.4,16.4,0,0,0,.5-5.728C1417.783,127.92,1415.721,121.955,1411.2,118.349Z" transform="translate(-1316.714 -80.621)" fill="#00b0ff"/>
        <path id="Path_14674-2" data-name="Path 14674" d="M1393.991,133.73c-12.686-5.212-24.927-12.157-29.522-23.866a11.134,11.134,0,0,1-.563,3.5c-.586,1.7-1.608,3.217-2.2,4.913a10.54,10.54,0,0,0,2.135,10.348c1.649,1.8,3.876,2.96,5.733,4.547a21.784,21.784,0,0,1,6.259,9.9c.925,2.9,1.521,6.24,2.854,8.981,3.549,7.3,14.559,7.774,21.475,6.078a25.1,25.1,0,0,0,5.687-2.157C1405.535,146.43,1401.975,137.343,1393.991,133.73Z" transform="translate(-1315.303 -85.995)" fill="#007ab1"/>
        <path id="Path_14675-2" data-name="Path 14675" d="M1440.656,108a.514.514,0,0,0-.141-.671.745.745,0,0,0-.443-.032,11.271,11.271,0,0,0-4.578,1.712,14.532,14.532,0,0,1-1.8,1.141,2.657,2.657,0,0,1-2.07.16.453.453,0,0,1,.058-.588,1.579,1.579,0,0,1,.552-.318,2.31,2.31,0,0,0,.957-.644,1.031,1.031,0,0,0,.163-1.088c-2.374,1.013-4.717,1.253-6.323,3.4a33.179,33.179,0,0,0-2.3,3.595l2.761,3.022a20.731,20.731,0,0,1,1.426-1.617,3.605,3.605,0,0,1,1.763-2.219,51.355,51.355,0,0,0,5.841-2.935q1.853-1.087,3.595-2.324l-.008-.083A1.466,1.466,0,0,0,1440.656,108Z" transform="translate(-1336.127 -85.147)" fill="#feb37c"/>
        <g id="Group_7619-2" data-name="Group 7619">
          <path id="Path_14676-2" data-name="Path 14676" d="M1295.886,88.988a8.242,8.242,0,0,1,.85,1.573,20.487,20.487,0,0,1,1.121,4.052c.021.076.043.153.064.229l3.889-1.4c-.4-1.013-.792-2.029-1.17-3.049-.229-.612-.457-1.228-.674-1.84l-.709-1.356a5.178,5.178,0,0,1-1.148-1.148c-.093-.106-.19-.214-.3-.315a2,2,0,0,0-1.025-.582,9.965,9.965,0,0,1-1.28-.065,2.1,2.1,0,0,1-.908-.7c-.312-.352-.614-.711-.9-1.077.328,1.232.7,2.435,1.129,3.671a6.937,6.937,0,0,0,.494,1.171C1295.481,88.445,1295.694,88.706,1295.886,88.988Z" transform="translate(-1293.2 -77.295)" fill="#feb37c"/>
          <path id="Path_14677-2" data-name="Path 14677" d="M1297.952,79.994a.526.526,0,0,1-.433-.169,1.5,1.5,0,0,1,.048.768c-.092.309-.362.253-.569.41-.282.192-.19.37-.347.621-.365.607-.765,0-1.194.266-.115.071-.059.276-.169.349-.18.109-.253.083-.449-.007a1.054,1.054,0,0,1-.29-.192,4.517,4.517,0,0,1-.615-.723,6.255,6.255,0,0,1-.531-.779c.059.267.126.531.2.8.288.366.59.726.9,1.077a2.094,2.094,0,0,0,.908.7,9.844,9.844,0,0,0,1.28.066,2,2,0,0,1,1.025.582,3.257,3.257,0,0,1,.389-1.163c.561-1,1.494-1.7,1.84-2.663-.206.073-.422-.111-.559-.3a7.509,7.509,0,0,1-1.146-2.086,1.875,1.875,0,0,1-.087-.272c.056.428.1.859.141,1.29a3.847,3.847,0,0,1,0,.82,1.417,1.417,0,0,1-.055.266A.471.471,0,0,1,1297.952,79.994Z" transform="translate(-1293.103 -75.319)" fill="#ed8a55"/>
          <path id="Path_14678-2" data-name="Path 14678" d="M1295.142,81.856c.11-.073.054-.278.169-.349.429-.266.829.341,1.194-.266.157-.251.065-.43.347-.621.207-.157.477-.1.57-.41a1.5,1.5,0,0,0-.048-.768.526.526,0,0,0,.433.169.471.471,0,0,0,.286-.34,1.417,1.417,0,0,0,.055-.266l-1.339-.471a.632.632,0,0,0-.022-.2c-.066-.306-.2-.675-.311-1.063l0-.007c-.18-.379-.454-1-.9-1.118-.931-.258-.5.972-.964,1.168a1.124,1.124,0,0,0-.5.357c-.118.19.009.426-.075.564-.2.355-.861.194-1.037.726a1.486,1.486,0,0,0,.251,1.187s0,.007,0,.007a6.242,6.242,0,0,0,.531.779,4.5,4.5,0,0,0,.615.723,1.052,1.052,0,0,0,.29.192C1294.889,81.939,1294.962,81.965,1295.142,81.856Z" transform="translate(-1292.958 -74.936)" fill="#feb37c"/>
          <path id="Path_14679-2" data-name="Path 14679" d="M1302.994,75c-1.367.373-.658,2.788-.713,3.723-.008.171-.048.377-.213.45a.04.04,0,0,1-.021.009l0,.005c-.346.965-1.278,1.658-1.84,2.663a3.252,3.252,0,0,0-.389,1.163c.107.1.2.209.3.315a5.179,5.179,0,0,0,1.148,1.148l.709,1.356c.217.612.444,1.228.674,1.84a10.057,10.057,0,0,1,.214-1.637c.289-1.363.789-2.671,1.15-4.022a5.848,5.848,0,0,0,.25-1.856c-.085-1.321-.828-2.515-1-3.824A3.5,3.5,0,0,0,1302.994,75Z" transform="translate(-1295.204 -74.573)" fill="#feb37c"/>
          <path id="Path_14680-2" data-name="Path 14680" d="M1298.251,74.436a.836.836,0,0,0-.326.42,3.09,3.09,0,0,0,.146,1.835l0,.007c.116.388.245.757.311,1.063a.639.639,0,0,1,.022.2l1.339.471a3.847,3.847,0,0,0,0-.82c-.036-.431-.085-.862-.141-1.29-.18-.627-.366-1.563-.85-1.893A.494.494,0,0,0,1298.251,74.436Z" transform="translate(-1294.555 -74.365)" fill="#feb37c"/>
        </g>
        <path id="Path_14681-2" data-name="Path 14681" d="M1407.34,119.407c-.522-.451-1.049-.915-1.571-1.367l-.314.357a40.617,40.617,0,0,1-22.814,17.085c-4.414,1.271-9.163,1.842-12.985,4.387-4.38,2.907-6.338,7.591-7.9,12.39a65.78,65.78,0,0,0-2.717,15.455c-.082,1.093-1.708,10.448-2.466,12.842a29.615,29.615,0,0,0,8.118-2.185c.143-1.013.1-2.038.178-3.072.119-1.672.212-3.337.253-5.013a59.4,59.4,0,0,1,.7-9.707,58.409,58.409,0,0,1,4.251-14.49c2.873-5.99,13.485-7.466,19.014-10.041a36.61,36.61,0,0,0,10.222-7.1c2.964-2.93,5.407-6.341,8.4-9.22C1407.588,119.623,1407.466,119.511,1407.34,119.407Z" transform="translate(-1313.799 -88.673)" fill="#dd2b78"/>
        <path id="Path_14682-2" data-name="Path 14682" d="M1375.463,114.444A3.351,3.351,0,0,1,1373.93,116a17.4,17.4,0,0,1-3.178,1.493,3.99,3.99,0,0,0,.117-.959l.178-2.049a1.9,1.9,0,0,0,1.7-.7c.53-.575,1.165-1.306,1.936-1.142A1.355,1.355,0,0,1,1375.463,114.444Z" transform="translate(-1318.444 -86.898)" fill="#ed8a55"/>
        <path id="Path_14683-2" data-name="Path 14683" d="M1354.442,128.706c.406-1.244.783-2.488,1.132-3.74l8.687.1c-.609,1.628-1.159,3.287-1.627,4.974-.19.672-.368,1.337-.522,2.021a21.493,21.493,0,0,1-10.367,4.114C1352.73,133.722,1353.637,131.227,1354.442,128.706Z" transform="translate(-1312.217 -90.942)" fill="#feb37c"/>
        <path id="Path_14684-2" data-name="Path 14684" d="M1366.327,100.289a4,4,0,0,1,.766,4.594c-.248.4-.6.735-.807,1.146a1.171,1.171,0,0,0,.052,1.32.816.816,0,0,0,.327.223,1.9,1.9,0,0,0,1.7-.7c.531-.575,1.165-1.306,1.936-1.142a1.355,1.355,0,0,1,.775,1.8,3.351,3.351,0,0,1-1.533,1.554,17.4,17.4,0,0,1-3.178,1.493,4.841,4.841,0,0,1-.568,1.471,37.067,37.067,0,0,0,8-3.849c2.147-2.824,2-7.7.379-10.678-2.433-4.47-8.779-6.688-13.625-5.807a3.942,3.942,0,0,0-2.829,1.594c-.564.968-.52,2.749.6,2.811l1.453.62c.766.324,1.543.651,2.316.987A11.5,11.5,0,0,1,1366.327,100.289Z" transform="translate(-1314.061 -79.987)" fill="#00b0ff"/>
        <path id="Path_14685-2" data-name="Path 14685" d="M1356.614,114.774c-.945.038-2.243-.031-2.74-.988a7.07,7.07,0,0,1-.335-3.472,16.633,16.633,0,0,1,.907-4.557c.5-1.429,1.348-2.642,1.85-4.065.292-.827.61-2.5,1.74-2.655a.609.609,0,0,1,.265.041c.868.278,1.68.754,2.524,1.109a11.5,11.5,0,0,1,4.229,2.562,4,4,0,0,1,.766,4.594c-.248.4-.6.735-.807,1.146a1.171,1.171,0,0,0,.052,1.32.825.825,0,0,0,.327.224l-.178,2.049a3.99,3.99,0,0,1-.117.959,34.913,34.913,0,0,1-6.742,1.553A13.955,13.955,0,0,1,1356.614,114.774Z" transform="translate(-1312.786 -82.447)" fill="#feb37c"/>
        <path id="Path_14686-2" data-name="Path 14686" d="M1359.649,121.339c1.333-.2,2.662-.425,3.973-.738a23.4,23.4,0,0,1,3.506-.976c-.547.038-.831,2.615-.917,3.03-.112.9.044.719-.835.7-1.221-.03-2.777-.075-4-.09l-3.936-.047s.318-1.133.471-1.7A13.956,13.956,0,0,0,1359.649,121.339Z" transform="translate(-1314.083 -89.193)" fill="#ed8a55"/>
        <path id="Path_14687-2" data-name="Path 14687" d="M1384.073,107.76c-.21-.184-.428-.369-.638-.553-.956,1.226-1.819,2.505-2.877,3.677A33.1,33.1,0,0,1,1376,115a32.37,32.37,0,0,1-31.587,4.141c-.19.672-.368,1.337-.522,2.021a21.493,21.493,0,0,1-10.368,4.114c.985-2.458,1.892-4.953,2.7-7.474a51.387,51.387,0,0,1-34.1-26.11c-.288.134-.588.273-.885.4a25.329,25.329,0,0,1-4.582,1.526c-.175.04-.351.081-.523.113a38.782,38.782,0,0,0,4.853,12.569c4.728,7.857,12.233,13.021,19.5,18.261,1.841,1.327,3.839,3.135,3.595,5.391-.157,1.448-1.218,2.61-1.854,3.919a7.008,7.008,0,0,0-.691,2.657,21.943,21.943,0,0,0,.187,3.024,19.765,19.765,0,0,1-9.914,18.477,71.274,71.274,0,0,0,10.591,9.319,27.276,27.276,0,0,0,8.008,3.749,32.608,32.608,0,0,0,4.76.915c.044,0,.087-.008.133-.009a18.737,18.737,0,0,0,2.072-.152.635.635,0,0,0,.358-.372c1.191-3.987.943-7.991,1.51-12.04s1.162-8.169,1.9-12.2c1.12-6.147,3.512-12.555,8.715-16.009,3.821-2.544,8.57-3.115,12.984-4.387a40.618,40.618,0,0,0,22.815-17.085l.314-.357C1385.341,108.861,1384.7,108.309,1384.073,107.76Z" transform="translate(-1293.999 -80.043)" fill="#ff65ab"/>
        <g id="Group_7620" data-name="Group 7620" transform="translate(42.629 18.333)">
          <path id="Path_14688" data-name="Path 14688" d="M1360.118,107.151a7.052,7.052,0,0,1-1.416,2.618,1.228,1.228,0,0,0-.333.541,1.021,1.021,0,0,0,.455.891" transform="translate(-1357.013 -103.439)" fill="none" stroke="#8e6b61" stroke-linecap="round" stroke-linejoin="round" stroke-width="0.422"/>
          <path id="Path_14689" data-name="Path 14689" d="M1365.649,109.748a2.84,2.84,0,0,0-.709-.483.587.587,0,0,1,.463-.417.5.5,0,0,1,.525.535.7.7,0,0,1-.176.476A1.112,1.112,0,0,0,1365.649,109.748Z" transform="translate(-1359.169 -103.995)" fill="#373737"/>
          <path id="Path_14690" data-name="Path 14690" d="M1357.858,105.852a3.11,3.11,0,0,0-.958-.291.694.694,0,0,1,.04-.157.525.525,0,0,1,.687-.34.6.6,0,0,1,.239.773Z" transform="translate(-1356.535 -102.742)" fill="#373737"/>
          <path id="Path_14691" data-name="Path 14691" d="M1367.674,106.912a2.253,2.253,0,0,0-2.439-1.575" transform="translate(-1359.266 -102.836)" fill="none" stroke="#8e6b61" stroke-linecap="round" stroke-linejoin="round" stroke-width="0.458"/>
          <path id="Path_14692" data-name="Path 14692" d="M1359.7,102.7a2.013,2.013,0,0,0-2.394-.966" transform="translate(-1356.669 -101.631)" fill="none" stroke="#8e6b61" stroke-linecap="round" stroke-linejoin="round" stroke-width="0.458"/>
          <path id="Path_14693" data-name="Path 14693" d="M1359.028,116.579a2.256,2.256,0,0,1-2.671-1.038" transform="translate(-1356.357 -106.188)" fill="none" stroke="#c9357e" stroke-linecap="round" stroke-linejoin="round" stroke-width="0.52"/>
        </g>
      </g>
    </g>
    <g id="Mask_Group_22" data-name="Mask Group 22" clip-path="url(#clip-path)">
      <g id="Group_7601" data-name="Group 7601" transform="translate(233.129 149.214)">
        <g id="Group_7581" data-name="Group 7581" transform="translate(42.079 31.786)">
          <path id="Path_14581" data-name="Path 14581" d="M128.458,114.876c-1.775,3.072-2.157,6.174-.853,6.927s3.8-1.129,5.574-4.2,2.155-6.174.852-6.927S130.232,111.8,128.458,114.876Z" transform="translate(-27.788 -18.544)" fill="#e1f4fe"/>
          <path id="Path_14582" data-name="Path 14582" d="M185.758,85.358c3.169,1.6,6.287,1.8,6.965.456s-1.343-3.729-4.513-5.325-6.287-1.8-6.965-.454S182.588,83.762,185.758,85.358Z" transform="translate(-18.657 -23.82)" fill="#ff65ab"/>
          <path id="Path_14583" data-name="Path 14583" d="M297.914,97.808c-1.775,3.074-2.155,6.175-.852,6.927s3.8-1.129,5.574-4.2,2.155-6.174.852-6.926S299.689,94.734,297.914,97.808Z" transform="translate(0.716 -21.415)" fill="#ff65ab"/>
          <path id="Path_14584" data-name="Path 14584" d="M292.4,62.47c2.656,2.352,5.62,3.345,6.618,2.217s-.348-3.947-3.006-6.3-5.62-3.345-6.618-2.217S289.743,60.118,292.4,62.47Z" transform="translate(-0.499 -27.762)" fill="#ffc400"/>
          <path id="Path_14585" data-name="Path 14585" d="M252.661,85.47c3.454-.811,5.977-2.657,5.632-4.123s-3.423-2-6.878-1.185-5.975,2.655-5.632,4.121S249.207,86.281,252.661,85.47Z" transform="translate(-7.785 -23.712)" fill="#e1f4fe"/>
          <path id="Path_14587" data-name="Path 14587" d="M537.028,51.514c3.224,1.481,6.348,1.574,6.977.206s-1.475-3.678-4.7-5.16-6.348-1.574-6.977-.206S533.8,50.032,537.028,51.514Z" transform="translate(40.402 -29.498)" fill="#e1f4fe"/>
          <path id="Path_14588" data-name="Path 14588" d="M406.366,57.138c3.318-1.258,5.575-3.419,5.041-4.827s-3.656-1.528-6.974-.27-5.575,3.419-5.041,4.827S403.049,58.4,406.366,57.138Z" transform="translate(18.046 -28.525)" fill="#ff65ab"/>
          <path id="Path_14589" data-name="Path 14589" d="M552.878,83.907c.811,3.456,2.656,5.977,4.123,5.633s2-3.424,1.186-6.878-2.657-5.977-4.123-5.632S552.067,80.452,552.878,83.907Z" transform="translate(43.813 -24.181)" fill="#ff65ab"/>
          <path id="Path_14590" data-name="Path 14590" d="M510.316,118.173c-3.395,1.033-5.792,3.037-5.354,4.478s3.546,1.771,6.94.738,5.792-3.037,5.354-4.478S513.711,117.14,510.316,118.173Z" transform="translate(35.809 -17.356)" fill="#ffc400"/>
          <path id="Path_14591" data-name="Path 14591" d="M498.185,139.184c-2.509-2.509-5.406-3.681-6.471-2.617s.106,3.963,2.616,6.471,5.406,3.681,6.471,2.617S500.694,141.694,498.185,139.184Z" transform="translate(33.523 -14.227)" fill="#ff65ab"/>
          <path id="Path_14592" data-name="Path 14592" d="M581.366,64.252c-3.074,1.775-4.954,4.27-4.2,5.574s3.855.923,6.927-.852,4.954-4.27,4.2-5.574S584.439,62.479,581.366,64.252Z" transform="translate(47.934 -26.598)" fill="#e1f4fe"/>
          <g id="Group_7578" data-name="Group 7578" transform="translate(335.644 37.202)">
            <path id="Path_14593" data-name="Path 14593" d="M338.858,110.867l-3.5-.146a33.58,33.58,0,0,1,5.855-17.653,24.2,24.2,0,0,1-3.551-3.829,8.649,8.649,0,0,1-.5-9.985,13.32,13.32,0,0,1,1.4-1.947,6.326,6.326,0,0,1-2.146-4.781c.221-6.4,11.855-10.964,13.182-11.462l1.236,3.279c-4.472,1.689-10.815,5.383-10.916,8.306A3.134,3.134,0,0,0,341.1,74.9c3.8-2.954,8.828-4.619,12.207-4.2a7.316,7.316,0,0,1,5.919,5.132A5.433,5.433,0,0,1,357.8,81.7c-1.845,1.618-5.783,2.751-14.07-1.046a25.128,25.128,0,0,1-2.368-1.231,9.973,9.973,0,0,0-1.183,1.6,5.135,5.135,0,0,0,.3,6.135,20.73,20.73,0,0,0,2.929,3.187c2.654-2.856,5.627-4.606,8.366-4.791,3.364-.225,5.833,2.033,6.547,6.047.784,4.408-1.639,5.959-2.716,6.422-2.85,1.225-7.426-.063-11.6-2.825A29.35,29.35,0,0,0,338.858,110.867Zm7.385-18.379c3.25,2.075,6.493,2.953,7.978,2.315.256-.11,1.03-.443.65-2.589-.59-3.315-2.3-3.2-2.862-3.162C350.426,89.158,348.313,90.364,346.244,92.488Zm-2.03-15.5c.312.16.638.318.981.475,5.871,2.689,9.168,2.588,10.3,1.6a2.118,2.118,0,0,0,.381-2.2,3.834,3.834,0,0,0-3-2.685C350.613,73.9,347.1,75.053,344.213,76.989Z" transform="translate(-335.356 -61.063)" fill="#ffc400"/>
          </g>
          <g id="Group_7579" data-name="Group 7579" transform="translate(699.663 131.725)">
            <path id="Path_14594" data-name="Path 14594" d="M648.795,187.519l-.957-3.371c2.764-.786,10.83-3.91,11.611-7.81a7.258,7.258,0,0,0-1.174-4.935,18.306,18.306,0,0,1-12.1,1.534c-5.009-1.155-5.3-3.938-5.186-5.082.291-3.029,4.239-5.819,8.452-5.97,3.158-.1,6.836,1.776,9.688,4.85a12.624,12.624,0,0,0,4.613-7.366,7.3,7.3,0,0,0-.171-3.958,17.551,17.551,0,0,1-3.111,1.154c-7.54,2.04-9.826-1.634-10.348-2.81a5.716,5.716,0,0,1,2.124-6.973c2.313-1.5,6.523-.831,10.014,1.585a13.459,13.459,0,0,1,2.425,2.13,8.841,8.841,0,0,0,2.92-5.956l3.5.012a12.3,12.3,0,0,1-4.517,8.915,10.769,10.769,0,0,1,.584,6.645,16.318,16.318,0,0,1-5.924,9.416,10.657,10.657,0,0,1,1.646,7.494C661.546,183.723,650.1,187.15,648.795,187.519Zm.921-22.134c-.051,0-.1,0-.153,0-2.793.1-5,1.9-5.089,2.8-.028.287.623.9,2.485,1.333a14.666,14.666,0,0,0,9.078-.936C654.03,166.624,651.619,165.385,649.715,165.385Zm5.577-15.9a2.2,2.2,0,0,0-1.155.244,2.173,2.173,0,0,0-.828,2.6c.489,1.1,2.387,1.894,6.231.853a14.779,14.779,0,0,0,2.133-.75,10.28,10.28,0,0,0-1.419-1.182A9.359,9.359,0,0,0,655.293,149.483Z" transform="translate(-640.969 -144.544)" fill="#ffc400"/>
          </g>
          <g id="Group_7580" data-name="Group 7580" transform="translate(54.892 35.146)">
            <path id="Path_14595" data-name="Path 14595" d="M98.94,61.871l2.016,2.867c-2.349,1.654-8.933,7.265-8.383,11.2a7.254,7.254,0,0,0,2.736,4.271,18.312,18.312,0,0,1,10.92-5.443c5.11-.562,6.3,1.971,6.572,3.085.725,2.956-2.082,6.894-6.008,8.425-2.947,1.138-7.04.581-10.746-1.382a12.638,12.638,0,0,0-1.924,8.477,7.308,7.308,0,0,0,1.468,3.68,17.411,17.411,0,0,1,2.555-2.116c6.444-4.415,9.814-1.7,10.695-.764a5.717,5.717,0,0,1,.3,7.284c-1.689,2.174-5.884,2.937-9.975,1.808a13.526,13.526,0,0,1-2.993-1.21,8.847,8.847,0,0,0-.791,6.586l-3.312,1.145a12.3,12.3,0,0,1,1.322-9.905A10.767,10.767,0,0,1,90.646,93.8a16.309,16.309,0,0,1,2.484-10.843A10.656,10.656,0,0,1,89.1,76.427C88.156,69.662,97.834,62.648,98.94,61.871Zm6.436,21.2c.049-.016.1-.035.144-.053,2.6-1.016,4.095-3.446,3.88-4.325-.069-.28-.887-.647-2.786-.438a14.661,14.661,0,0,0-8.26,3.88C100.9,83.323,103.58,83.7,105.376,83.068ZM105.36,99.92a2.212,2.212,0,0,0,1.009-.611,2.173,2.173,0,0,0-.078-2.732c-.822-.871-2.877-1-6.163,1.252a14.862,14.862,0,0,0-1.765,1.411,10.284,10.284,0,0,0,1.73.648A9.37,9.37,0,0,0,105.36,99.92Z" transform="translate(-89.037 -61.871)" fill="#ff65ab"/>
          </g>
          <path id="Path_14596" data-name="Path 14596" d="M47.322,97.265l-5.273,9.149,17.809,5.876,4-7.362Z" transform="translate(-42.049 -20.772)" fill="#e1f4fe"/>
          <path id="Path_14598" data-name="Path 14598" d="M490.973,40.014l-6,8.686,17.268,7.315,4.587-7.01Z" transform="translate(32.454 -30.402)" fill="#ff65ab"/>
          <path id="Path_14599" data-name="Path 14599" d="M233.8,60.846,221.885,73.767l7.924,7.185L241.92,65.058Z" transform="translate(-11.799 -26.898)" fill="#e1f4fe"/>
          <path id="Path_14600" data-name="Path 14600" d="M371.432,40.774,365.3,56.768l11.585,2.083,5.2-18.077Z" transform="translate(12.324 -30.274)" fill="#e1f4fe"/>
          <path id="Path_14601" data-name="Path 14601" d="M628.567,77.083l-16.443-1.416-.806,7.924,18.4.467Z" transform="translate(53.707 -24.405)" fill="#e1f4fe"/>
          <path id="Path_14602" data-name="Path 14602" d="M149.805,77.351l-8.691-14.03-6.835,4.089L144.9,82.441Z" transform="translate(-26.535 -26.482)" fill="#ffc400"/>
          <path id="Path_14603" data-name="Path 14603" d="M652.812,85.176l-6.133,15.994,11.585,2.083,5.2-18.077Z" transform="translate(59.655 -22.805)" fill="#ffc400"/>
          <path id="Path_14604" data-name="Path 14604" d="M426.084,35.507l8.078,15.818,12.069-7.909-10.074-11.63Z" transform="translate(22.549 -31.786)" fill="#ffc400"/>
        </g>
        <g id="Group_7590" data-name="Group 7590" transform="translate(41.871 102.311)">
          <g id="Group_7582" data-name="Group 7582" transform="translate(12.742 69.652)">
            <path id="Path_14605" data-name="Path 14605" d="M52.778,155.184,56.37,183.26,79,178.939l-3.959-27.161Z" transform="translate(-52.778 -151.779)" fill="#e1f4fe"/>
          </g>
          <g id="Group_7583" data-name="Group 7583" transform="translate(41.566 64.338)">
            <path id="Path_14606" data-name="Path 14606" d="M77.452,151.606l4.251,27.87L102.926,175,98.194,147.23Z" transform="translate(-77.452 -147.23)" fill="#ff65ab"/>
          </g>
          <g id="Group_7584" data-name="Group 7584" transform="translate(68.195 58.988)">
            <path id="Path_14607" data-name="Path 14607" d="M100.247,147.564l5.981,26.232,20.444-5.625-8.664-25.522Z" transform="translate(-100.247 -142.65)" fill="#ffc400"/>
          </g>
          <g id="Group_7585" data-name="Group 7585" transform="translate(96.823 49.319)">
            <path id="Path_14608" data-name="Path 14608" d="M124.753,141.457l10.275,24.012,20.054-8.6-10.567-22.5Z" transform="translate(-124.753 -134.373)" fill="#00b0ff"/>
          </g>
          <g id="Group_7586" data-name="Group 7586" transform="translate(177.755 13.349)">
            <path id="Path_14609" data-name="Path 14609" d="M194.032,114.214,208.588,135.9,226.7,123.723l-14.562-20.14Z" transform="translate(-194.032 -103.583)" fill="#00b0ff"/>
          </g>
          <g id="Group_7587" data-name="Group 7587" transform="translate(125.42 39.275)">
            <path id="Path_14610" data-name="Path 14610" d="M149.232,133.716,159.321,154.8l19.607-10.028-10.334-19S156.081,131.253,149.232,133.716Z" transform="translate(-149.232 -125.776)" fill="#ff65ab"/>
          </g>
          <g id="Group_7588" data-name="Group 7588" transform="translate(153.263 28.011)">
            <path id="Path_14611" data-name="Path 14611" d="M173.066,124.074l10.087,21.086,19.607-10.028-10.333-19S179.915,121.611,173.066,124.074Z" transform="translate(-173.066 -116.134)" fill="#e1f4fe"/>
          </g>
          <g id="Group_7589" data-name="Group 7589">
            <path id="Path_14612" data-name="Path 14612" d="M42.091,167.881l-.22-2.326c1.415-.133,142.225-13.982,211.205-73.4l1.525,1.77C185.055,153.832,43.512,167.747,42.091,167.881Z" transform="translate(-41.871 -92.156)" fill="#ffc400"/>
          </g>
        </g>
        <g id="Group_7600" data-name="Group 7600" transform="translate(513.55 51.904)">
          <g id="Group_7591" data-name="Group 7591" transform="translate(174.176 71.23)">
            <path id="Path_14613" data-name="Path 14613" d="M620.756,113.595l-3.4,26.572-22.626-4.321,3.771-25.865Z" transform="translate(-594.73 -109.981)" fill="#e1f4fe"/>
          </g>
          <g id="Group_7592" data-name="Group 7592" transform="translate(146.096 64.62)">
            <path id="Path_14614" data-name="Path 14614" d="M596.167,108.7l-4.251,27.869-21.223-4.478,4.732-27.767Z" transform="translate(-570.693 -104.323)" fill="#ff65ab"/>
          </g>
          <g id="Group_7593" data-name="Group 7593" transform="translate(118.516 59.27)">
            <path id="Path_14615" data-name="Path 14615" d="M573.509,104.658l-5.981,26.232-20.444-5.625,8.664-25.522Z" transform="translate(-547.085 -99.743)" fill="#ffc400"/>
          </g>
          <g id="Group_7594" data-name="Group 7594" transform="translate(209.793 77.818)">
            <path id="Path_14616" data-name="Path 14616" d="M644.61,116.209l.372,26.9-19.764-.6.973-26.889Z" transform="translate(-625.218 -115.62)" fill="#ffc400"/>
          </g>
          <g id="Group_7595" data-name="Group 7595" transform="translate(85.984 49.601)">
            <path id="Path_14617" data-name="Path 14617" d="M549.565,98.55l-10.275,24.012-20.054-8.6L529.8,91.467Z" transform="translate(-519.236 -91.467)" fill="#00b0ff"/>
          </g>
          <g id="Group_7596" data-name="Group 7596" transform="translate(2.717 13.631)">
            <path id="Path_14618" data-name="Path 14618" d="M480.623,71.307,466.066,92.992,447.959,80.816l14.562-20.14Z" transform="translate(-447.959 -60.676)" fill="#00b0ff"/>
          </g>
          <g id="Group_7597" data-name="Group 7597" transform="translate(58.02 39.558)">
            <path id="Path_14619" data-name="Path 14619" d="M524.995,90.809,514.907,111.9,495.3,101.868l10.334-19S518.146,88.346,524.995,90.809Z" transform="translate(-495.299 -82.869)" fill="#ff65ab"/>
          </g>
          <g id="Group_7598" data-name="Group 7598" transform="translate(30.178 28.294)">
            <path id="Path_14620" data-name="Path 14620" d="M501.161,81.167l-10.088,21.086L471.466,92.226l10.333-19S494.313,78.7,501.161,81.167Z" transform="translate(-471.466 -73.227)" fill="#e1f4fe"/>
          </g>
          <g id="Group_7599" data-name="Group 7599">
            <path id="Path_14621" data-name="Path 14621" d="M701.373,132.233c-.027,0-.055,0-.083,0a762.377,762.377,0,0,1-96.714-14.68c-48.847-10.637-116-30.8-158.525-66.479a1.168,1.168,0,0,1,1.5-1.79c80.734,67.733,252.179,80.5,253.9,80.618a1.169,1.169,0,0,1-.082,2.334Z" transform="translate(-445.634 -49.007)" fill="#ffc400"/>
          </g>
        </g>
      </g>
    </g>
  </g>
</svg>
